<svg width="24" height="24" viewBox="0 0 24 24" fill="none" xmlns="http://www.w3.org/2000/svg">
<rect width="24" height="24" rx="8" fill="#E5ECF6"/>
<rect width="24" height="24" rx="8" fill="#E5ECF6"/>
<path fill-rule="evenodd" clip-rule="evenodd" d="M12 5.5C12 5.5 12.9152 5.5 13.7518 5.85384C13.7518 5.85384 14.5594 6.19544 15.182 6.81802C15.182 6.81802 15.8046 7.4406 16.1462 8.24824C16.1462 8.24824 16.5 9.08481 16.5 10C16.5 10 16.5 10.9152 16.1462 11.7518C16.1462 11.7518 15.8046 12.5594 15.182 13.182C15.182 13.182 14.5594 13.8046 13.7518 14.1462C13.7518 14.1462 12.9152 14.5 12 14.5C12 14.5 11.0848 14.5 10.2482 14.1462C10.2482 14.1462 9.4406 13.8046 8.81802 13.182C8.81802 13.182 8.19545 12.5594 7.85384 11.7518C7.85384 11.7518 7.5 10.9152 7.5 10C7.5 10 7.5 9.08481 7.85384 8.24824C7.85384 8.24824 8.19544 7.44059 8.81802 6.81802C8.81802 6.81802 9.4406 6.19544 10.2482 5.85384C10.2482 5.85384 11.0848 5.5 12 5.5ZM12 6.5C12 6.5 10.5503 6.5 9.52513 7.52513C9.52513 7.52513 8.5 8.55025 8.5 10C8.5 10 8.5 11.4497 9.52513 12.4749C9.52513 12.4749 10.5503 13.5 12 13.5C12 13.5 13.4497 13.5 14.4749 12.4749C14.4749 12.4749 15.5 11.4497 15.5 10C15.5 10 15.5 8.55025 14.4749 7.52513C14.4749 7.52513 13.4497 6.5 12 6.5Z" fill="#1C1C1C"/>
<path d="M15.2503 15.3704C16.7587 16.2414 17.6295 17.75 17.6295 17.75C17.6958 17.8648 17.805 17.9486 17.933 17.983C17.9753 17.9943 18.0188 18 18.0625 18C18.0677 18 18.073 17.9999 18.0782 17.9998C18.1606 17.9972 18.2411 17.9743 18.3125 17.933C18.4672 17.8437 18.5625 17.6787 18.5625 17.5C18.5625 17.4923 18.5623 17.4846 18.562 17.4769C18.5583 17.397 18.5355 17.3193 18.4955 17.25C17.4908 15.5094 15.7503 14.5044 15.7503 14.5044C14.0098 13.4995 12 13.4995 12 13.4995C9.9902 13.4995 8.2497 14.5044 8.2497 14.5044C6.50934 15.5093 5.50462 17.2498 5.50462 17.2498C5.46075 17.3258 5.4375 17.4123 5.4375 17.5L5.43758 17.5091C5.43832 17.5497 5.44402 17.5902 5.45455 17.6295C5.48888 17.7576 5.57269 17.8668 5.68754 17.933C5.76354 17.9769 5.84975 18 5.9375 18C5.94675 18 5.95601 17.9998 5.96525 17.9992C6.13375 17.9899 6.28617 17.8961 6.37054 17.75C7.24131 16.2414 8.74974 15.3704 8.74974 15.3704C10.2582 14.4995 12 14.4995 12 14.4995C13.7418 14.4995 15.2503 15.3704 15.2503 15.3704Z" fill="#1C1C1C"/>
</svg>
