<svg width="24" height="24" viewBox="0 0 24 24" fill="none" xmlns="http://www.w3.org/2000/svg">
<rect width="24" height="24" rx="8" fill="#E5ECF6"/>
<rect width="24" height="24" rx="8" fill="#E5ECF6"/>
<path fill-rule="evenodd" clip-rule="evenodd" d="M12 9.5C12 9.5 13.0355 9.5 13.7678 10.2322C13.7678 10.2322 14.5 10.9645 14.5 12C14.5 12 14.5 13.0355 13.7678 13.7678C13.7678 13.7678 13.0355 14.5 12 14.5C12 14.5 10.9645 14.5 10.2322 13.7678C10.2322 13.7678 9.5 13.0355 9.5 12C9.5 12 9.5 10.9645 10.2322 10.2322C10.2322 10.2322 10.9645 9.5 12 9.5ZM12 10.5C12 10.5 11.3787 10.5 10.9393 10.9393C10.9393 10.9393 10.5 11.3787 10.5 12C10.5 12 10.5 12.6213 10.9393 13.0607C10.9393 13.0607 11.3787 13.5 12 13.5C12 13.5 12.6213 13.5 13.0607 13.0607C13.0607 13.0607 13.5 12.6213 13.5 12C13.5 12 13.5 11.3787 13.0607 10.9393C13.0607 10.9393 12.6213 10.5 12 10.5Z" fill="#1C1C1C"/>
<path d="M9.1721 9.17247C9.26587 9.07871 9.31875 8.95133 9.31875 8.81873C9.31875 8.68621 9.26614 8.55912 9.1725 8.46537C9.07873 8.3716 8.95135 8.31873 8.81875 8.31873C8.68623 8.31873 8.55914 8.37133 8.46539 8.46498C7.77412 9.15549 7.39535 10.0561 7.39535 10.0561C6.99988 10.9869 6.99988 12 6.99988 12C6.99988 13.0131 7.39606 13.9455 7.39606 13.9455C7.77412 14.8445 8.46539 15.535 8.46539 15.535C8.55914 15.6286 8.68623 15.6812 8.81875 15.6812C8.95135 15.6812 9.07878 15.6284 9.17249 15.5346C9.26614 15.4408 9.31875 15.3137 9.31875 15.1812C9.31867 15.0486 9.26592 14.9212 9.1721 14.8275C8.61978 14.2758 8.31643 13.5544 8.31643 13.5544C7.99988 12.8094 7.99988 12 7.99988 12C7.99988 11.1905 8.31715 10.4438 8.31715 10.4438C8.61978 9.72419 9.1721 9.17247 9.1721 9.17247Z" fill="#1C1C1C"/>
<path d="M15.5348 8.46517C16.2259 9.15561 16.6039 10.0544 16.6039 10.0544C17.0001 10.9869 17.0001 12 17.0001 12C17.0001 13.0131 16.6046 13.9438 16.6046 13.9438C16.2259 14.8445 15.5346 15.535 15.5346 15.535C15.4471 15.6224 15.3303 15.6742 15.2068 15.6806C15.1983 15.681 15.1898 15.6812 15.1812 15.6812C15.0485 15.6812 14.9213 15.6285 14.8275 15.5346C14.7396 15.4466 14.6877 15.3291 14.6818 15.205C14.6814 15.1971 14.6812 15.1891 14.6812 15.1812C14.6813 15.0486 14.7341 14.9212 14.8279 14.8275C15.3802 14.2758 15.6828 13.5561 15.6828 13.5561C16.0001 12.8094 16.0001 12 16.0001 12C16.0001 11.1905 15.6836 10.4455 15.6836 10.4455C15.3802 9.72419 14.8279 9.17247 14.8279 9.17247C14.734 9.07869 14.6812 8.95143 14.6812 8.81873C14.6812 8.68724 14.733 8.56104 14.8254 8.46747L14.8275 8.46537C14.9103 8.38246 15.0196 8.33128 15.1363 8.32075C15.1512 8.31941 15.1661 8.31873 15.181 8.31873C15.3113 8.31873 15.4368 8.36964 15.5302 8.46063L15.5348 8.46517Z" fill="#1C1C1C"/>
<path d="M7.40354 7.4036L7.40582 7.40131C7.49819 7.30773 7.54999 7.18154 7.54999 7.05005C7.54999 6.91728 7.49718 6.78997 7.40322 6.69617L7.39893 6.69195C7.30557 6.60097 7.18035 6.55005 7.04999 6.55005C7.03514 6.55006 7.01985 6.55074 7.00506 6.55207C6.88829 6.56261 6.77894 6.61384 6.69611 6.69682C5.66241 7.73252 5.08982 9.07948 5.08982 9.07948C4.49994 10.4811 4.49994 12 4.49994 12C4.49994 13.519 5.08914 14.919 5.08914 14.919C5.66223 16.2675 6.69611 17.3033 6.69611 17.3033C6.78979 17.3971 6.91692 17.4499 7.04953 17.45C7.05738 17.45 7.0657 17.4499 7.07355 17.4495C7.19771 17.4436 7.31524 17.3917 7.40322 17.3039C7.49718 17.2101 7.54999 17.0828 7.54999 16.9501C7.54999 16.9416 7.54977 16.9331 7.54934 16.9246C7.54306 16.8011 7.49123 16.6843 7.40387 16.5968C6.50681 15.6981 6.01084 14.5311 6.01084 14.5311C5.49994 13.3171 5.49994 12 5.49994 12C5.49994 10.683 6.01015 9.47062 6.01015 9.47062C6.50672 8.30219 7.40354 7.4036 7.40354 7.4036Z" fill="#1C1C1C"/>
<path d="M17.3042 6.69713L17.3036 6.6965C17.2099 6.60284 17.0829 6.55017 16.9505 6.55005C16.818 6.55005 16.6905 6.6026 16.5968 6.69617C16.503 6.78994 16.45 6.91744 16.45 7.05005C16.45 7.1825 16.5026 7.30954 16.5961 7.40328C17.4932 8.30198 17.9892 9.469 17.9892 9.469C18.5001 10.683 18.5001 12 18.5001 12C18.5001 13.3171 17.9898 14.5295 17.9898 14.5295C17.4932 15.6981 16.5961 16.5968 16.5961 16.5968C16.5026 16.6906 16.45 16.8176 16.45 16.95C16.4501 17.0827 16.5029 17.2102 16.5968 17.3039C16.6905 17.3975 16.8176 17.45 16.95 17.45C17.0826 17.4499 17.2102 17.3971 17.3039 17.3033C18.3378 16.2675 18.9102 14.9206 18.9102 14.9206C19.5001 13.519 19.5001 12 19.5001 12C19.5001 10.4811 18.9109 9.0811 18.9109 9.0811C18.3379 7.7328 17.3042 6.69713 17.3042 6.69713Z" fill="#1C1C1C"/>
</svg>
