<svg width="62" height="19" viewBox="0 0 62 19" fill="none" xmlns="http://www.w3.org/2000/svg">
<g id="Logo">
<g id="Text">
<path d="M27.9308 12.921C27.5342 13.2668 26.9452 13.4397 26.1636 13.4397C25.4521 13.4397 24.8514 13.3187 24.3615 13.0766C23.8716 12.823 23.4925 12.5695 23.2242 12.3159C23.0609 12.3735 22.9151 12.4715 22.7868 12.6098C22.6701 12.7366 22.6118 12.898 22.6118 13.0939C22.6118 13.3244 22.7576 13.5607 23.0492 13.8028C23.3525 14.0333 23.7666 14.2292 24.2915 14.3906C24.8281 14.5405 25.4521 14.6154 26.1636 14.6154C27.3767 14.6154 28.3157 14.333 28.9806 13.7682C29.6571 13.2034 29.9954 12.4657 29.9954 11.5551C29.9954 10.7022 29.7271 10.0337 29.1906 9.54956C28.6657 9.06545 27.9425 8.69661 27.021 8.44303L25.9537 8.13182C25.3121 7.9474 24.8456 7.7284 24.5539 7.47482C24.274 7.22124 24.134 6.89274 24.134 6.48932C24.134 5.98216 24.3323 5.5845 24.7289 5.29634C25.1255 4.99666 25.6621 4.84681 26.3386 4.84681C26.9218 4.84681 27.4584 4.93326 27.9483 5.10616C28.4499 5.27905 28.8465 5.48076 29.1381 5.71129C29.2664 5.64213 29.3714 5.54992 29.453 5.43466C29.5347 5.30787 29.5755 5.16955 29.5755 5.01971C29.5755 4.78918 29.4297 4.57018 29.1381 4.36271C28.8581 4.15523 28.4674 3.9881 27.9658 3.86131C27.4759 3.723 26.916 3.65384 26.2861 3.65384C25.2013 3.65384 24.3323 3.90742 23.6791 4.41458C23.0259 4.91021 22.6993 5.60179 22.6993 6.48932C22.6993 6.9619 22.7926 7.37684 22.9792 7.73416C23.1775 8.07995 23.4575 8.37387 23.8191 8.61592C24.1807 8.84645 24.6064 9.03663 25.0963 9.18648L26.6186 9.636C27.2834 9.82043 27.7675 10.0682 28.0708 10.3795C28.3857 10.6907 28.5432 11.0826 28.5432 11.5551C28.5432 12.1084 28.3391 12.5637 27.9308 12.921Z" fill="black" fill-opacity="0.4"/>
<path d="M38.1577 6.90426C38.7759 7.37684 39.085 8.11453 39.085 9.11732V14.356C39.0267 14.3791 38.9334 14.4021 38.8051 14.4252C38.6885 14.4598 38.566 14.4771 38.4377 14.4771C38.1811 14.4771 37.9886 14.431 37.8603 14.3387C37.7436 14.235 37.6853 14.0736 37.6853 13.8546V9.18648C37.6853 8.541 37.4987 8.06842 37.1254 7.76874C36.7638 7.46905 36.2739 7.31921 35.6557 7.31921C35.1891 7.31921 34.775 7.37684 34.4134 7.49211C34.0518 7.60737 33.7427 7.73992 33.4861 7.88977V14.356C33.4278 14.3791 33.3403 14.4021 33.2237 14.4252C33.107 14.4598 32.9787 14.4771 32.8387 14.4771C32.5938 14.4771 32.4072 14.431 32.2789 14.3387C32.1505 14.235 32.0864 14.0736 32.0864 13.8546V7.95892C32.0864 7.71687 32.133 7.52092 32.2264 7.37108C32.3313 7.20971 32.5063 7.05411 32.7513 6.90426C33.0545 6.73137 33.457 6.57 33.9585 6.42016C34.4601 6.25879 35.0258 6.17811 35.6557 6.17811C36.7172 6.17811 37.5512 6.42016 38.1577 6.90426Z" fill="black" fill-opacity="0.4"/>
<path fill-rule="evenodd" clip-rule="evenodd" d="M49.2122 10.3967C49.2122 11.2497 49.0489 11.9931 48.7223 12.6271C48.3957 13.261 47.9349 13.7509 47.34 14.0967C46.7452 14.4425 46.0453 14.6154 45.2404 14.6154C44.4356 14.6154 43.7299 14.4425 43.1234 14.0967C42.5285 13.7509 42.0677 13.261 41.7411 12.6271C41.4145 11.9931 41.2512 11.2497 41.2512 10.3967C41.2512 9.53227 41.4145 8.78882 41.7411 8.1664C42.0794 7.53245 42.546 7.04258 43.1409 6.69679C43.7474 6.351 44.4473 6.17811 45.2404 6.17811C46.0336 6.17811 46.7277 6.351 47.3225 6.69679C47.9174 7.04258 48.3782 7.53245 48.7048 8.1664C49.0431 8.78882 49.2122 9.53227 49.2122 10.3967ZM45.2404 7.31921C44.4589 7.31921 43.8349 7.59584 43.3683 8.14911C42.9134 8.69085 42.6859 9.44006 42.6859 10.3967C42.6859 11.365 42.9076 12.1199 43.3508 12.6617C43.8057 13.2034 44.4356 13.4743 45.2404 13.4743C46.0336 13.4743 46.6518 13.2034 47.0951 12.6617C47.55 12.1084 47.7775 11.3534 47.7775 10.3967C47.7775 9.44006 47.55 8.69085 47.0951 8.14911C46.6518 7.59584 46.0336 7.31921 45.2404 7.31921Z" fill="black" fill-opacity="0.4"/>
<path d="M56.3661 8.44303C56.1562 9.16919 55.9287 9.89535 55.6838 10.6215C55.4505 11.3477 55.223 12.0277 55.0014 12.6617C54.7798 13.2956 54.5756 13.8431 54.389 14.3042C54.2957 14.3618 54.1907 14.4079 54.0741 14.4425C53.9574 14.4771 53.8 14.4943 53.6017 14.4943C53.415 14.4943 53.2401 14.4598 53.0768 14.3906C52.9251 14.333 52.8201 14.235 52.7618 14.0967C52.6452 13.8662 52.511 13.5319 52.3594 13.0939C52.2194 12.6559 52.0678 12.1545 51.9045 11.5897C51.7528 11.0249 51.5954 10.4428 51.4321 9.84348C51.2688 9.23258 51.1171 8.64474 50.9772 8.07995C50.8489 7.51516 50.738 7.01376 50.6447 6.57576C50.7264 6.49508 50.8255 6.42016 50.9422 6.351C51.0705 6.28184 51.2221 6.24726 51.3971 6.24726C51.6187 6.24726 51.782 6.31066 51.887 6.43745C52.0036 6.55271 52.0853 6.7429 52.1319 7.008C52.2369 7.49211 52.3536 8.03961 52.4819 8.6505C52.6218 9.2614 52.7618 9.86653 52.9018 10.4659C53.0534 11.0653 53.1876 11.607 53.3042 12.0911C53.4325 12.5637 53.5258 12.9152 53.5842 13.1458H53.6542C53.7475 12.8691 53.8933 12.4196 54.0916 11.7972C54.2899 11.1632 54.5232 10.4428 54.7914 9.636C55.0714 8.82916 55.3513 8.01079 55.6313 7.1809C55.7246 7.12326 55.8354 7.08292 55.9637 7.05987C56.092 7.02529 56.232 7.008 56.3836 7.008C56.5936 7.008 56.7686 7.04834 56.9085 7.12903C57.0485 7.19819 57.1418 7.30769 57.1885 7.45753C57.4684 8.25284 57.7309 9.03663 57.9758 9.8089C58.2208 10.5696 58.4366 11.2497 58.6232 11.8491C58.8098 12.4369 58.944 12.8749 59.0256 13.1631H59.1131C59.3814 12.1372 59.673 11.0365 59.9879 9.86077C60.3029 8.68508 60.5595 7.53245 60.7578 6.40287C60.9211 6.29913 61.1194 6.24726 61.3527 6.24726C61.551 6.24726 61.7084 6.29337 61.8251 6.38558C61.9417 6.47779 62.0001 6.62187 62.0001 6.81782C62.0001 6.94461 61.9592 7.18666 61.8776 7.54398C61.8076 7.90129 61.7084 8.322 61.5801 8.80611C61.4518 9.29021 61.306 9.8089 61.1427 10.3622C60.9911 10.9039 60.8336 11.4341 60.6703 11.9528C60.507 12.46 60.3495 12.921 60.1979 13.336C60.0579 13.7509 59.9354 14.0736 59.8305 14.3042C59.7721 14.3503 59.673 14.3906 59.533 14.4252C59.4047 14.4713 59.2531 14.4943 59.0781 14.4943C58.5999 14.4943 58.3199 14.3849 58.2383 14.1658C58.075 13.7509 57.8883 13.238 57.6784 12.6271C57.4684 12.0047 57.2526 11.3361 57.031 10.6215L56.3661 8.44303Z" fill="black" fill-opacity="0.4"/>
</g>
<path id="Snow" d="M8.38659 0C8.67144 0 8.90235 0.22839 8.90235 0.510123V3.85459L10.7123 2.06446C10.9137 1.86525 11.2403 1.86525 11.4417 2.06446C11.6431 2.26368 11.6431 2.58667 11.4417 2.78589L8.90235 5.29744V8.6155L11.8122 6.9539L12.7404 3.52751C12.8141 3.25538 13.0969 3.09388 13.3721 3.1668C13.6472 3.23972 13.8105 3.51944 13.7368 3.79157L13.0755 6.23247L16.0011 4.56187C16.2478 4.421 16.5632 4.5046 16.7056 4.74859C16.8481 4.99258 16.7635 5.30456 16.5169 5.44543L13.5884 7.11766L16.0608 7.7729C16.336 7.84581 16.4993 8.12553 16.4255 8.39767C16.3518 8.6698 16.069 8.8313 15.7938 8.75838L12.3251 7.83909L9.41977 9.49812L12.3296 11.1597L15.7938 10.2416C16.069 10.1687 16.3518 10.3302 16.4255 10.6023C16.4993 10.8745 16.336 11.1542 16.0608 11.2271L13.5929 11.8811L16.5185 13.5517C16.7652 13.6926 16.8497 14.0046 16.7073 14.2486C16.5649 14.4926 16.2494 14.5762 16.0027 14.4353L13.0743 12.7631L13.7368 15.2084C13.8105 15.4806 13.6472 15.7603 13.3721 15.8332C13.0969 15.9061 12.8141 15.7446 12.7404 15.4725L11.811 12.0416L8.90235 10.3807V13.7109L11.4417 16.2225C11.6431 16.4217 11.6431 16.7447 11.4417 16.9439C11.2403 17.1431 10.9137 17.1431 10.7123 16.9439L8.90235 15.1538V18.4899C8.90235 18.7716 8.67144 19 8.38659 19C8.10174 19 7.87082 18.7716 7.87082 18.4899V15.157L6.0642 16.9439C5.86278 17.1431 5.53622 17.1431 5.3348 16.9439C5.13338 16.7447 5.13338 16.4217 5.3348 16.2225L7.87082 13.7142V10.3826L4.9582 12.0458L4.02874 15.4767C3.95501 15.7488 3.6722 15.9103 3.39706 15.8374C3.12192 15.7645 2.95863 15.4847 3.03236 15.2126L3.69484 12.7673L0.773733 14.4353C0.527046 14.5762 0.21161 14.4926 0.0691856 14.2486C-0.0732389 14.0046 0.0112816 13.6926 0.257969 13.5517L3.17622 11.8853L0.708319 11.2313C0.433176 11.1584 0.269894 10.8786 0.343619 10.6065C0.417343 10.3344 0.700156 10.1729 0.975299 10.2458L4.43958 11.1639L7.35671 9.49812L4.44408 7.8349L0.975296 8.7542C0.700153 8.82711 0.41734 8.66562 0.343616 8.39348C0.269892 8.12135 0.433174 7.84163 0.708317 7.76871L3.18072 7.11348L0.259616 5.44543C0.0129288 5.30456 -0.0715916 4.99257 0.0708329 4.74859C0.213257 4.5046 0.528694 4.421 0.775381 4.56187L3.69363 6.22829L3.03236 3.78739C2.95863 3.51525 3.12191 3.23554 3.39706 3.16262C3.6722 3.0897 3.95501 3.2512 4.02874 3.52333L4.95699 6.94971L7.87082 8.61362V5.29418L5.3348 2.78589C5.13338 2.58667 5.13338 2.26368 5.3348 2.06446C5.53622 1.86525 5.86278 1.86525 6.0642 2.06446L7.87082 3.85133V0.510123C7.87082 0.22839 8.10174 0 8.38659 0Z" fill="black" fill-opacity="0.4"/>
</g>
</svg>
