<svg width="20" height="20" viewBox="0 0 20 20" fill="none" xmlns="http://www.w3.org/2000/svg">
<g id="Chats">
<path id="Vector" d="M6.25 11.25V14.375C6.25 14.5408 6.31584 14.6997 6.43307 14.8169C6.55025 14.9342 6.70925 15 6.875 15H14.4062L17.5 17.5V7.5C17.5 7.33423 17.4342 7.17527 17.3169 7.05807C17.1997 6.94084 17.0407 6.875 16.875 6.875H13.75V10.625C13.75 10.7908 13.6842 10.9497 13.5669 11.0669C13.4497 11.1842 13.2907 11.25 13.125 11.25H6.25Z" fill="black" fill-opacity="0.1"/>
<path id="Vector_2" fill-rule="evenodd" clip-rule="evenodd" d="M13.125 11.875H5.81471L2.89283 14.2361C2.62435 14.4531 2.23083 14.4113 2.01388 14.1428C1.92402 14.0316 1.875 13.893 1.875 13.75V3.75C1.875 3.75 1.875 3.23223 2.24112 2.86612C2.24112 2.86612 2.60723 2.5 3.125 2.5H13.125C13.125 2.5 13.6428 2.5 14.0089 2.86612C14.0089 2.86612 14.375 3.23223 14.375 3.75V10.625C14.375 10.625 14.375 11.1428 14.0089 11.5089C14.0089 11.5089 13.6428 11.875 13.125 11.875ZM13.125 10.625V3.75H3.125V12.4414L5.20092 10.7639C5.31213 10.674 5.45078 10.625 5.59375 10.625H13.125Z" fill="#1C1C1C"/>
<path id="Vector_3" d="M16.875 6.25H13.75C13.4048 6.25 13.125 6.52982 13.125 6.875C13.125 7.22018 13.4048 7.5 13.75 7.5H16.875V16.1914L14.7991 14.5139C14.6879 14.424 14.5492 14.375 14.4062 14.375H6.875V11.25C6.875 10.9048 6.59518 10.625 6.25 10.625C5.90482 10.625 5.625 10.9048 5.625 11.25V14.375C5.625 14.8928 5.99112 15.2589 5.99112 15.2589C6.35723 15.625 6.875 15.625 6.875 15.625H14.1853L17.1072 17.9861C17.2184 18.076 17.357 18.125 17.5 18.125C17.8452 18.125 18.125 17.8452 18.125 17.5V7.5C18.125 6.98223 17.7589 6.61612 17.7589 6.61612C17.3928 6.25 16.875 6.25 16.875 6.25Z" fill="#1C1C1C"/>
</g>
</svg>
