<svg width="16" height="16" viewBox="0 0 16 16" fill="none" xmlns="http://www.w3.org/2000/svg">
<g id="ArrowFall">
<path id="Vector 647 (Stroke)" fill-rule="evenodd" clip-rule="evenodd" d="M14.3463 3.63931C14.5455 3.83054 14.5519 4.14706 14.3607 4.34627L11.0007 7.84627C10.9064 7.94448 10.7761 8 10.64 8C10.5039 8 10.3736 7.94448 10.2793 7.84627L8.24 5.72199L5.82335 8.23933L7.54513 9.89223L2 11.5L3.38019 5.8939L5.10197 7.5468L7.87931 4.65373C7.97359 4.55552 8.10385 4.5 8.24 4.5C8.37615 4.5 8.50641 4.55552 8.60069 4.65373L10.64 6.77801L13.6393 3.65373C13.8305 3.45453 14.1471 3.44807 14.3463 3.63931Z" fill="#1C1C1C"/>
</g>
</svg>
