<svg width="662" height="320" viewBox="0 0 662 320" fill="none" xmlns="http://www.w3.org/2000/svg">
<rect width="662" height="320" rx="16" fill="#F7F9FB"/>
<path d="M24.5568 30.3643V28.8182H32.6804V30.3643H29.5334V39H27.7038V30.3643H24.5568ZM36.3904 39.1491C35.6447 39.1491 34.9984 38.9851 34.4515 38.657C33.9047 38.3288 33.4804 37.8698 33.1788 37.2798C32.8805 36.6899 32.7314 36.0005 32.7314 35.2116C32.7314 34.4228 32.8805 33.7318 33.1788 33.1385C33.4804 32.5452 33.9047 32.0845 34.4515 31.7564C34.9984 31.4283 35.6447 31.2642 36.3904 31.2642C37.1362 31.2642 37.7825 31.4283 38.3294 31.7564C38.8762 32.0845 39.2988 32.5452 39.5971 33.1385C39.8987 33.7318 40.0495 34.4228 40.0495 35.2116C40.0495 36.0005 39.8987 36.6899 39.5971 37.2798C39.2988 37.8698 38.8762 38.3288 38.3294 38.657C37.7825 38.9851 37.1362 39.1491 36.3904 39.1491ZM36.4004 37.7074C36.8047 37.7074 37.1428 37.5964 37.4146 37.3743C37.6864 37.1489 37.8886 36.8473 38.0211 36.4695C38.157 36.0916 38.225 35.6707 38.225 35.2067C38.225 34.7393 38.157 34.3168 38.0211 33.9389C37.8886 33.5578 37.6864 33.2545 37.4146 33.0291C37.1428 32.8037 36.8047 32.6911 36.4004 32.6911C35.9861 32.6911 35.6414 32.8037 35.3663 33.0291C35.0945 33.2545 34.8907 33.5578 34.7548 33.9389C34.6222 34.3168 34.5559 34.7393 34.5559 35.2067C34.5559 35.6707 34.6222 36.0916 34.7548 36.4695C34.8907 36.8473 35.0945 37.1489 35.3663 37.3743C35.6414 37.5964 35.9861 37.7074 36.4004 37.7074ZM45.3903 31.3636V32.7557H41.0004V31.3636H45.3903ZM42.0842 29.5341H43.8839V36.7031C43.8839 36.9451 43.9203 37.1307 43.9933 37.2599C44.0695 37.3859 44.1689 37.4721 44.2915 37.5185C44.4142 37.5649 44.5501 37.5881 44.6992 37.5881C44.8119 37.5881 44.9147 37.5798 45.0075 37.5632C45.1036 37.5466 45.1765 37.5317 45.2262 37.5185L45.5295 38.9254C45.4334 38.9586 45.2958 38.995 45.1168 39.0348C44.9412 39.0746 44.7257 39.0978 44.4705 39.1044C44.0198 39.1177 43.6138 39.0497 43.2525 38.9006C42.8912 38.7481 42.6045 38.5128 42.3924 38.1946C42.1836 37.8764 42.0808 37.4787 42.0842 37.0014V29.5341ZM49.0929 39.1541C48.609 39.1541 48.1731 39.0679 47.7853 38.8956C47.4009 38.7199 47.0959 38.4614 46.8706 38.12C46.6485 37.7786 46.5375 37.3577 46.5375 36.8572C46.5375 36.4264 46.617 36.0701 46.7761 35.7884C46.9352 35.5066 47.1523 35.2812 47.4274 35.1122C47.7025 34.9432 48.0124 34.8156 48.3571 34.7294C48.7051 34.6399 49.0647 34.5753 49.4359 34.5355C49.8833 34.4891 50.2463 34.4477 50.5247 34.4112C50.8031 34.3714 51.0053 34.3118 51.1312 34.2322C51.2605 34.1494 51.3251 34.0218 51.3251 33.8494V33.8196C51.3251 33.4451 51.2141 33.1551 50.992 32.9496C50.7699 32.7441 50.4501 32.6413 50.0325 32.6413C49.5917 32.6413 49.242 32.7375 48.9835 32.9297C48.7283 33.1219 48.5559 33.349 48.4664 33.6108L46.786 33.3722C46.9186 32.9081 47.1374 32.5204 47.4423 32.2088C47.7472 31.8939 48.1201 31.6586 48.5609 31.5028C49.0017 31.3438 49.4889 31.2642 50.0225 31.2642C50.3904 31.2642 50.7567 31.3073 51.1213 31.3935C51.4859 31.4796 51.819 31.6222 52.1206 31.821C52.4222 32.0166 52.6641 32.2834 52.8464 32.6214C53.032 32.9595 53.1248 33.3821 53.1248 33.8892V39H51.3947V37.951H51.335C51.2257 38.1631 51.0716 38.362 50.8727 38.5476C50.6771 38.7299 50.4302 38.8774 50.1319 38.9901C49.8369 39.0994 49.4906 39.1541 49.0929 39.1541ZM49.5602 37.8317C49.9215 37.8317 50.2347 37.7604 50.4998 37.6179C50.765 37.4721 50.9688 37.2798 51.1113 37.0412C51.2572 36.8026 51.3301 36.5424 51.3301 36.2607V35.3608C51.2737 35.4072 51.1776 35.4503 51.0417 35.4901C50.9092 35.5298 50.76 35.5646 50.5943 35.5945C50.4286 35.6243 50.2645 35.6508 50.1021 35.674C49.9397 35.6972 49.7988 35.7171 49.6795 35.7337C49.411 35.7701 49.1708 35.8298 48.9586 35.9126C48.7465 35.9955 48.5791 36.1115 48.4565 36.2607C48.3339 36.4065 48.2725 36.5954 48.2725 36.8274C48.2725 37.1589 48.3935 37.4091 48.6355 37.5781C48.8774 37.7472 49.1857 37.8317 49.5602 37.8317ZM56.7342 28.8182V39H54.9345V28.8182H56.7342ZM68.5554 28.8182H70.3999V35.4702C70.3999 36.1993 70.2275 36.8407 69.8828 37.3942C69.5414 37.9477 69.0608 38.3802 68.4411 38.6918C67.8213 39 67.0971 39.1541 66.2685 39.1541C65.4366 39.1541 64.7107 39 64.0909 38.6918C63.4711 38.3802 62.9905 37.9477 62.6491 37.3942C62.3078 36.8407 62.1371 36.1993 62.1371 35.4702V28.8182H63.9815V35.3161C63.9815 35.7403 64.0743 36.1181 64.2599 36.4496C64.4489 36.781 64.714 37.0412 65.0554 37.2301C65.3968 37.4157 65.8011 37.5085 66.2685 37.5085C66.7358 37.5085 67.1402 37.4157 67.4815 37.2301C67.8262 37.0412 68.0914 36.781 68.277 36.4496C68.4626 36.1181 68.5554 35.7403 68.5554 35.3161V28.8182ZM78.3606 33.3821L76.72 33.5611C76.6736 33.3954 76.5924 33.2396 76.4764 33.0938C76.3637 32.9479 76.2112 32.8303 76.019 32.7408C75.8268 32.6513 75.5914 32.6065 75.313 32.6065C74.9385 32.6065 74.6236 32.6877 74.3684 32.8501C74.1165 33.0125 73.9922 33.223 73.9956 33.4815C73.9922 33.7036 74.0734 33.8842 74.2392 34.0234C74.4082 34.1626 74.6866 34.277 75.0744 34.3665L76.377 34.6449C77.0995 34.8007 77.6364 35.0476 77.9877 35.3857C78.3424 35.7237 78.5214 36.1662 78.5247 36.7131C78.5214 37.1937 78.3805 37.6179 78.1021 37.9858C77.827 38.3504 77.4442 38.6354 76.9537 38.8409C76.4631 39.0464 75.8997 39.1491 75.2633 39.1491C74.3287 39.1491 73.5763 38.9536 73.0062 38.5625C72.4361 38.1681 72.0964 37.6196 71.987 36.9169L73.742 36.7479C73.8216 37.0926 73.9906 37.3527 74.2491 37.5284C74.5076 37.7041 74.844 37.7919 75.2583 37.7919C75.6859 37.7919 76.0289 37.7041 76.2875 37.5284C76.5493 37.3527 76.6802 37.1357 76.6802 36.8771C76.6802 36.6584 76.5957 36.4777 76.4267 36.3352C76.2609 36.1927 76.0024 36.0833 75.6511 36.0071L74.3485 35.7337C73.6161 35.5812 73.0742 35.3243 72.7228 34.9631C72.3715 34.5985 72.1975 34.1378 72.2008 33.581C72.1975 33.1103 72.3251 32.7027 72.5836 32.358C72.8455 32.0099 73.2084 31.7415 73.6724 31.5526C74.1397 31.3603 74.6783 31.2642 75.2882 31.2642C76.1831 31.2642 76.8874 31.4548 77.4011 31.8359C77.9181 32.2171 78.238 32.7325 78.3606 33.3821ZM83.3894 39.1491C82.6238 39.1491 81.9625 38.9901 81.4057 38.6719C80.8522 38.3504 80.4263 37.8963 80.128 37.3097C79.8297 36.7197 79.6806 36.0253 79.6806 35.2266C79.6806 34.4411 79.8297 33.7517 80.128 33.1584C80.4296 32.5618 80.8506 32.0978 81.3908 31.7663C81.931 31.4316 82.5658 31.2642 83.2949 31.2642C83.7656 31.2642 84.2097 31.3404 84.6273 31.4929C85.0482 31.642 85.4194 31.8741 85.7409 32.1889C86.0658 32.5038 86.321 32.9048 86.5066 33.392C86.6922 33.8759 86.785 34.4527 86.785 35.1222V35.674H80.5257V34.4609H85.0598C85.0565 34.1162 84.9819 33.8097 84.8361 33.5412C84.6903 33.2694 84.4864 33.0556 84.2246 32.8999C83.9661 32.7441 83.6645 32.6662 83.3198 32.6662C82.9519 32.6662 82.6287 32.7557 82.3503 32.9347C82.0719 33.1103 81.8548 33.3423 81.699 33.6307C81.5466 33.9157 81.4687 34.2289 81.4654 34.5703V35.6293C81.4654 36.0734 81.5466 36.4545 81.709 36.7727C81.8714 37.0876 82.0984 37.3295 82.3901 37.4986C82.6818 37.6643 83.0231 37.7472 83.4142 37.7472C83.6761 37.7472 83.9131 37.7107 84.1252 37.6378C84.3373 37.5616 84.5212 37.4505 84.677 37.3047C84.8328 37.1589 84.9505 36.9782 85.03 36.7628L86.7104 36.9517C86.6043 37.3958 86.4022 37.7836 86.1039 38.1151C85.8089 38.4432 85.431 38.6984 84.9703 38.8807C84.5096 39.0597 83.9827 39.1491 83.3894 39.1491ZM88.3075 39V31.3636H90.0526V32.6364H90.1321C90.2713 32.1955 90.5099 31.8558 90.848 31.6172C91.1894 31.3752 91.5788 31.2543 92.0163 31.2543C92.1158 31.2543 92.2268 31.2592 92.3494 31.2692C92.4754 31.2758 92.5798 31.2874 92.6626 31.304V32.9595C92.5864 32.933 92.4654 32.9098 92.2997 32.8899C92.1373 32.8667 91.9799 32.8551 91.8274 32.8551C91.4993 32.8551 91.2043 32.9264 90.9425 33.0689C90.6839 33.2081 90.4801 33.402 90.331 33.6506C90.1818 33.8991 90.1072 34.1858 90.1072 34.5107V39H88.3075ZM99.8938 33.3821L98.2532 33.5611C98.2068 33.3954 98.1256 33.2396 98.0096 33.0938C97.8969 32.9479 97.7444 32.8303 97.5522 32.7408C97.36 32.6513 97.1246 32.6065 96.8462 32.6065C96.4717 32.6065 96.1568 32.6877 95.9016 32.8501C95.6497 33.0125 95.5254 33.223 95.5288 33.4815C95.5254 33.7036 95.6067 33.8842 95.7724 34.0234C95.9414 34.1626 96.2198 34.277 96.6076 34.3665L97.9102 34.6449C98.6327 34.8007 99.1696 35.0476 99.521 35.3857C99.8756 35.7237 100.055 36.1662 100.058 36.7131C100.055 37.1937 99.9137 37.6179 99.6353 37.9858C99.3602 38.3504 98.9774 38.6354 98.4869 38.8409C97.9963 39.0464 97.4329 39.1491 96.7965 39.1491C95.8619 39.1491 95.1095 38.9536 94.5394 38.5625C93.9693 38.1681 93.6296 37.6196 93.5202 36.9169L95.2752 36.7479C95.3548 37.0926 95.5238 37.3527 95.7823 37.5284C96.0408 37.7041 96.3772 37.7919 96.7915 37.7919C97.2191 37.7919 97.5621 37.7041 97.8207 37.5284C98.0825 37.3527 98.2134 37.1357 98.2134 36.8771C98.2134 36.6584 98.1289 36.4777 97.9599 36.3352C97.7942 36.1927 97.5356 36.0833 97.1843 36.0071L95.8817 35.7337C95.1493 35.5812 94.6074 35.3243 94.256 34.9631C93.9047 34.5985 93.7307 34.1378 93.734 33.581C93.7307 33.1103 93.8583 32.7027 94.1168 32.358C94.3787 32.0099 94.7416 31.7415 95.2056 31.5526C95.6729 31.3603 96.2115 31.2642 96.8214 31.2642C97.7163 31.2642 98.4206 31.4548 98.9343 31.8359C99.4513 32.2171 99.7712 32.7325 99.8938 33.3821Z" fill="#1C1C1C"/>
<path d="M117.676 29.9119V28.8182H125.312V29.9119H122.111V39H120.878V29.9119H117.676ZM129.051 39.1591C128.362 39.1591 127.757 38.995 127.237 38.6669C126.719 38.3388 126.315 37.8797 126.023 37.2898C125.735 36.6998 125.591 36.0104 125.591 35.2216C125.591 34.4261 125.735 33.7318 126.023 33.1385C126.315 32.5452 126.719 32.0845 127.237 31.7564C127.757 31.4283 128.362 31.2642 129.051 31.2642C129.741 31.2642 130.344 31.4283 130.861 31.7564C131.381 32.0845 131.786 32.5452 132.074 33.1385C132.366 33.7318 132.511 34.4261 132.511 35.2216C132.511 36.0104 132.366 36.6998 132.074 37.2898C131.786 37.8797 131.381 38.3388 130.861 38.6669C130.344 38.995 129.741 39.1591 129.051 39.1591ZM129.051 38.1051C129.575 38.1051 130.006 37.9709 130.344 37.7024C130.682 37.4339 130.932 37.081 131.094 36.6435C131.257 36.206 131.338 35.732 131.338 35.2216C131.338 34.7112 131.257 34.2356 131.094 33.7947C130.932 33.3539 130.682 32.9976 130.344 32.7259C130.006 32.4541 129.575 32.3182 129.051 32.3182C128.527 32.3182 128.097 32.4541 127.759 32.7259C127.42 32.9976 127.17 33.3539 127.008 33.7947C126.845 34.2356 126.764 34.7112 126.764 35.2216C126.764 35.732 126.845 36.206 127.008 36.6435C127.17 37.081 127.42 37.4339 127.759 37.7024C128.097 37.9709 128.527 38.1051 129.051 38.1051ZM137.623 31.3636V32.358H133.666V31.3636H137.623ZM134.819 29.5341H135.993V36.8125C135.993 37.1439 136.041 37.3925 136.137 37.5582C136.236 37.7206 136.362 37.83 136.515 37.8864C136.671 37.9394 136.835 37.9659 137.007 37.9659C137.136 37.9659 137.242 37.9593 137.325 37.946C137.408 37.9295 137.474 37.9162 137.524 37.9062L137.763 38.9602C137.683 38.9901 137.572 39.0199 137.43 39.0497C137.287 39.0829 137.106 39.0994 136.888 39.0994C136.556 39.0994 136.231 39.0282 135.913 38.8857C135.598 38.7431 135.336 38.526 135.128 38.2344C134.922 37.9427 134.819 37.5748 134.819 37.1307V29.5341ZM141.635 39.179C141.152 39.179 140.712 39.0878 140.318 38.9055C139.924 38.7199 139.61 38.4531 139.378 38.1051C139.146 37.7538 139.03 37.3295 139.03 36.8324C139.03 36.3949 139.117 36.0402 139.289 35.7685C139.461 35.4934 139.692 35.2779 139.98 35.1222C140.268 34.9664 140.586 34.8504 140.934 34.7741C141.286 34.6946 141.639 34.6316 141.993 34.5852C142.457 34.5256 142.834 34.4808 143.122 34.451C143.414 34.4179 143.626 34.3632 143.758 34.2869C143.894 34.2107 143.962 34.0781 143.962 33.8892V33.8494C143.962 33.3589 143.828 32.9777 143.559 32.706C143.294 32.4342 142.892 32.2983 142.351 32.2983C141.791 32.2983 141.352 32.4209 141.034 32.6662C140.716 32.9115 140.492 33.1733 140.363 33.4517L139.249 33.054C139.448 32.59 139.713 32.2287 140.045 31.9702C140.379 31.7083 140.744 31.526 141.138 31.4233C141.536 31.3172 141.927 31.2642 142.312 31.2642C142.557 31.2642 142.839 31.294 143.157 31.3537C143.478 31.41 143.788 31.5277 144.086 31.7067C144.388 31.8857 144.638 32.1558 144.837 32.517C145.036 32.8783 145.135 33.3622 145.135 33.9688V39H143.962V37.9659H143.903C143.823 38.1316 143.69 38.3089 143.505 38.4979C143.319 38.6868 143.072 38.8475 142.764 38.9801C142.456 39.1127 142.08 39.179 141.635 39.179ZM141.814 38.125C142.278 38.125 142.67 38.0339 142.988 37.8516C143.309 37.6693 143.551 37.4339 143.714 37.1456C143.879 36.8572 143.962 36.554 143.962 36.2358V35.1619C143.912 35.2216 143.803 35.2763 143.634 35.326C143.468 35.3724 143.276 35.4138 143.057 35.4503C142.842 35.4834 142.631 35.5133 142.426 35.5398C142.224 35.563 142.06 35.5829 141.934 35.5994C141.629 35.6392 141.344 35.7038 141.079 35.7933C140.817 35.8795 140.605 36.0104 140.442 36.1861C140.283 36.3584 140.204 36.5937 140.204 36.892C140.204 37.2997 140.354 37.608 140.656 37.8168C140.961 38.0223 141.347 38.125 141.814 38.125ZM148.45 28.8182V39H147.277V28.8182H148.45ZM154.696 39V28.8182H158.136C158.935 28.8182 159.588 28.9624 160.095 29.2507C160.605 29.5357 160.983 29.9219 161.229 30.4091C161.474 30.8963 161.596 31.4399 161.596 32.0398C161.596 32.6397 161.474 33.1849 161.229 33.6754C160.987 34.166 160.612 34.5571 160.105 34.8487C159.598 35.1371 158.948 35.2812 158.156 35.2812H155.69V34.1875H158.116C158.663 34.1875 159.102 34.093 159.434 33.9041C159.765 33.7152 160.006 33.46 160.155 33.1385C160.307 32.8137 160.383 32.4474 160.383 32.0398C160.383 31.6321 160.307 31.2675 160.155 30.946C160.006 30.6245 159.764 30.3726 159.429 30.1903C159.094 30.0047 158.65 29.9119 158.096 29.9119H155.929V39H154.696ZM163.423 39V31.3636H164.557V32.517H164.637C164.776 32.1392 165.028 31.8326 165.392 31.5973C165.757 31.362 166.168 31.2443 166.625 31.2443C166.711 31.2443 166.819 31.246 166.948 31.2493C167.078 31.2526 167.175 31.2576 167.242 31.2642V32.4574C167.202 32.4474 167.111 32.4325 166.968 32.4126C166.829 32.3894 166.682 32.3778 166.526 32.3778C166.155 32.3778 165.823 32.4557 165.531 32.6115C165.243 32.764 165.014 32.9761 164.845 33.2479C164.68 33.5163 164.597 33.8229 164.597 34.1676V39H163.423ZM171.502 39.1591C170.813 39.1591 170.208 38.995 169.688 38.6669C169.171 38.3388 168.766 37.8797 168.475 37.2898C168.186 36.6998 168.042 36.0104 168.042 35.2216C168.042 34.4261 168.186 33.7318 168.475 33.1385C168.766 32.5452 169.171 32.0845 169.688 31.7564C170.208 31.4283 170.813 31.2642 171.502 31.2642C172.192 31.2642 172.795 31.4283 173.312 31.7564C173.832 32.0845 174.237 32.5452 174.525 33.1385C174.817 33.7318 174.963 34.4261 174.963 35.2216C174.963 36.0104 174.817 36.6998 174.525 37.2898C174.237 37.8797 173.832 38.3388 173.312 38.6669C172.795 38.995 172.192 39.1591 171.502 39.1591ZM171.502 38.1051C172.026 38.1051 172.457 37.9709 172.795 37.7024C173.133 37.4339 173.383 37.081 173.546 36.6435C173.708 36.206 173.789 35.732 173.789 35.2216C173.789 34.7112 173.708 34.2356 173.546 33.7947C173.383 33.3539 173.133 32.9976 172.795 32.7259C172.457 32.4541 172.026 32.3182 171.502 32.3182C170.979 32.3182 170.548 32.4541 170.21 32.7259C169.872 32.9976 169.621 33.3539 169.459 33.7947C169.297 34.2356 169.215 34.7112 169.215 35.2216C169.215 35.732 169.297 36.206 169.459 36.6435C169.621 37.081 169.872 37.4339 170.21 37.7024C170.548 37.9709 170.979 38.1051 171.502 38.1051ZM176.754 31.3636H177.927V39.5568C177.927 40.0275 177.846 40.4351 177.683 40.7798C177.524 41.1245 177.282 41.3913 176.957 41.5803C176.636 41.7692 176.23 41.8636 175.739 41.8636C175.7 41.8636 175.66 41.8636 175.62 41.8636C175.58 41.8636 175.54 41.8636 175.501 41.8636V40.7699C175.54 40.7699 175.577 40.7699 175.61 40.7699C175.643 40.7699 175.68 40.7699 175.719 40.7699C176.077 40.7699 176.339 40.6638 176.505 40.4517C176.671 40.2429 176.754 39.9446 176.754 39.5568V31.3636ZM177.33 30.0909C177.102 30.0909 176.904 30.013 176.739 29.8572C176.576 29.7015 176.495 29.5142 176.495 29.2955C176.495 29.0767 176.576 28.8894 176.739 28.7337C176.904 28.5779 177.102 28.5 177.33 28.5C177.559 28.5 177.754 28.5779 177.917 28.7337C178.083 28.8894 178.165 29.0767 178.165 29.2955C178.165 29.5142 178.083 29.7015 177.917 29.8572C177.754 30.013 177.559 30.0909 177.33 30.0909ZM183.278 39.1591C182.542 39.1591 181.907 38.9967 181.373 38.6719C180.843 38.3438 180.434 37.8864 180.145 37.2997C179.86 36.7098 179.718 36.0237 179.718 35.2415C179.718 34.4593 179.86 33.7699 180.145 33.1733C180.434 32.5734 180.835 32.1061 181.349 31.7713C181.866 31.4332 182.469 31.2642 183.158 31.2642C183.556 31.2642 183.949 31.3305 184.336 31.4631C184.724 31.5956 185.077 31.8111 185.395 32.1094C185.714 32.4044 185.967 32.7955 186.156 33.2827C186.345 33.7699 186.439 34.3698 186.439 35.0824V35.5795H180.553V34.5653H185.246C185.246 34.1345 185.16 33.75 184.988 33.4119C184.819 33.0739 184.577 32.8071 184.262 32.6115C183.95 32.416 183.582 32.3182 183.158 32.3182C182.691 32.3182 182.287 32.4342 181.945 32.6662C181.607 32.8949 181.347 33.1932 181.165 33.5611C180.982 33.929 180.891 34.3234 180.891 34.7443V35.4205C180.891 35.9972 180.991 36.486 181.189 36.8871C181.392 37.2848 181.672 37.5881 182.03 37.7969C182.388 38.0024 182.804 38.1051 183.278 38.1051C183.586 38.1051 183.864 38.062 184.113 37.9759C184.365 37.8864 184.582 37.7538 184.764 37.5781C184.946 37.3991 185.087 37.1771 185.187 36.9119L186.32 37.2301C186.201 37.6146 186 37.9527 185.719 38.2443C185.437 38.5327 185.089 38.758 184.675 38.9205C184.26 39.0795 183.795 39.1591 183.278 39.1591ZM191.327 39.1591C190.611 39.1591 189.994 38.9901 189.477 38.652C188.96 38.3139 188.562 37.8482 188.284 37.255C188.006 36.6617 187.866 35.9839 187.866 35.2216C187.866 34.446 188.009 33.7616 188.294 33.1683C188.582 32.5717 188.983 32.1061 189.497 31.7713C190.014 31.4332 190.617 31.2642 191.307 31.2642C191.844 31.2642 192.327 31.3636 192.758 31.5625C193.189 31.7614 193.542 32.0398 193.817 32.3977C194.092 32.7557 194.263 33.1733 194.329 33.6506H193.156C193.067 33.3026 192.868 32.9943 192.559 32.7259C192.255 32.4541 191.844 32.3182 191.327 32.3182C190.869 32.3182 190.468 32.4375 190.123 32.6761C189.782 32.9115 189.515 33.2446 189.323 33.6754C189.134 34.103 189.04 34.6051 189.04 35.1818C189.04 35.7718 189.132 36.2855 189.318 36.723C189.507 37.1605 189.772 37.5002 190.113 37.7422C190.458 37.9841 190.863 38.1051 191.327 38.1051C191.631 38.1051 191.908 38.0521 192.157 37.946C192.405 37.84 192.616 37.6875 192.788 37.4886C192.961 37.2898 193.083 37.0511 193.156 36.7727H194.329C194.263 37.2235 194.099 37.6295 193.837 37.9908C193.579 38.3487 193.236 38.6338 192.808 38.8459C192.384 39.0547 191.89 39.1591 191.327 39.1591ZM199.366 31.3636V32.358H195.408V31.3636H199.366ZM196.562 29.5341H197.735V36.8125C197.735 37.1439 197.783 37.3925 197.879 37.5582C197.979 37.7206 198.104 37.83 198.257 37.8864C198.413 37.9394 198.577 37.9659 198.749 37.9659C198.878 37.9659 198.984 37.9593 199.067 37.946C199.15 37.9295 199.216 37.9162 199.266 37.9062L199.505 38.9602C199.425 38.9901 199.314 39.0199 199.172 39.0497C199.029 39.0829 198.849 39.0994 198.63 39.0994C198.298 39.0994 197.974 39.0282 197.655 38.8857C197.34 38.7431 197.079 38.526 196.87 38.2344C196.664 37.9427 196.562 37.5748 196.562 37.1307V29.5341ZM206.403 33.0739L205.349 33.3722C205.283 33.1965 205.185 33.0258 205.056 32.8601C204.93 32.6911 204.757 32.5518 204.539 32.4425C204.32 32.3331 204.04 32.2784 203.698 32.2784C203.231 32.2784 202.842 32.3861 202.53 32.6016C202.222 32.8137 202.068 33.0838 202.068 33.4119C202.068 33.7036 202.174 33.9339 202.386 34.103C202.598 34.272 202.929 34.4129 203.38 34.5256L204.514 34.804C205.196 34.9697 205.705 35.2232 206.04 35.5646C206.375 35.9027 206.542 36.3385 206.542 36.8722C206.542 37.3097 206.416 37.7008 206.164 38.0455C205.916 38.3902 205.568 38.6619 205.12 38.8608C204.673 39.0597 204.152 39.1591 203.559 39.1591C202.78 39.1591 202.136 38.9901 201.625 38.652C201.115 38.3139 200.792 37.8201 200.656 37.1705L201.769 36.892C201.875 37.303 202.076 37.6113 202.371 37.8168C202.669 38.0223 203.059 38.125 203.539 38.125C204.086 38.125 204.52 38.009 204.842 37.777C205.167 37.5417 205.329 37.2599 205.329 36.9318C205.329 36.6667 205.236 36.4446 205.051 36.2656C204.865 36.0833 204.58 35.9474 204.195 35.858L202.923 35.5597C202.223 35.3939 201.71 35.1371 201.382 34.7891C201.057 34.4377 200.894 33.9986 200.894 33.4716C200.894 33.0407 201.015 32.6596 201.257 32.3281C201.503 31.9967 201.836 31.7365 202.257 31.5476C202.681 31.3587 203.161 31.2642 203.698 31.2642C204.454 31.2642 205.047 31.4299 205.478 31.7614C205.912 32.0928 206.221 32.5303 206.403 33.0739Z" fill="black" fill-opacity="0.4"/>
<path d="M233.824 33.9091C233.824 34.983 233.63 35.911 233.242 36.6932C232.854 37.4754 232.322 38.0786 231.646 38.5028C230.97 38.9271 230.198 39.1392 229.33 39.1392C228.461 39.1392 227.689 38.9271 227.013 38.5028C226.337 38.0786 225.805 37.4754 225.417 36.6932C225.029 35.911 224.835 34.983 224.835 33.9091C224.835 32.8352 225.029 31.9072 225.417 31.125C225.805 30.3428 226.337 29.7396 227.013 29.3153C227.689 28.8911 228.461 28.679 229.33 28.679C230.198 28.679 230.97 28.8911 231.646 29.3153C232.322 29.7396 232.854 30.3428 233.242 31.125C233.63 31.9072 233.824 32.8352 233.824 33.9091ZM232.631 33.9091C232.631 33.0275 232.483 32.2834 232.188 31.6768C231.897 31.0703 231.5 30.6113 231 30.2997C230.503 29.9882 229.946 29.8324 229.33 29.8324C228.713 29.8324 228.155 29.9882 227.654 30.2997C227.157 30.6113 226.761 31.0703 226.466 31.6768C226.174 32.2834 226.028 33.0275 226.028 33.9091C226.028 34.7907 226.174 35.5348 226.466 36.1413C226.761 36.7479 227.157 37.2069 227.654 37.5185C228.155 37.83 228.713 37.9858 229.33 37.9858C229.946 37.9858 230.503 37.83 231 37.5185C231.5 37.2069 231.897 36.7479 232.188 36.1413C232.483 35.5348 232.631 34.7907 232.631 33.9091ZM235.738 41.8636V31.3636H236.871V32.5767H237.011C237.097 32.4441 237.216 32.2751 237.369 32.0696C237.524 31.8608 237.746 31.6752 238.035 31.5128C238.326 31.3471 238.721 31.2642 239.218 31.2642C239.861 31.2642 240.428 31.425 240.918 31.7464C241.409 32.0679 241.792 32.5237 242.067 33.1136C242.342 33.7036 242.479 34.3996 242.479 35.2017C242.479 36.0104 242.342 36.7114 242.067 37.3047C241.792 37.8946 241.411 38.352 240.923 38.6768C240.436 38.9983 239.874 39.1591 239.238 39.1591C238.747 39.1591 238.355 39.0779 238.06 38.9155C237.765 38.7498 237.538 38.5625 237.379 38.3537C237.219 38.1416 237.097 37.9659 237.011 37.8267H236.911V41.8636H235.738ZM236.891 35.1818C236.891 35.7585 236.976 36.2673 237.145 36.7081C237.314 37.1456 237.561 37.4886 237.886 37.7372C238.21 37.9825 238.608 38.1051 239.079 38.1051C239.569 38.1051 239.979 37.9759 240.307 37.7173C240.638 37.4555 240.887 37.1042 241.053 36.6634C241.222 36.2192 241.306 35.7254 241.306 35.1818C241.306 34.6449 241.223 34.161 241.058 33.7301C240.895 33.2959 240.648 32.9529 240.317 32.701C239.989 32.4458 239.576 32.3182 239.079 32.3182C238.602 32.3182 238.201 32.4392 237.876 32.6811C237.551 32.9197 237.306 33.2545 237.14 33.6854C236.974 34.1129 236.891 34.6117 236.891 35.1818ZM247.471 39.1591C246.735 39.1591 246.1 38.9967 245.567 38.6719C245.036 38.3438 244.627 37.8864 244.339 37.2997C244.054 36.7098 243.911 36.0237 243.911 35.2415C243.911 34.4593 244.054 33.7699 244.339 33.1733C244.627 32.5734 245.028 32.1061 245.542 31.7713C246.059 31.4332 246.662 31.2642 247.352 31.2642C247.749 31.2642 248.142 31.3305 248.53 31.4631C248.918 31.5956 249.271 31.8111 249.589 32.1094C249.907 32.4044 250.161 32.7955 250.349 33.2827C250.538 33.7699 250.633 34.3698 250.633 35.0824V35.5795H244.746V34.5653H249.44C249.44 34.1345 249.353 33.75 249.181 33.4119C249.012 33.0739 248.77 32.8071 248.455 32.6115C248.144 32.416 247.776 32.3182 247.352 32.3182C246.884 32.3182 246.48 32.4342 246.138 32.6662C245.8 32.8949 245.54 33.1932 245.358 33.5611C245.176 33.929 245.085 34.3234 245.085 34.7443V35.4205C245.085 35.9972 245.184 36.486 245.383 36.8871C245.585 37.2848 245.865 37.5881 246.223 37.7969C246.581 38.0024 246.997 38.1051 247.471 38.1051C247.779 38.1051 248.058 38.062 248.306 37.9759C248.558 37.8864 248.775 37.7538 248.957 37.5781C249.14 37.3991 249.281 37.1771 249.38 36.9119L250.513 37.2301C250.394 37.6146 250.194 37.9527 249.912 38.2443C249.63 38.5327 249.282 38.758 248.868 38.9205C248.454 39.0795 247.988 39.1591 247.471 39.1591ZM252.418 39V31.3636H253.551V32.517H253.631C253.77 32.1392 254.022 31.8326 254.386 31.5973C254.751 31.362 255.162 31.2443 255.619 31.2443C255.705 31.2443 255.813 31.246 255.942 31.2493C256.072 31.2526 256.17 31.2576 256.236 31.2642V32.4574C256.196 32.4474 256.105 32.4325 255.962 32.4126C255.823 32.3894 255.676 32.3778 255.52 32.3778C255.149 32.3778 254.817 32.4557 254.526 32.6115C254.237 32.764 254.009 32.9761 253.839 33.2479C253.674 33.5163 253.591 33.8229 253.591 34.1676V39H252.418ZM259.874 39.179C259.39 39.179 258.951 39.0878 258.556 38.9055C258.162 38.7199 257.849 38.4531 257.617 38.1051C257.385 37.7538 257.269 37.3295 257.269 36.8324C257.269 36.3949 257.355 36.0402 257.527 35.7685C257.7 35.4934 257.93 35.2779 258.218 35.1222C258.507 34.9664 258.825 34.8504 259.173 34.7741C259.524 34.6946 259.877 34.6316 260.232 34.5852C260.696 34.5256 261.072 34.4808 261.36 34.451C261.652 34.4179 261.864 34.3632 261.997 34.2869C262.133 34.2107 262.2 34.0781 262.2 33.8892V33.8494C262.2 33.3589 262.066 32.9777 261.798 32.706C261.533 32.4342 261.13 32.2983 260.59 32.2983C260.03 32.2983 259.59 32.4209 259.272 32.6662C258.954 32.9115 258.73 33.1733 258.601 33.4517L257.487 33.054C257.686 32.59 257.951 32.2287 258.283 31.9702C258.618 31.7083 258.982 31.526 259.377 31.4233C259.774 31.3172 260.165 31.2642 260.55 31.2642C260.795 31.2642 261.077 31.294 261.395 31.3537C261.717 31.41 262.026 31.5277 262.325 31.7067C262.626 31.8857 262.877 32.1558 263.075 32.517C263.274 32.8783 263.374 33.3622 263.374 33.9688V39H262.2V37.9659H262.141C262.061 38.1316 261.929 38.3089 261.743 38.4979C261.557 38.6868 261.311 38.8475 261.002 38.9801C260.694 39.1127 260.318 39.179 259.874 39.179ZM260.053 38.125C260.517 38.125 260.908 38.0339 261.226 37.8516C261.548 37.6693 261.789 37.4339 261.952 37.1456C262.118 36.8572 262.2 36.554 262.2 36.2358V35.1619C262.151 35.2216 262.041 35.2763 261.872 35.326C261.707 35.3724 261.514 35.4138 261.296 35.4503C261.08 35.4834 260.87 35.5133 260.664 35.5398C260.462 35.563 260.298 35.5829 260.172 35.5994C259.867 35.6392 259.582 35.7038 259.317 35.7933C259.055 35.8795 258.843 36.0104 258.681 36.1861C258.521 36.3584 258.442 36.5937 258.442 36.892C258.442 37.2997 258.593 37.608 258.894 37.8168C259.199 38.0223 259.585 38.125 260.053 38.125ZM268.836 31.3636V32.358H264.879V31.3636H268.836ZM266.032 29.5341H267.206V36.8125C267.206 37.1439 267.254 37.3925 267.35 37.5582C267.449 37.7206 267.575 37.83 267.728 37.8864C267.883 37.9394 268.047 37.9659 268.22 37.9659C268.349 37.9659 268.455 37.9593 268.538 37.946C268.621 37.9295 268.687 37.9162 268.737 37.9062L268.975 38.9602C268.896 38.9901 268.785 39.0199 268.642 39.0497C268.5 39.0829 268.319 39.0994 268.1 39.0994C267.769 39.0994 267.444 39.0282 267.126 38.8857C266.811 38.7431 266.549 38.526 266.341 38.2344C266.135 37.9427 266.032 37.5748 266.032 37.1307V29.5341ZM270.601 39V31.3636H271.775V39H270.601ZM271.198 30.0909C270.969 30.0909 270.772 30.013 270.606 29.8572C270.444 29.7015 270.363 29.5142 270.363 29.2955C270.363 29.0767 270.444 28.8894 270.606 28.7337C270.772 28.5779 270.969 28.5 271.198 28.5C271.426 28.5 271.622 28.5779 271.784 28.7337C271.95 28.8894 272.033 29.0767 272.033 29.2955C272.033 29.5142 271.95 29.7015 271.784 29.8572C271.622 30.013 271.426 30.0909 271.198 30.0909ZM275.097 34.4062V39H273.923V31.3636H275.057V32.5568H275.156C275.335 32.169 275.607 31.8575 275.972 31.6222C276.336 31.3835 276.807 31.2642 277.384 31.2642C277.901 31.2642 278.353 31.3703 278.741 31.5824C279.129 31.7912 279.43 32.1094 279.646 32.5369C279.861 32.9612 279.969 33.4981 279.969 34.1477V39H278.796V34.2273C278.796 33.6274 278.64 33.16 278.328 32.8253C278.017 32.4872 277.589 32.3182 277.046 32.3182C276.671 32.3182 276.336 32.3994 276.041 32.5618C275.75 32.7242 275.519 32.9612 275.35 33.2727C275.181 33.5843 275.097 33.9621 275.097 34.4062ZM285.195 42.0227C284.629 42.0227 284.141 41.9498 283.734 41.804C283.326 41.6615 282.986 41.4725 282.714 41.2372C282.446 41.0052 282.232 40.7566 282.073 40.4915L283.008 39.8352C283.114 39.9744 283.248 40.1335 283.411 40.3125C283.573 40.4948 283.795 40.6522 284.077 40.7848C284.362 40.9207 284.735 40.9886 285.195 40.9886C285.812 40.9886 286.321 40.8395 286.722 40.5412C287.123 40.2429 287.323 39.7756 287.323 39.1392V37.5881H287.224C287.138 37.7273 287.015 37.8996 286.856 38.1051C286.7 38.3073 286.475 38.4879 286.18 38.647C285.888 38.8028 285.494 38.8807 284.996 38.8807C284.38 38.8807 283.826 38.7348 283.336 38.4432C282.849 38.1515 282.463 37.7273 282.178 37.1705C281.896 36.6136 281.755 35.9375 281.755 35.142C281.755 34.3598 281.893 33.6787 282.168 33.0987C282.443 32.5154 282.826 32.0646 283.316 31.7464C283.807 31.425 284.373 31.2642 285.016 31.2642C285.513 31.2642 285.908 31.3471 286.2 31.5128C286.495 31.6752 286.72 31.8608 286.876 32.0696C287.035 32.2751 287.157 32.4441 287.244 32.5767H287.363V31.3636H288.496V39.2188C288.496 39.875 288.347 40.4086 288.049 40.8196C287.754 41.2339 287.356 41.5372 286.856 41.7294C286.359 41.925 285.805 42.0227 285.195 42.0227ZM285.156 37.8267C285.626 37.8267 286.024 37.719 286.349 37.5036C286.674 37.2881 286.92 36.9782 287.089 36.5739C287.259 36.1695 287.343 35.6856 287.343 35.1222C287.343 34.572 287.26 34.0864 287.094 33.6655C286.929 33.2446 286.683 32.9148 286.359 32.6761C286.034 32.4375 285.633 32.3182 285.156 32.3182C284.658 32.3182 284.244 32.4441 283.913 32.696C283.585 32.9479 283.338 33.286 283.172 33.7102C283.009 34.1345 282.928 34.6051 282.928 35.1222C282.928 35.6525 283.011 36.1214 283.177 36.5291C283.346 36.9335 283.594 37.2517 283.923 37.4837C284.254 37.7124 284.665 37.8267 285.156 37.8267ZM300.309 31.3636C300.249 30.8598 300.007 30.4688 299.583 30.1903C299.159 29.9119 298.638 29.7727 298.022 29.7727C297.571 29.7727 297.177 29.8456 296.839 29.9915C296.504 30.1373 296.242 30.3378 296.053 30.593C295.868 30.8482 295.775 31.1383 295.775 31.4631C295.775 31.7348 295.839 31.9685 295.969 32.1641C296.101 32.3563 296.27 32.517 296.476 32.6463C296.681 32.7723 296.897 32.8767 297.122 32.9595C297.348 33.0391 297.555 33.1037 297.744 33.1534L298.778 33.4318C299.043 33.5014 299.338 33.5975 299.663 33.7202C299.991 33.8428 300.304 34.0102 300.602 34.2223C300.904 34.4311 301.152 34.6996 301.348 35.0277C301.544 35.3558 301.641 35.7585 301.641 36.2358C301.641 36.786 301.497 37.2831 301.209 37.7273C300.924 38.1714 300.506 38.5244 299.956 38.7862C299.409 39.0481 298.745 39.179 297.962 39.179C297.233 39.179 296.602 39.0613 296.068 38.826C295.538 38.5907 295.12 38.2625 294.815 37.8416C294.514 37.4207 294.343 36.9318 294.303 36.375H295.576C295.609 36.7595 295.738 37.0777 295.964 37.3295C296.192 37.5781 296.481 37.7637 296.829 37.8864C297.18 38.0057 297.558 38.0653 297.962 38.0653C298.433 38.0653 298.856 37.9891 299.23 37.8366C299.605 37.6809 299.901 37.4654 300.12 37.1903C300.339 36.9119 300.448 36.5871 300.448 36.2159C300.448 35.8778 300.354 35.6027 300.165 35.3906C299.976 35.1785 299.727 35.0062 299.419 34.8736C299.111 34.741 298.778 34.625 298.42 34.5256L297.167 34.1676C296.371 33.9389 295.742 33.6125 295.278 33.1882C294.814 32.764 294.582 32.2088 294.582 31.5227C294.582 30.9527 294.736 30.4555 295.044 30.0312C295.356 29.6037 295.773 29.2723 296.297 29.0369C296.824 28.7983 297.412 28.679 298.062 28.679C298.718 28.679 299.301 28.7966 299.812 29.032C300.322 29.264 300.727 29.5821 301.025 29.9865C301.326 30.3909 301.486 30.8499 301.502 31.3636H300.309ZM306.83 31.3636V32.358H302.873V31.3636H306.83ZM304.026 29.5341H305.2V36.8125C305.2 37.1439 305.248 37.3925 305.344 37.5582C305.443 37.7206 305.569 37.83 305.722 37.8864C305.878 37.9394 306.042 37.9659 306.214 37.9659C306.343 37.9659 306.449 37.9593 306.532 37.946C306.615 37.9295 306.681 37.9162 306.731 37.9062L306.97 38.9602C306.89 38.9901 306.779 39.0199 306.637 39.0497C306.494 39.0829 306.313 39.0994 306.095 39.0994C305.763 39.0994 305.438 39.0282 305.12 38.8857C304.805 38.7431 304.544 38.526 304.335 38.2344C304.129 37.9427 304.026 37.5748 304.026 37.1307V29.5341ZM310.843 39.179C310.359 39.179 309.919 39.0878 309.525 38.9055C309.131 38.7199 308.817 38.4531 308.585 38.1051C308.353 37.7538 308.237 37.3295 308.237 36.8324C308.237 36.3949 308.324 36.0402 308.496 35.7685C308.668 35.4934 308.899 35.2779 309.187 35.1222C309.475 34.9664 309.794 34.8504 310.142 34.7741C310.493 34.6946 310.846 34.6316 311.2 34.5852C311.664 34.5256 312.041 34.4808 312.329 34.451C312.621 34.4179 312.833 34.3632 312.965 34.2869C313.101 34.2107 313.169 34.0781 313.169 33.8892V33.8494C313.169 33.3589 313.035 32.9777 312.767 32.706C312.501 32.4342 312.099 32.2983 311.558 32.2983C310.998 32.2983 310.559 32.4209 310.241 32.6662C309.923 32.9115 309.699 33.1733 309.57 33.4517L308.456 33.054C308.655 32.59 308.92 32.2287 309.252 31.9702C309.586 31.7083 309.951 31.526 310.345 31.4233C310.743 31.3172 311.134 31.2642 311.519 31.2642C311.764 31.2642 312.046 31.294 312.364 31.3537C312.685 31.41 312.995 31.5277 313.294 31.7067C313.595 31.8857 313.845 32.1558 314.044 32.517C314.243 32.8783 314.343 33.3622 314.343 33.9688V39H313.169V37.9659H313.11C313.03 38.1316 312.897 38.3089 312.712 38.4979C312.526 38.6868 312.279 38.8475 311.971 38.9801C311.663 39.1127 311.287 39.179 310.843 39.179ZM311.021 38.125C311.485 38.125 311.877 38.0339 312.195 37.8516C312.516 37.6693 312.758 37.4339 312.921 37.1456C313.086 36.8572 313.169 36.554 313.169 36.2358V35.1619C313.119 35.2216 313.01 35.2763 312.841 35.326C312.675 35.3724 312.483 35.4138 312.264 35.4503C312.049 35.4834 311.838 35.5133 311.633 35.5398C311.431 35.563 311.267 35.5829 311.141 35.5994C310.836 35.6392 310.551 35.7038 310.286 35.7933C310.024 35.8795 309.812 36.0104 309.649 36.1861C309.49 36.3584 309.411 36.5937 309.411 36.892C309.411 37.2997 309.561 37.608 309.863 37.8168C310.168 38.0223 310.554 38.125 311.021 38.125ZM319.805 31.3636V32.358H315.848V31.3636H319.805ZM317.001 29.5341H318.174V36.8125C318.174 37.1439 318.222 37.3925 318.319 37.5582C318.418 37.7206 318.544 37.83 318.696 37.8864C318.852 37.9394 319.016 37.9659 319.189 37.9659C319.318 37.9659 319.424 37.9593 319.507 37.946C319.59 37.9295 319.656 37.9162 319.706 37.9062L319.944 38.9602C319.865 38.9901 319.754 39.0199 319.611 39.0497C319.469 39.0829 319.288 39.0994 319.069 39.0994C318.738 39.0994 318.413 39.0282 318.095 38.8857C317.78 38.7431 317.518 38.526 317.309 38.2344C317.104 37.9427 317.001 37.5748 317.001 37.1307V29.5341ZM326.382 35.8778V31.3636H327.556V39H326.382V37.7074H326.303C326.124 38.0952 325.846 38.425 325.468 38.6967C325.09 38.9652 324.613 39.0994 324.036 39.0994C323.559 39.0994 323.134 38.995 322.763 38.7862C322.392 38.5741 322.1 38.2559 321.888 37.8317C321.676 37.4041 321.57 36.8655 321.57 36.2159V31.3636H322.743V36.1364C322.743 36.6932 322.899 37.1373 323.211 37.4688C323.525 37.8002 323.926 37.9659 324.414 37.9659C324.705 37.9659 325.002 37.8913 325.304 37.7422C325.609 37.593 325.864 37.3643 326.069 37.0561C326.278 36.7479 326.382 36.3551 326.382 35.8778ZM335.114 33.0739L334.06 33.3722C333.994 33.1965 333.896 33.0258 333.767 32.8601C333.641 32.6911 333.468 32.5518 333.249 32.4425C333.031 32.3331 332.751 32.2784 332.409 32.2784C331.942 32.2784 331.552 32.3861 331.241 32.6016C330.933 32.8137 330.779 33.0838 330.779 33.4119C330.779 33.7036 330.885 33.9339 331.097 34.103C331.309 34.272 331.64 34.4129 332.091 34.5256L333.225 34.804C333.907 34.9697 334.416 35.2232 334.751 35.5646C335.086 35.9027 335.253 36.3385 335.253 36.8722C335.253 37.3097 335.127 37.7008 334.875 38.0455C334.627 38.3902 334.279 38.6619 333.831 38.8608C333.384 39.0597 332.863 39.1591 332.27 39.1591C331.491 39.1591 330.847 38.9901 330.336 38.652C329.826 38.3139 329.503 37.8201 329.367 37.1705L330.48 36.892C330.586 37.303 330.787 37.6113 331.082 37.8168C331.38 38.0223 331.77 38.125 332.25 38.125C332.797 38.125 333.231 38.009 333.553 37.777C333.878 37.5417 334.04 37.2599 334.04 36.9318C334.04 36.6667 333.947 36.4446 333.762 36.2656C333.576 36.0833 333.291 35.9474 332.906 35.858L331.634 35.5597C330.934 35.3939 330.421 35.1371 330.093 34.7891C329.768 34.4377 329.605 33.9986 329.605 33.4716C329.605 33.0407 329.726 32.6596 329.968 32.3281C330.213 31.9967 330.547 31.7365 330.968 31.5476C331.392 31.3587 331.872 31.2642 332.409 31.2642C333.165 31.2642 333.758 31.4299 334.189 31.7614C334.623 32.0928 334.932 32.5303 335.114 33.0739Z" fill="black" fill-opacity="0.4"/>
<line x1="352.5" y1="24" x2="352.5" y2="44" stroke="black" stroke-opacity="0.2"/>
<path d="M381 34C381 35.6569 379.657 37 378 37C376.343 37 375 35.6569 375 34C375 32.3431 376.343 31 378 31C379.657 31 381 32.3431 381 34Z" fill="#1C1C1C"/>
<path d="M394.08 32H393.023C392.96 31.696 392.851 31.429 392.695 31.1989C392.541 30.9688 392.354 30.7756 392.132 30.6193C391.913 30.4602 391.67 30.3409 391.403 30.2614C391.136 30.1818 390.858 30.142 390.568 30.142C390.04 30.142 389.561 30.2756 389.132 30.5426C388.706 30.8097 388.366 31.2031 388.114 31.723C387.864 32.2429 387.739 32.8807 387.739 33.6364C387.739 34.392 387.864 35.0298 388.114 35.5497C388.366 36.0696 388.706 36.4631 389.132 36.7301C389.561 36.9972 390.04 37.1307 390.568 37.1307C390.858 37.1307 391.136 37.0909 391.403 37.0114C391.67 36.9318 391.913 36.8139 392.132 36.6577C392.354 36.4986 392.541 36.304 392.695 36.0739C392.851 35.8409 392.96 35.5739 393.023 35.2727H394.08C394 35.7187 393.855 36.1179 393.645 36.4702C393.435 36.8224 393.173 37.1222 392.861 37.3693C392.548 37.6136 392.197 37.7997 391.808 37.9276C391.422 38.0554 391.009 38.1193 390.568 38.1193C389.824 38.1193 389.162 37.9375 388.582 37.5739C388.003 37.2102 387.547 36.6932 387.214 36.0227C386.882 35.3523 386.716 34.5568 386.716 33.6364C386.716 32.7159 386.882 31.9205 387.214 31.25C387.547 30.5795 388.003 30.0625 388.582 29.6989C389.162 29.3352 389.824 29.1534 390.568 29.1534C391.009 29.1534 391.422 29.2173 391.808 29.3452C392.197 29.473 392.548 29.6605 392.861 29.9077C393.173 30.152 393.435 30.4503 393.645 30.8026C393.855 31.152 394 31.5511 394.08 32ZM399.776 35.3239V31.4545H400.782V38H399.776V36.892H399.708C399.554 37.2244 399.316 37.5071 398.992 37.7401C398.668 37.9702 398.259 38.0852 397.765 38.0852C397.355 38.0852 396.992 37.9957 396.674 37.8168C396.355 37.6349 396.105 37.3622 395.924 36.9986C395.742 36.6321 395.651 36.1705 395.651 35.6136V31.4545H396.657V35.5455C396.657 36.0227 396.79 36.4034 397.057 36.6875C397.327 36.9716 397.671 37.1136 398.088 37.1136C398.338 37.1136 398.593 37.0497 398.851 36.9219C399.113 36.794 399.331 36.598 399.507 36.3338C399.686 36.0696 399.776 35.733 399.776 35.3239ZM402.624 38V31.4545H403.595V32.4432H403.663C403.783 32.1193 403.999 31.8565 404.311 31.6548C404.624 31.4531 404.976 31.3523 405.368 31.3523C405.442 31.3523 405.534 31.3537 405.645 31.3565C405.756 31.3594 405.839 31.3636 405.896 31.3693V32.392C405.862 32.3835 405.784 32.3707 405.662 32.3537C405.543 32.3338 405.416 32.3239 405.283 32.3239C404.964 32.3239 404.68 32.3906 404.43 32.5241C404.183 32.6548 403.987 32.8366 403.842 33.0696C403.7 33.2997 403.629 33.5625 403.629 33.858V38H402.624ZM407.088 38V31.4545H408.06V32.4432H408.128C408.248 32.1193 408.463 31.8565 408.776 31.6548C409.088 31.4531 409.441 31.3523 409.833 31.3523C409.907 31.3523 409.999 31.3537 410.11 31.3565C410.221 31.3594 410.304 31.3636 410.361 31.3693V32.392C410.327 32.3835 410.249 32.3707 410.127 32.3537C410.007 32.3338 409.881 32.3239 409.748 32.3239C409.429 32.3239 409.145 32.3906 408.895 32.5241C408.648 32.6548 408.452 32.8366 408.307 33.0696C408.165 33.2997 408.094 33.5625 408.094 33.858V38H407.088ZM414.098 38.1364C413.468 38.1364 412.924 37.9972 412.466 37.7188C412.012 37.4375 411.661 37.0455 411.414 36.5426C411.169 36.0369 411.047 35.4489 411.047 34.7784C411.047 34.108 411.169 33.517 411.414 33.0057C411.661 32.4915 412.005 32.0909 412.445 31.804C412.888 31.5142 413.405 31.3693 413.996 31.3693C414.337 31.3693 414.674 31.4261 415.006 31.5398C415.338 31.6534 415.641 31.8381 415.914 32.0938C416.186 32.3466 416.404 32.6818 416.566 33.0994C416.728 33.517 416.809 34.0312 416.809 34.642V35.0682H411.763V34.1989H415.786C415.786 33.8295 415.712 33.5 415.564 33.2102C415.419 32.9205 415.212 32.6918 414.942 32.5241C414.675 32.3565 414.36 32.2727 413.996 32.2727C413.596 32.2727 413.249 32.3722 412.956 32.571C412.667 32.767 412.444 33.0227 412.287 33.3381C412.131 33.6534 412.053 33.9915 412.053 34.3523V34.9318C412.053 35.4261 412.138 35.8452 412.309 36.1889C412.482 36.5298 412.722 36.7898 413.029 36.9688C413.336 37.1449 413.692 37.233 414.098 37.233C414.363 37.233 414.601 37.196 414.814 37.1222C415.03 37.0455 415.216 36.9318 415.373 36.7812C415.529 36.6278 415.65 36.4375 415.735 36.2102L416.706 36.483C416.604 36.8125 416.432 37.1023 416.191 37.3523C415.949 37.5994 415.651 37.7926 415.296 37.9318C414.941 38.0682 414.542 38.1364 414.098 38.1364ZM419.344 34.0625V38H418.338V31.4545H419.31V32.4773H419.395C419.549 32.1449 419.782 31.8778 420.094 31.6761C420.407 31.4716 420.81 31.3693 421.304 31.3693C421.748 31.3693 422.135 31.4602 422.468 31.642C422.8 31.821 423.059 32.0938 423.243 32.4602C423.428 32.8239 423.52 33.2841 423.52 33.8409V38H422.515V33.9091C422.515 33.3949 422.381 32.9943 422.114 32.7074C421.847 32.4176 421.48 32.2727 421.015 32.2727C420.694 32.2727 420.407 32.3423 420.154 32.4815C419.904 32.6207 419.706 32.8239 419.561 33.0909C419.417 33.358 419.344 33.6818 419.344 34.0625ZM428.205 31.4545V32.3068H424.812V31.4545H428.205ZM425.801 29.8864H426.807V36.125C426.807 36.4091 426.848 36.6222 426.93 36.7642C427.016 36.9034 427.124 36.9972 427.254 37.0455C427.388 37.0909 427.528 37.1136 427.676 37.1136C427.787 37.1136 427.878 37.108 427.949 37.0966C428.02 37.0824 428.077 37.071 428.119 37.0625L428.324 37.9659C428.256 37.9915 428.161 38.017 428.038 38.0426C427.916 38.071 427.761 38.0852 427.574 38.0852C427.29 38.0852 427.011 38.0241 426.739 37.902C426.469 37.7798 426.244 37.5938 426.065 37.3438C425.889 37.0938 425.801 36.7784 425.801 36.3977V29.8864ZM434.814 38L432.428 29.2727H433.501L435.325 36.3807H435.411L437.268 29.2727H438.462L440.32 36.3807H440.405L442.229 29.2727H443.303L440.916 38H439.825L437.899 31.0455H437.831L435.905 38H434.814ZM446.618 38.1364C445.987 38.1364 445.443 37.9972 444.986 37.7188C444.531 37.4375 444.18 37.0455 443.933 36.5426C443.689 36.0369 443.567 35.4489 443.567 34.7784C443.567 34.108 443.689 33.517 443.933 33.0057C444.18 32.4915 444.524 32.0909 444.964 31.804C445.408 31.5142 445.925 31.3693 446.516 31.3693C446.857 31.3693 447.193 31.4261 447.526 31.5398C447.858 31.6534 448.161 31.8381 448.433 32.0938C448.706 32.3466 448.923 32.6818 449.085 33.0994C449.247 33.517 449.328 34.0312 449.328 34.642V35.0682H444.283V34.1989H448.305C448.305 33.8295 448.232 33.5 448.084 33.2102C447.939 32.9205 447.732 32.6918 447.462 32.5241C447.195 32.3565 446.879 32.2727 446.516 32.2727C446.115 32.2727 445.768 32.3722 445.476 32.571C445.186 32.767 444.963 33.0227 444.807 33.3381C444.651 33.6534 444.572 33.9915 444.572 34.3523V34.9318C444.572 35.4261 444.658 35.8452 444.828 36.1889C445.001 36.5298 445.241 36.7898 445.548 36.9688C445.855 37.1449 446.212 37.233 446.618 37.233C446.882 37.233 447.121 37.196 447.334 37.1222C447.55 37.0455 447.736 36.9318 447.892 36.7812C448.048 36.6278 448.169 36.4375 448.254 36.2102L449.226 36.483C449.124 36.8125 448.952 37.1023 448.71 37.3523C448.469 37.5994 448.17 37.7926 447.815 37.9318C447.46 38.0682 447.061 38.1364 446.618 38.1364ZM453.602 38.1364C452.972 38.1364 452.428 37.9972 451.97 37.7188C451.516 37.4375 451.165 37.0455 450.918 36.5426C450.673 36.0369 450.551 35.4489 450.551 34.7784C450.551 34.108 450.673 33.517 450.918 33.0057C451.165 32.4915 451.509 32.0909 451.949 31.804C452.392 31.5142 452.909 31.3693 453.5 31.3693C453.841 31.3693 454.178 31.4261 454.51 31.5398C454.842 31.6534 455.145 31.8381 455.418 32.0938C455.69 32.3466 455.908 32.6818 456.07 33.0994C456.232 33.517 456.312 34.0312 456.312 34.642V35.0682H451.267V34.1989H455.29C455.29 33.8295 455.216 33.5 455.068 33.2102C454.923 32.9205 454.716 32.6918 454.446 32.5241C454.179 32.3565 453.864 32.2727 453.5 32.2727C453.099 32.2727 452.753 32.3722 452.46 32.571C452.17 32.767 451.947 33.0227 451.791 33.3381C451.635 33.6534 451.557 33.9915 451.557 34.3523V34.9318C451.557 35.4261 451.642 35.8452 451.812 36.1889C451.986 36.5298 452.226 36.7898 452.533 36.9688C452.839 37.1449 453.196 37.233 453.602 37.233C453.866 37.233 454.105 37.196 454.318 37.1222C454.534 37.0455 454.72 36.9318 454.876 36.7812C455.033 36.6278 455.153 36.4375 455.239 36.2102L456.21 36.483C456.108 36.8125 455.936 37.1023 455.695 37.3523C455.453 37.5994 455.155 37.7926 454.8 37.9318C454.445 38.0682 454.045 38.1364 453.602 38.1364ZM458.78 35.6136L458.763 34.3693H458.967L461.831 31.4545H463.075L460.024 34.5398H459.939L458.78 35.6136ZM457.842 38V29.2727H458.848V38H457.842ZM462.001 38L459.445 34.7614L460.161 34.0625L463.28 38H462.001Z" fill="#1C1C1C"/>
<path d="M497 34C497 35.6569 495.657 37 494 37C492.343 37 491 35.6569 491 34C491 32.3431 492.343 31 494 31C495.657 31 497 32.3431 497 34Z" fill="#A8C5DA"/>
<path d="M503.057 38V29.2727H506.006C506.69 29.2727 507.25 29.3963 507.685 29.6435C508.122 29.8878 508.446 30.2188 508.656 30.6364C508.866 31.054 508.972 31.5199 508.972 32.0341C508.972 32.5483 508.866 33.0156 508.656 33.4361C508.449 33.8565 508.128 34.1918 507.693 34.4418C507.259 34.6889 506.702 34.8125 506.023 34.8125H503.909V33.875H505.989C506.457 33.875 506.834 33.794 507.118 33.6321C507.402 33.4702 507.608 33.2514 507.736 32.9759C507.866 32.6974 507.932 32.3835 507.932 32.0341C507.932 31.6847 507.866 31.3722 507.736 31.0966C507.608 30.821 507.401 30.6051 507.114 30.4489C506.827 30.2898 506.446 30.2102 505.972 30.2102H504.114V38H503.057ZM510.538 38V31.4545H511.509V32.4432H511.577C511.697 32.1193 511.913 31.8565 512.225 31.6548C512.538 31.4531 512.89 31.3523 513.282 31.3523C513.356 31.3523 513.448 31.3537 513.559 31.3565C513.67 31.3594 513.754 31.3636 513.81 31.3693V32.392C513.776 32.3835 513.698 32.3707 513.576 32.3537C513.457 32.3338 513.33 32.3239 513.197 32.3239C512.879 32.3239 512.594 32.3906 512.344 32.5241C512.097 32.6548 511.901 32.8366 511.756 33.0696C511.614 33.2997 511.543 33.5625 511.543 33.858V38H510.538ZM517.548 38.1364C516.917 38.1364 516.373 37.9972 515.915 37.7188C515.461 37.4375 515.11 37.0455 514.863 36.5426C514.619 36.0369 514.496 35.4489 514.496 34.7784C514.496 34.108 514.619 33.517 514.863 33.0057C515.11 32.4915 515.454 32.0909 515.894 31.804C516.337 31.5142 516.854 31.3693 517.445 31.3693C517.786 31.3693 518.123 31.4261 518.455 31.5398C518.788 31.6534 519.09 31.8381 519.363 32.0938C519.636 32.3466 519.853 32.6818 520.015 33.0994C520.177 33.517 520.258 34.0312 520.258 34.642V35.0682H515.212V34.1989H519.235C519.235 33.8295 519.161 33.5 519.013 33.2102C518.869 32.9205 518.661 32.6918 518.391 32.5241C518.124 32.3565 517.809 32.2727 517.445 32.2727C517.045 32.2727 516.698 32.3722 516.406 32.571C516.116 32.767 515.893 33.0227 515.737 33.3381C515.58 33.6534 515.502 33.9915 515.502 34.3523V34.9318C515.502 35.4261 515.587 35.8452 515.758 36.1889C515.931 36.5298 516.171 36.7898 516.478 36.9688C516.785 37.1449 517.141 37.233 517.548 37.233C517.812 37.233 518.05 37.196 518.263 37.1222C518.479 37.0455 518.665 36.9318 518.822 36.7812C518.978 36.6278 519.099 36.4375 519.184 36.2102L520.156 36.483C520.053 36.8125 519.881 37.1023 519.64 37.3523C519.398 37.5994 519.1 37.7926 518.745 37.9318C518.39 38.0682 517.991 38.1364 517.548 38.1364ZM526.941 31.4545L524.52 38H523.498L521.077 31.4545H522.168L523.975 36.6705H524.043L525.85 31.4545H526.941ZM528.268 38V31.4545H529.274V38H528.268ZM528.779 30.3636C528.583 30.3636 528.414 30.2969 528.272 30.1634C528.133 30.0298 528.064 29.8693 528.064 29.6818C528.064 29.4943 528.133 29.3338 528.272 29.2003C528.414 29.0668 528.583 29 528.779 29C528.975 29 529.143 29.0668 529.282 29.2003C529.424 29.3338 529.495 29.4943 529.495 29.6818C529.495 29.8693 529.424 30.0298 529.282 30.1634C529.143 30.2969 528.975 30.3636 528.779 30.3636ZM533.775 38.1364C533.184 38.1364 532.665 37.9957 532.219 37.7145C531.776 37.4332 531.43 37.0398 531.18 36.5341C530.933 36.0284 530.809 35.4375 530.809 34.7614C530.809 34.0795 530.933 33.4844 531.18 32.9759C531.43 32.4673 531.776 32.0724 532.219 31.7912C532.665 31.5099 533.184 31.3693 533.775 31.3693C534.366 31.3693 534.883 31.5099 535.326 31.7912C535.772 32.0724 536.119 32.4673 536.366 32.9759C536.616 33.4844 536.741 34.0795 536.741 34.7614C536.741 35.4375 536.616 36.0284 536.366 36.5341C536.119 37.0398 535.772 37.4332 535.326 37.7145C534.883 37.9957 534.366 38.1364 533.775 38.1364ZM533.775 37.233C534.224 37.233 534.593 37.1179 534.883 36.8878C535.173 36.6577 535.387 36.3551 535.526 35.9801C535.665 35.6051 535.735 35.1989 535.735 34.7614C535.735 34.3239 535.665 33.9162 535.526 33.5384C535.387 33.1605 535.173 32.8551 534.883 32.6222C534.593 32.3892 534.224 32.2727 533.775 32.2727C533.326 32.2727 532.957 32.3892 532.667 32.6222C532.377 32.8551 532.163 33.1605 532.023 33.5384C531.884 33.9162 531.815 34.3239 531.815 34.7614C531.815 35.1989 531.884 35.6051 532.023 35.9801C532.163 36.3551 532.377 36.6577 532.667 36.8878C532.957 37.1179 533.326 37.233 533.775 37.233ZM542.401 35.3239V31.4545H543.407V38H542.401V36.892H542.333C542.179 37.2244 541.941 37.5071 541.617 37.7401C541.293 37.9702 540.884 38.0852 540.39 38.0852C539.98 38.0852 539.617 37.9957 539.299 37.8168C538.98 37.6349 538.73 37.3622 538.549 36.9986C538.367 36.6321 538.276 36.1705 538.276 35.6136V31.4545H539.282V35.5455C539.282 36.0227 539.415 36.4034 539.682 36.6875C539.952 36.9716 540.296 37.1136 540.713 37.1136C540.963 37.1136 541.218 37.0497 541.476 36.9219C541.738 36.794 541.956 36.598 542.132 36.3338C542.311 36.0696 542.401 35.733 542.401 35.3239ZM549.885 32.9205L548.982 33.1761C548.925 33.0256 548.841 32.8793 548.73 32.7372C548.622 32.5923 548.474 32.473 548.287 32.3793C548.099 32.2855 547.859 32.2386 547.567 32.2386C547.166 32.2386 546.832 32.331 546.565 32.5156C546.301 32.6974 546.169 32.929 546.169 33.2102C546.169 33.4602 546.26 33.6577 546.442 33.8026C546.624 33.9474 546.908 34.0682 547.294 34.1648L548.266 34.4034C548.851 34.5455 549.287 34.7628 549.574 35.0554C549.861 35.3452 550.004 35.7187 550.004 36.1761C550.004 36.5511 549.896 36.8864 549.68 37.1818C549.467 37.4773 549.169 37.7102 548.786 37.8807C548.402 38.0511 547.956 38.1364 547.447 38.1364C546.78 38.1364 546.227 37.9915 545.79 37.7017C545.352 37.4119 545.075 36.9886 544.959 36.4318L545.913 36.1932C546.004 36.5455 546.176 36.8097 546.429 36.9858C546.685 37.1619 547.018 37.25 547.43 37.25C547.899 37.25 548.271 37.1506 548.547 36.9517C548.825 36.75 548.964 36.5085 548.964 36.2273C548.964 36 548.885 35.8097 548.726 35.6562C548.567 35.5 548.322 35.3835 547.993 35.3068L546.902 35.0511C546.303 34.9091 545.862 34.6889 545.581 34.3906C545.303 34.0895 545.163 33.7131 545.163 33.2614C545.163 32.892 545.267 32.5653 545.474 32.2812C545.685 31.9972 545.97 31.7741 546.331 31.6122C546.695 31.4503 547.107 31.3693 547.567 31.3693C548.214 31.3693 548.723 31.5114 549.092 31.7955C549.464 32.0795 549.729 32.4545 549.885 32.9205ZM556.615 38L554.228 29.2727H555.302L557.126 36.3807H557.211L559.069 29.2727H560.262L562.12 36.3807H562.206L564.029 29.2727H565.103L562.717 38H561.626L559.7 31.0455H559.632L557.706 38H556.615ZM568.419 38.1364C567.788 38.1364 567.244 37.9972 566.787 37.7188C566.332 37.4375 565.981 37.0455 565.734 36.5426C565.49 36.0369 565.368 35.4489 565.368 34.7784C565.368 34.108 565.49 33.517 565.734 33.0057C565.981 32.4915 566.325 32.0909 566.765 31.804C567.208 31.5142 567.725 31.3693 568.316 31.3693C568.657 31.3693 568.994 31.4261 569.326 31.5398C569.659 31.6534 569.961 31.8381 570.234 32.0938C570.507 32.3466 570.724 32.6818 570.886 33.0994C571.048 33.517 571.129 34.0312 571.129 34.642V35.0682H566.083V34.1989H570.106C570.106 33.8295 570.032 33.5 569.885 33.2102C569.74 32.9205 569.532 32.6918 569.262 32.5241C568.995 32.3565 568.68 32.2727 568.316 32.2727C567.916 32.2727 567.569 32.3722 567.277 32.571C566.987 32.767 566.764 33.0227 566.608 33.3381C566.451 33.6534 566.373 33.9915 566.373 34.3523V34.9318C566.373 35.4261 566.458 35.8452 566.629 36.1889C566.802 36.5298 567.042 36.7898 567.349 36.9688C567.656 37.1449 568.012 37.233 568.419 37.233C568.683 37.233 568.922 37.196 569.135 37.1222C569.35 37.0455 569.537 36.9318 569.693 36.7812C569.849 36.6278 569.97 36.4375 570.055 36.2102L571.027 36.483C570.924 36.8125 570.752 37.1023 570.511 37.3523C570.27 37.5994 569.971 37.7926 569.616 37.9318C569.261 38.0682 568.862 38.1364 568.419 38.1364ZM575.403 38.1364C574.772 38.1364 574.228 37.9972 573.771 37.7188C573.316 37.4375 572.966 37.0455 572.718 36.5426C572.474 36.0369 572.352 35.4489 572.352 34.7784C572.352 34.108 572.474 33.517 572.718 33.0057C572.966 32.4915 573.309 32.0909 573.75 31.804C574.193 31.5142 574.71 31.3693 575.301 31.3693C575.642 31.3693 575.978 31.4261 576.311 31.5398C576.643 31.6534 576.946 31.8381 577.218 32.0938C577.491 32.3466 577.708 32.6818 577.87 33.0994C578.032 33.517 578.113 34.0312 578.113 34.642V35.0682H573.068V34.1989H577.091C577.091 33.8295 577.017 33.5 576.869 33.2102C576.724 32.9205 576.517 32.6918 576.247 32.5241C575.98 32.3565 575.664 32.2727 575.301 32.2727C574.9 32.2727 574.554 32.3722 574.261 32.571C573.971 32.767 573.748 33.0227 573.592 33.3381C573.436 33.6534 573.358 33.9915 573.358 34.3523V34.9318C573.358 35.4261 573.443 35.8452 573.613 36.1889C573.787 36.5298 574.027 36.7898 574.333 36.9688C574.64 37.1449 574.997 37.233 575.403 37.233C575.667 37.233 575.906 37.196 576.119 37.1222C576.335 37.0455 576.521 36.9318 576.677 36.7812C576.833 36.6278 576.954 36.4375 577.039 36.2102L578.011 36.483C577.909 36.8125 577.737 37.1023 577.495 37.3523C577.254 37.5994 576.956 37.7926 576.6 37.9318C576.245 38.0682 575.846 38.1364 575.403 38.1364ZM580.581 35.6136L580.564 34.3693H580.768L583.632 31.4545H584.876L581.825 34.5398H581.74L580.581 35.6136ZM579.643 38V29.2727H580.649V38H579.643ZM583.802 38L581.245 34.7614L581.961 34.0625L585.081 38H583.802Z" fill="#1C1C1C"/>
<path d="M627 32.75C627.69 32.75 628.25 33.3096 628.25 34C628.25 34.6904 627.69 35.25 627 35.25C626.31 35.25 625.75 34.6904 625.75 34C625.75 33.3096 626.31 32.75 627 32.75Z" fill="#1C1C1C"/>
<path d="M632 32.75C632.69 32.75 633.25 33.3096 633.25 34C633.25 34.6904 632.69 35.25 632 35.25C631.31 35.25 630.75 34.6904 630.75 34C630.75 33.3096 631.31 32.75 632 32.75Z" fill="#1C1C1C"/>
<path d="M638.25 34C638.25 33.3096 637.69 32.75 637 32.75C636.31 32.75 635.75 33.3096 635.75 34C635.75 34.6904 636.31 35.25 637 35.25C637.69 35.25 638.25 34.6904 638.25 34Z" fill="#1C1C1C"/>
<path d="M28.4169 64.2727V73H27.3601V65.3807H27.3089L25.1783 66.7955V65.7216L27.3601 64.2727H28.4169ZM33.6541 73.1193C33.1541 73.1193 32.7038 73.0199 32.3033 72.821C31.9027 72.6222 31.5817 72.3494 31.3402 72.0028C31.0987 71.6562 30.9666 71.2614 30.9439 70.8182H31.9666C32.0064 71.2131 32.1854 71.5398 32.5036 71.7983C32.8246 72.054 33.2081 72.1818 33.6541 72.1818C34.0121 72.1818 34.3303 72.098 34.6087 71.9304C34.8899 71.7628 35.1101 71.5327 35.2692 71.2401C35.4311 70.9446 35.5121 70.6108 35.5121 70.2386C35.5121 69.858 35.4283 69.5185 35.2607 69.2202C35.0959 68.919 34.8686 68.6818 34.5788 68.5085C34.2891 68.3352 33.9581 68.2472 33.5859 68.2443C33.3189 68.2415 33.0447 68.2827 32.7635 68.3679C32.4822 68.4503 32.2507 68.5568 32.0689 68.6875L31.0803 68.5682L31.6087 64.2727H36.1428V65.2102H32.495L32.1882 67.7841H32.2393C32.4183 67.642 32.6428 67.5241 32.9126 67.4304C33.1825 67.3366 33.4638 67.2898 33.7564 67.2898C34.2905 67.2898 34.7663 67.4176 35.1839 67.6733C35.6044 67.9261 35.9339 68.2727 36.1726 68.7131C36.4141 69.1534 36.5348 69.6562 36.5348 70.2216C36.5348 70.7784 36.4098 71.2756 36.1598 71.7131C35.9126 72.1477 35.5717 72.4915 35.1371 72.7443C34.7024 72.9943 34.2081 73.1193 33.6541 73.1193ZM38.381 64.2727H39.6424L42.6083 71.517H42.7106L45.6765 64.2727H46.9379V73H45.9492V66.3693H45.864L43.1367 73H42.1822L39.4549 66.3693H39.3697V73H38.381V64.2727Z" fill="black" fill-opacity="0.4"/>
<path d="M28.2177 111.273V120H27.1609V112.381H27.1097L24.979 113.795V112.722L27.1609 111.273H28.2177ZM33.5742 120.119C32.9322 120.119 32.3853 119.945 31.9336 119.595C31.4819 119.243 31.1367 118.733 30.8981 118.065C30.6594 117.395 30.5401 116.585 30.5401 115.636C30.5401 114.693 30.6594 113.888 30.8981 113.22C31.1396 112.55 31.4862 112.038 31.9379 111.686C32.3924 111.331 32.9379 111.153 33.5742 111.153C34.2106 111.153 34.7546 111.331 35.2063 111.686C35.6609 112.038 36.0075 112.55 36.2461 113.22C36.4876 113.888 36.6083 114.693 36.6083 115.636C36.6083 116.585 36.489 117.395 36.2504 118.065C36.0117 118.733 35.6665 119.243 35.2148 119.595C34.7631 119.945 34.2163 120.119 33.5742 120.119ZM33.5742 119.182C34.2106 119.182 34.7049 118.875 35.0572 118.261C35.4094 117.648 35.5856 116.773 35.5856 115.636C35.5856 114.881 35.5046 114.237 35.3427 113.706C35.1836 113.175 34.9535 112.77 34.6523 112.491C34.354 112.213 33.9947 112.074 33.5742 112.074C32.9435 112.074 32.4506 112.385 32.0955 113.007C31.7404 113.626 31.5629 114.503 31.5629 115.636C31.5629 116.392 31.6424 117.034 31.8015 117.562C31.9606 118.091 32.1893 118.493 32.4876 118.768C32.7887 119.044 33.1509 119.182 33.5742 119.182ZM38.381 111.273H39.6424L42.6083 118.517H42.7106L45.6765 111.273H46.9379V120H45.9492V113.369H45.864L43.1367 120H42.1822L39.4549 113.369H39.3697V120H38.381V111.273Z" fill="black" fill-opacity="0.4"/>
<path d="M33.6541 167.119C33.1541 167.119 32.7038 167.02 32.3033 166.821C31.9027 166.622 31.5817 166.349 31.3402 166.003C31.0987 165.656 30.9666 165.261 30.9439 164.818H31.9666C32.0064 165.213 32.1854 165.54 32.5036 165.798C32.8246 166.054 33.2081 166.182 33.6541 166.182C34.0121 166.182 34.3303 166.098 34.6087 165.93C34.8899 165.763 35.1101 165.533 35.2692 165.24C35.4311 164.945 35.5121 164.611 35.5121 164.239C35.5121 163.858 35.4283 163.518 35.2607 163.22C35.0959 162.919 34.8686 162.682 34.5788 162.509C34.2891 162.335 33.9581 162.247 33.5859 162.244C33.3189 162.241 33.0447 162.283 32.7635 162.368C32.4822 162.45 32.2507 162.557 32.0689 162.688L31.0803 162.568L31.6087 158.273H36.1428V159.21H32.495L32.1882 161.784H32.2393C32.4183 161.642 32.6428 161.524 32.9126 161.43C33.1825 161.337 33.4638 161.29 33.7564 161.29C34.2905 161.29 34.7663 161.418 35.1839 161.673C35.6044 161.926 35.9339 162.273 36.1726 162.713C36.4141 163.153 36.5348 163.656 36.5348 164.222C36.5348 164.778 36.4098 165.276 36.1598 165.713C35.9126 166.148 35.5717 166.491 35.1371 166.744C34.7024 166.994 34.2081 167.119 33.6541 167.119ZM38.381 158.273H39.6424L42.6083 165.517H42.7106L45.6765 158.273H46.9379V167H45.9492V160.369H45.864L43.1367 167H42.1822L39.4549 160.369H39.3697V167H38.381V158.273Z" fill="black" fill-opacity="0.4"/>
<path d="M35.7177 205.273V214H34.6609V206.381H34.6097L32.479 207.795V206.722L34.6609 205.273H35.7177ZM38.381 205.273H39.6424L42.6083 212.517H42.7106L45.6765 205.273H46.9379V214H45.9492V207.369H45.864L43.1367 214H42.1822L39.4549 207.369H39.3697V214H38.381V205.273Z" fill="black" fill-opacity="0.4"/>
<path d="M44.25 261.119C43.608 261.119 43.0611 260.945 42.6094 260.595C42.1577 260.243 41.8125 259.733 41.5739 259.065C41.3352 258.395 41.2159 257.585 41.2159 256.636C41.2159 255.693 41.3352 254.888 41.5739 254.22C41.8153 253.55 42.1619 253.038 42.6136 252.686C43.0682 252.331 43.6136 252.153 44.25 252.153C44.8864 252.153 45.4304 252.331 45.8821 252.686C46.3366 253.038 46.6832 253.55 46.9219 254.22C47.1634 254.888 47.2841 255.693 47.2841 256.636C47.2841 257.585 47.1648 258.395 46.9261 259.065C46.6875 259.733 46.3423 260.243 45.8906 260.595C45.4389 260.945 44.892 261.119 44.25 261.119ZM44.25 260.182C44.8864 260.182 45.3807 259.875 45.733 259.261C46.0852 258.648 46.2614 257.773 46.2614 256.636C46.2614 255.881 46.1804 255.237 46.0185 254.706C45.8594 254.175 45.6293 253.77 45.3281 253.491C45.0298 253.213 44.6705 253.074 44.25 253.074C43.6193 253.074 43.1264 253.385 42.7713 254.007C42.4162 254.626 42.2386 255.503 42.2386 256.636C42.2386 257.392 42.3182 258.034 42.4773 258.562C42.6364 259.091 42.8651 259.493 43.1634 259.768C43.4645 260.044 43.8267 260.182 44.25 260.182Z" fill="black" fill-opacity="0.4"/>
<line x1="64.5" y1="75.5" x2="637.5" y2="75.5" stroke="black" stroke-opacity="0.05" stroke-linecap="round"/>
<line x1="64.5" y1="123" x2="637.5" y2="123" stroke="black" stroke-opacity="0.05" stroke-linecap="round"/>
<line x1="64.5" y1="170.5" x2="637.5" y2="170.5" stroke="black" stroke-opacity="0.05" stroke-linecap="round"/>
<line x1="64.5" y1="218" x2="637.5" y2="218" stroke="black" stroke-opacity="0.05" stroke-linecap="round"/>
<line x1="64.5" y1="265.5" x2="637.5" y2="265.5" stroke="black" stroke-opacity="0.2" stroke-linecap="round"/>
<path d="M93.6291 282.273H94.8904L97.8564 289.517H97.9586L100.925 282.273H102.186V291H101.197V284.369H101.112L98.3848 291H97.4302L94.7029 284.369H94.6177V291H93.6291V282.273ZM106.828 291.136C106.237 291.136 105.718 290.996 105.272 290.714C104.829 290.433 104.482 290.04 104.232 289.534C103.985 289.028 103.862 288.437 103.862 287.761C103.862 287.08 103.985 286.484 104.232 285.976C104.482 285.467 104.829 285.072 105.272 284.791C105.718 284.51 106.237 284.369 106.828 284.369C107.419 284.369 107.936 284.51 108.379 284.791C108.825 285.072 109.171 285.467 109.419 285.976C109.669 286.484 109.794 287.08 109.794 287.761C109.794 288.437 109.669 289.028 109.419 289.534C109.171 290.04 108.825 290.433 108.379 290.714C107.936 290.996 107.419 291.136 106.828 291.136ZM106.828 290.233C107.276 290.233 107.646 290.118 107.936 289.888C108.225 289.658 108.44 289.355 108.579 288.98C108.718 288.605 108.788 288.199 108.788 287.761C108.788 287.324 108.718 286.916 108.579 286.538C108.44 286.161 108.225 285.855 107.936 285.622C107.646 285.389 107.276 285.273 106.828 285.273C106.379 285.273 106.009 285.389 105.72 285.622C105.43 285.855 105.215 286.161 105.076 286.538C104.937 286.916 104.867 287.324 104.867 287.761C104.867 288.199 104.937 288.605 105.076 288.98C105.215 289.355 105.43 289.658 105.72 289.888C106.009 290.118 106.379 290.233 106.828 290.233ZM112.334 287.062V291H111.329V284.455H112.3V285.477H112.385C112.539 285.145 112.772 284.878 113.084 284.676C113.397 284.472 113.8 284.369 114.295 284.369C114.738 284.369 115.126 284.46 115.458 284.642C115.79 284.821 116.049 285.094 116.233 285.46C116.418 285.824 116.51 286.284 116.51 286.841V291H115.505V286.909C115.505 286.395 115.371 285.994 115.104 285.707C114.837 285.418 114.471 285.273 114.005 285.273C113.684 285.273 113.397 285.342 113.144 285.482C112.894 285.621 112.697 285.824 112.552 286.091C112.407 286.358 112.334 286.682 112.334 287.062Z" fill="black" fill-opacity="0.4"/>
<path d="M177.197 283.21V282.273H183.742V283.21H180.998V291H179.941V283.21H177.197ZM188.471 288.324V284.455H189.477V291H188.471V289.892H188.403C188.25 290.224 188.011 290.507 187.687 290.74C187.363 290.97 186.954 291.085 186.46 291.085C186.051 291.085 185.687 290.996 185.369 290.817C185.051 290.635 184.801 290.362 184.619 289.999C184.437 289.632 184.346 289.17 184.346 288.614V284.455H185.352V288.545C185.352 289.023 185.485 289.403 185.752 289.688C186.022 289.972 186.366 290.114 186.784 290.114C187.034 290.114 187.288 290.05 187.547 289.922C187.808 289.794 188.027 289.598 188.203 289.334C188.382 289.07 188.471 288.733 188.471 288.324ZM194.063 291.136C193.433 291.136 192.888 290.997 192.431 290.719C191.977 290.438 191.626 290.045 191.379 289.543C191.134 289.037 191.012 288.449 191.012 287.778C191.012 287.108 191.134 286.517 191.379 286.006C191.626 285.491 191.969 285.091 192.41 284.804C192.853 284.514 193.37 284.369 193.961 284.369C194.302 284.369 194.638 284.426 194.971 284.54C195.303 284.653 195.606 284.838 195.879 285.094C196.151 285.347 196.369 285.682 196.531 286.099C196.692 286.517 196.773 287.031 196.773 287.642V288.068H191.728V287.199H195.751C195.751 286.83 195.677 286.5 195.529 286.21C195.384 285.92 195.177 285.692 194.907 285.524C194.64 285.357 194.325 285.273 193.961 285.273C193.56 285.273 193.214 285.372 192.921 285.571C192.631 285.767 192.408 286.023 192.252 286.338C192.096 286.653 192.018 286.991 192.018 287.352V287.932C192.018 288.426 192.103 288.845 192.273 289.189C192.447 289.53 192.687 289.79 192.994 289.969C193.3 290.145 193.657 290.233 194.063 290.233C194.327 290.233 194.566 290.196 194.779 290.122C194.995 290.045 195.181 289.932 195.337 289.781C195.494 289.628 195.614 289.437 195.7 289.21L196.671 289.483C196.569 289.812 196.397 290.102 196.156 290.352C195.914 290.599 195.616 290.793 195.261 290.932C194.906 291.068 194.506 291.136 194.063 291.136Z" fill="black" fill-opacity="0.4"/>
<path d="M259.033 291L256.646 282.273H257.72L259.544 289.381H259.629L261.487 282.273H262.68L264.538 289.381H264.624L266.447 282.273H267.521L265.135 291H264.044L262.118 284.045H262.05L260.124 291H259.033ZM270.837 291.136C270.206 291.136 269.662 290.997 269.205 290.719C268.75 290.438 268.399 290.045 268.152 289.543C267.908 289.037 267.786 288.449 267.786 287.778C267.786 287.108 267.908 286.517 268.152 286.006C268.399 285.491 268.743 285.091 269.183 284.804C269.626 284.514 270.143 284.369 270.734 284.369C271.075 284.369 271.412 284.426 271.744 284.54C272.077 284.653 272.379 284.838 272.652 285.094C272.925 285.347 273.142 285.682 273.304 286.099C273.466 286.517 273.547 287.031 273.547 287.642V288.068H268.501V287.199H272.524C272.524 286.83 272.45 286.5 272.303 286.21C272.158 285.92 271.95 285.692 271.68 285.524C271.413 285.357 271.098 285.273 270.734 285.273C270.334 285.273 269.987 285.372 269.695 285.571C269.405 285.767 269.182 286.023 269.026 286.338C268.869 286.653 268.791 286.991 268.791 287.352V287.932C268.791 288.426 268.876 288.845 269.047 289.189C269.22 289.53 269.46 289.79 269.767 289.969C270.074 290.145 270.43 290.233 270.837 290.233C271.101 290.233 271.339 290.196 271.553 290.122C271.768 290.045 271.955 289.932 272.111 289.781C272.267 289.628 272.388 289.437 272.473 289.21L273.445 289.483C273.342 289.812 273.17 290.102 272.929 290.352C272.688 290.599 272.389 290.793 272.034 290.932C271.679 291.068 271.28 291.136 270.837 291.136ZM277.548 291.136C277.003 291.136 276.521 290.999 276.104 290.723C275.686 290.445 275.359 290.053 275.124 289.547C274.888 289.038 274.77 288.438 274.77 287.744C274.77 287.057 274.888 286.46 275.124 285.955C275.359 285.449 275.688 285.058 276.108 284.783C276.528 284.507 277.014 284.369 277.565 284.369C277.991 284.369 278.328 284.44 278.575 284.582C278.825 284.722 279.016 284.881 279.146 285.06C279.28 285.236 279.384 285.381 279.457 285.494H279.543V282.273H280.548V291H279.577V289.994H279.457C279.384 290.114 279.278 290.264 279.142 290.446C279.006 290.625 278.811 290.786 278.558 290.928C278.305 291.067 277.969 291.136 277.548 291.136ZM277.685 290.233C278.088 290.233 278.429 290.128 278.707 289.918C278.986 289.705 279.197 289.411 279.342 289.036C279.487 288.658 279.56 288.222 279.56 287.727C279.56 287.239 279.489 286.811 279.347 286.445C279.205 286.075 278.994 285.788 278.716 285.584C278.438 285.376 278.094 285.273 277.685 285.273C277.259 285.273 276.903 285.382 276.619 285.601C276.338 285.817 276.126 286.111 275.984 286.483C275.845 286.852 275.776 287.267 275.776 287.727C275.776 288.193 275.847 288.616 275.989 288.997C276.134 289.375 276.347 289.676 276.628 289.901C276.912 290.122 277.264 290.233 277.685 290.233Z" fill="black" fill-opacity="0.4"/>
<path d="M340.699 283.21V282.273H347.244V283.21H344.5V291H343.443V283.21H340.699ZM349.744 287.062V291H348.739V282.273H349.744V285.477H349.83C349.983 285.139 350.213 284.871 350.52 284.672C350.83 284.47 351.242 284.369 351.756 284.369C352.202 284.369 352.593 284.459 352.928 284.638C353.263 284.814 353.523 285.085 353.708 285.452C353.895 285.815 353.989 286.278 353.989 286.841V291H352.983V286.909C352.983 286.389 352.848 285.987 352.578 285.703C352.311 285.416 351.941 285.273 351.466 285.273C351.137 285.273 350.841 285.342 350.58 285.482C350.321 285.621 350.117 285.824 349.966 286.091C349.818 286.358 349.744 286.682 349.744 287.062ZM359.954 288.324V284.455H360.959V291H359.954V289.892H359.885C359.732 290.224 359.493 290.507 359.17 290.74C358.846 290.97 358.437 291.085 357.942 291.085C357.533 291.085 357.17 290.996 356.851 290.817C356.533 290.635 356.283 290.362 356.101 289.999C355.92 289.632 355.829 289.17 355.829 288.614V284.455H356.834V288.545C356.834 289.023 356.968 289.403 357.235 289.688C357.505 289.972 357.849 290.114 358.266 290.114C358.516 290.114 358.77 290.05 359.029 289.922C359.29 289.794 359.509 289.598 359.685 289.334C359.864 289.07 359.954 288.733 359.954 288.324Z" fill="black" fill-opacity="0.4"/>
<path d="M426.914 291V282.273H432.147V283.21H427.971V286.159H431.755V287.097H427.971V291H426.914ZM433.751 291V284.455H434.722V285.443H434.79C434.91 285.119 435.126 284.857 435.438 284.655C435.751 284.453 436.103 284.352 436.495 284.352C436.569 284.352 436.661 284.354 436.772 284.357C436.883 284.359 436.966 284.364 437.023 284.369V285.392C436.989 285.384 436.911 285.371 436.789 285.354C436.67 285.334 436.543 285.324 436.41 285.324C436.091 285.324 435.807 285.391 435.557 285.524C435.31 285.655 435.114 285.837 434.969 286.07C434.827 286.3 434.756 286.562 434.756 286.858V291H433.751ZM438.215 291V284.455H439.221V291H438.215ZM438.727 283.364C438.531 283.364 438.362 283.297 438.22 283.163C438.08 283.03 438.011 282.869 438.011 282.682C438.011 282.494 438.08 282.334 438.22 282.2C438.362 282.067 438.531 282 438.727 282C438.923 282 439.09 282.067 439.23 282.2C439.372 282.334 439.443 282.494 439.443 282.682C439.443 282.869 439.372 283.03 439.23 283.163C439.09 283.297 438.923 283.364 438.727 283.364Z" fill="black" fill-opacity="0.4"/>
<path d="M511.443 284.455C511.392 284.023 511.184 283.688 510.821 283.449C510.457 283.21 510.011 283.091 509.483 283.091C509.096 283.091 508.758 283.153 508.468 283.278C508.181 283.403 507.957 283.575 507.795 283.794C507.636 284.013 507.556 284.261 507.556 284.54C507.556 284.773 507.612 284.973 507.723 285.141C507.836 285.305 507.981 285.443 508.157 285.554C508.333 285.662 508.518 285.751 508.711 285.822C508.904 285.891 509.082 285.946 509.244 285.989L510.13 286.227C510.358 286.287 510.61 286.369 510.889 286.474C511.17 286.58 511.439 286.723 511.694 286.905C511.953 287.084 512.166 287.314 512.333 287.595C512.501 287.876 512.585 288.222 512.585 288.631C512.585 289.102 512.461 289.528 512.214 289.909C511.97 290.29 511.612 290.592 511.14 290.817C510.672 291.041 510.102 291.153 509.431 291.153C508.806 291.153 508.265 291.053 507.808 290.851C507.353 290.649 506.995 290.368 506.734 290.007C506.475 289.646 506.329 289.227 506.295 288.75H507.386C507.414 289.08 507.525 289.352 507.718 289.568C507.914 289.781 508.162 289.94 508.46 290.045C508.761 290.148 509.085 290.199 509.431 290.199C509.835 290.199 510.197 290.134 510.518 290.003C510.839 289.869 511.093 289.685 511.281 289.449C511.468 289.21 511.562 288.932 511.562 288.614C511.562 288.324 511.481 288.088 511.319 287.906C511.157 287.724 510.944 287.577 510.68 287.463C510.416 287.349 510.13 287.25 509.824 287.165L508.75 286.858C508.068 286.662 507.528 286.382 507.13 286.018C506.733 285.655 506.534 285.179 506.534 284.591C506.534 284.102 506.666 283.676 506.93 283.312C507.197 282.946 507.555 282.662 508.004 282.46C508.456 282.256 508.96 282.153 509.517 282.153C510.079 282.153 510.579 282.254 511.017 282.456C511.454 282.655 511.801 282.928 512.056 283.274C512.315 283.621 512.451 284.014 512.466 284.455H511.443ZM516.112 291.153C515.697 291.153 515.321 291.075 514.983 290.919C514.645 290.76 514.376 290.531 514.178 290.233C513.979 289.932 513.879 289.568 513.879 289.142C513.879 288.767 513.953 288.463 514.101 288.23C514.249 287.994 514.446 287.81 514.693 287.676C514.94 287.543 515.213 287.443 515.511 287.378C515.813 287.31 516.115 287.256 516.419 287.216C516.817 287.165 517.139 287.126 517.386 287.101C517.636 287.072 517.818 287.026 517.932 286.96C518.048 286.895 518.107 286.781 518.107 286.619V286.585C518.107 286.165 517.991 285.838 517.761 285.605C517.534 285.372 517.189 285.256 516.726 285.256C516.246 285.256 515.869 285.361 515.597 285.571C515.324 285.781 515.132 286.006 515.021 286.244L514.067 285.903C514.237 285.506 514.464 285.196 514.749 284.974C515.036 284.75 515.348 284.594 515.686 284.506C516.027 284.415 516.362 284.369 516.692 284.369C516.902 284.369 517.143 284.395 517.416 284.446C517.692 284.494 517.957 284.595 518.213 284.749C518.472 284.902 518.686 285.134 518.857 285.443C519.027 285.753 519.112 286.168 519.112 286.688V291H518.107V290.114H518.055C517.987 290.256 517.874 290.408 517.714 290.57C517.555 290.732 517.344 290.869 517.08 290.983C516.815 291.097 516.493 291.153 516.112 291.153ZM516.266 290.25C516.663 290.25 516.999 290.172 517.271 290.016C517.547 289.859 517.754 289.658 517.893 289.411C518.036 289.163 518.107 288.903 518.107 288.631V287.71C518.064 287.761 517.97 287.808 517.825 287.851C517.683 287.891 517.518 287.926 517.331 287.957C517.146 287.986 516.966 288.011 516.79 288.034C516.616 288.054 516.476 288.071 516.368 288.085C516.107 288.119 515.862 288.175 515.635 288.251C515.411 288.325 515.229 288.437 515.089 288.588C514.953 288.736 514.885 288.937 514.885 289.193C514.885 289.543 515.014 289.807 515.273 289.986C515.534 290.162 515.865 290.25 516.266 290.25ZM523.794 284.455V285.307H520.402V284.455H523.794ZM521.391 282.886H522.397V289.125C522.397 289.409 522.438 289.622 522.52 289.764C522.605 289.903 522.713 289.997 522.844 290.045C522.978 290.091 523.118 290.114 523.266 290.114C523.377 290.114 523.468 290.108 523.539 290.097C523.61 290.082 523.667 290.071 523.709 290.062L523.914 290.966C523.846 290.991 523.75 291.017 523.628 291.043C523.506 291.071 523.351 291.085 523.164 291.085C522.88 291.085 522.601 291.024 522.328 290.902C522.059 290.78 521.834 290.594 521.655 290.344C521.479 290.094 521.391 289.778 521.391 289.398V282.886Z" fill="black" fill-opacity="0.4"/>
<path d="M592.007 284.455C591.956 284.023 591.749 283.688 591.385 283.449C591.021 283.21 590.575 283.091 590.047 283.091C589.661 283.091 589.323 283.153 589.033 283.278C588.746 283.403 588.521 283.575 588.36 283.794C588.2 284.013 588.121 284.261 588.121 284.54C588.121 284.773 588.176 284.973 588.287 285.141C588.401 285.305 588.546 285.443 588.722 285.554C588.898 285.662 589.083 285.751 589.276 285.822C589.469 285.891 589.646 285.946 589.808 285.989L590.695 286.227C590.922 286.287 591.175 286.369 591.453 286.474C591.735 286.58 592.003 286.723 592.259 286.905C592.517 287.084 592.73 287.314 592.898 287.595C593.066 287.876 593.149 288.222 593.149 288.631C593.149 289.102 593.026 289.528 592.779 289.909C592.534 290.29 592.176 290.592 591.705 290.817C591.236 291.041 590.666 291.153 589.996 291.153C589.371 291.153 588.83 291.053 588.372 290.851C587.918 290.649 587.56 290.368 587.298 290.007C587.04 289.646 586.894 289.227 586.86 288.75H587.95C587.979 289.08 588.09 289.352 588.283 289.568C588.479 289.781 588.726 289.94 589.024 290.045C589.325 290.148 589.649 290.199 589.996 290.199C590.399 290.199 590.762 290.134 591.083 290.003C591.404 289.869 591.658 289.685 591.845 289.449C592.033 289.21 592.127 288.932 592.127 288.614C592.127 288.324 592.046 288.088 591.884 287.906C591.722 287.724 591.509 287.577 591.244 287.463C590.98 287.349 590.695 287.25 590.388 287.165L589.314 286.858C588.632 286.662 588.093 286.382 587.695 286.018C587.297 285.655 587.098 285.179 587.098 284.591C587.098 284.102 587.23 283.676 587.494 283.312C587.762 282.946 588.119 282.662 588.568 282.46C589.02 282.256 589.524 282.153 590.081 282.153C590.644 282.153 591.144 282.254 591.581 282.456C592.019 282.655 592.365 282.928 592.621 283.274C592.879 283.621 593.016 284.014 593.03 284.455H592.007ZM598.876 288.324V284.455H599.881V291H598.876V289.892H598.807C598.654 290.224 598.415 290.507 598.091 290.74C597.768 290.97 597.358 291.085 596.864 291.085C596.455 291.085 596.091 290.996 595.773 290.817C595.455 290.635 595.205 290.362 595.023 289.999C594.841 289.632 594.751 289.17 594.751 288.614V284.455H595.756V288.545C595.756 289.023 595.89 289.403 596.157 289.688C596.427 289.972 596.77 290.114 597.188 290.114C597.438 290.114 597.692 290.05 597.951 289.922C598.212 289.794 598.431 289.598 598.607 289.334C598.786 289.07 598.876 288.733 598.876 288.324ZM602.729 287.062V291H601.723V284.455H602.695V285.477H602.78C602.933 285.145 603.166 284.878 603.479 284.676C603.791 284.472 604.195 284.369 604.689 284.369C605.132 284.369 605.52 284.46 605.852 284.642C606.185 284.821 606.443 285.094 606.628 285.46C606.813 285.824 606.905 286.284 606.905 286.841V291H605.899V286.909C605.899 286.395 605.766 285.994 605.499 285.707C605.232 285.418 604.865 285.273 604.399 285.273C604.078 285.273 603.791 285.342 603.539 285.482C603.289 285.621 603.091 285.824 602.946 286.091C602.801 286.358 602.729 286.682 602.729 287.062Z" fill="black" fill-opacity="0.4"/>
<path d="M89 217C97.7319 210.386 117.651 197.323 127.475 197.984C139.754 198.811 150.396 208.732 164.312 208.732C178.229 208.732 190 183.102 206.88 189.717C243.198 203.947 234.713 181.449 267.457 189.717C293.653 196.331 318.211 188.063 327.216 183.102C337.585 178.693 366.018 170.37 396.798 172.354C435.273 174.835 466.38 172.354 482.752 156.646C488.094 151.521 512.222 133.496 541.692 140.11C571.162 146.724 603.088 115.307 608 112" stroke="#1C1C1C" stroke-width="3" stroke-linecap="round" stroke-linejoin="round"/>
<path d="M79 205.908C86 197.741 107 182.008 135 184.408C170 187.408 181.861 202.766 190.5 205.908C221 217 216 205.908 246.5 176.408C290.577 133.776 300 176.408 324.5 176.408C341.5 176.408 347.235 143.429 396.5 155.408C419.5 161 440 160.408 450.5 147.408C461 134.408 493.5 124.408 516 130.408C538.5 136.408 555.104 130.855 560.5 127.408C578.5 115.908 592 124.908 609 134.408" stroke="#A8C5DA" stroke-width="3" stroke-linecap="round" stroke-linejoin="round"/>
<g filter="url(#filter0_d_3587_1635)">
<circle cx="3" cy="3" r="4.5" transform="matrix(-1 0 0 1 435 154)" fill="#A8C5DA" stroke="white" stroke-width="3"/>
</g>
<rect x="385" y="119" width="95" height="28" rx="8" fill="black" fill-opacity="0.8"/>
<path d="M394.399 137V128.273H399.632V129.21H395.455V132.159H399.24V133.097H395.455V137H394.399ZM401.235 137V130.455H402.206V131.443H402.275C402.394 131.119 402.61 130.857 402.922 130.655C403.235 130.453 403.587 130.352 403.979 130.352C404.053 130.352 404.145 130.354 404.256 130.357C404.367 130.359 404.451 130.364 404.508 130.369V131.392C404.474 131.384 404.395 131.371 404.273 131.354C404.154 131.334 404.028 131.324 403.894 131.324C403.576 131.324 403.292 131.391 403.042 131.524C402.795 131.655 402.599 131.837 402.454 132.07C402.312 132.3 402.241 132.562 402.241 132.858V137H401.235ZM405.7 137V130.455H406.705V137H405.7ZM406.211 129.364C406.015 129.364 405.846 129.297 405.704 129.163C405.565 129.03 405.495 128.869 405.495 128.682C405.495 128.494 405.565 128.334 405.704 128.2C405.846 128.067 406.015 128 406.211 128C406.407 128 406.575 128.067 406.714 128.2C406.856 128.334 406.927 128.494 406.927 128.682C406.927 128.869 406.856 129.03 406.714 129.163C406.575 129.297 406.407 129.364 406.211 129.364ZM409.28 137.068C409.07 137.068 408.89 136.993 408.739 136.842C408.589 136.692 408.513 136.511 408.513 136.301C408.513 136.091 408.589 135.911 408.739 135.76C408.89 135.609 409.07 135.534 409.28 135.534C409.491 135.534 409.671 135.609 409.822 135.76C409.972 135.911 410.047 136.091 410.047 136.301C410.047 136.44 410.012 136.568 409.941 136.685C409.873 136.801 409.78 136.895 409.664 136.966C409.55 137.034 409.422 137.068 409.28 137.068ZM409.28 132.21C409.07 132.21 408.89 132.135 408.739 131.984C408.589 131.834 408.513 131.653 408.513 131.443C408.513 131.233 408.589 131.053 408.739 130.902C408.89 130.751 409.07 130.676 409.28 130.676C409.491 130.676 409.671 130.751 409.822 130.902C409.972 131.053 410.047 131.233 410.047 131.443C410.047 131.582 410.012 131.71 409.941 131.827C409.873 131.943 409.78 132.037 409.664 132.108C409.55 132.176 409.422 132.21 409.28 132.21ZM417.937 137.119C417.437 137.119 416.987 137.02 416.586 136.821C416.186 136.622 415.865 136.349 415.623 136.003C415.382 135.656 415.25 135.261 415.227 134.818H416.25C416.29 135.213 416.469 135.54 416.787 135.798C417.108 136.054 417.491 136.182 417.937 136.182C418.295 136.182 418.613 136.098 418.892 135.93C419.173 135.763 419.393 135.533 419.552 135.24C419.714 134.945 419.795 134.611 419.795 134.239C419.795 133.858 419.711 133.518 419.544 133.22C419.379 132.919 419.152 132.682 418.862 132.509C418.572 132.335 418.241 132.247 417.869 132.244C417.602 132.241 417.328 132.283 417.047 132.368C416.765 132.45 416.534 132.557 416.352 132.688L415.363 132.568L415.892 128.273H420.426V129.21H416.778L416.471 131.784H416.523C416.702 131.642 416.926 131.524 417.196 131.43C417.466 131.337 417.747 131.29 418.04 131.29C418.574 131.29 419.05 131.418 419.467 131.673C419.888 131.926 420.217 132.273 420.456 132.713C420.697 133.153 420.818 133.656 420.818 134.222C420.818 134.778 420.693 135.276 420.443 135.713C420.196 136.148 419.855 136.491 419.42 136.744C418.986 136.994 418.491 137.119 417.937 137.119ZM423.7 135.807L423.632 136.267C423.583 136.591 423.509 136.938 423.41 137.307C423.313 137.676 423.213 138.024 423.107 138.351C423.002 138.678 422.916 138.938 422.847 139.131H422.08C422.117 138.949 422.166 138.709 422.225 138.411C422.285 138.112 422.345 137.778 422.404 137.409C422.467 137.043 422.518 136.668 422.558 136.284L422.609 135.807H423.7ZM425.546 137V136.233L428.427 133.08C428.765 132.71 429.043 132.389 429.262 132.116C429.481 131.841 429.643 131.582 429.748 131.341C429.856 131.097 429.91 130.841 429.91 130.574C429.91 130.267 429.836 130.001 429.688 129.777C429.543 129.553 429.344 129.379 429.091 129.257C428.839 129.135 428.555 129.074 428.239 129.074C427.904 129.074 427.611 129.143 427.361 129.283C427.114 129.419 426.922 129.611 426.786 129.858C426.653 130.105 426.586 130.395 426.586 130.727H425.58C425.58 130.216 425.698 129.767 425.934 129.381C426.17 128.994 426.491 128.693 426.897 128.477C427.306 128.261 427.765 128.153 428.273 128.153C428.785 128.153 429.238 128.261 429.633 128.477C430.028 128.693 430.337 128.984 430.562 129.351C430.786 129.717 430.898 130.125 430.898 130.574C430.898 130.895 430.84 131.209 430.724 131.516C430.61 131.82 430.411 132.159 430.127 132.534C429.846 132.906 429.455 133.361 428.955 133.898L426.995 135.994V136.062H431.052V137H425.546ZM435.539 137.119C435.039 137.119 434.589 137.02 434.188 136.821C433.787 136.622 433.466 136.349 433.225 136.003C432.983 135.656 432.851 135.261 432.829 134.818H433.851C433.891 135.213 434.07 135.54 434.388 135.798C434.709 136.054 435.093 136.182 435.539 136.182C435.897 136.182 436.215 136.098 436.493 135.93C436.775 135.763 436.995 135.533 437.154 135.24C437.316 134.945 437.397 134.611 437.397 134.239C437.397 133.858 437.313 133.518 437.145 133.22C436.981 132.919 436.753 132.682 436.464 132.509C436.174 132.335 435.843 132.247 435.471 132.244C435.204 132.241 434.93 132.283 434.648 132.368C434.367 132.45 434.135 132.557 433.954 132.688L432.965 132.568L433.493 128.273H438.028V129.21H434.38L434.073 131.784H434.124C434.303 131.642 434.528 131.524 434.797 131.43C435.067 131.337 435.349 131.29 435.641 131.29C436.175 131.29 436.651 131.418 437.069 131.673C437.489 131.926 437.819 132.273 438.057 132.713C438.299 133.153 438.42 133.656 438.42 134.222C438.42 134.778 438.295 135.276 438.045 135.713C437.797 136.148 437.456 136.491 437.022 136.744C436.587 136.994 436.093 137.119 435.539 137.119ZM443.01 137.119C442.652 137.114 442.294 137.045 441.936 136.915C441.578 136.784 441.252 136.564 440.956 136.254C440.661 135.942 440.423 135.52 440.244 134.989C440.066 134.455 439.976 133.784 439.976 132.977C439.976 132.205 440.048 131.52 440.193 130.923C440.338 130.324 440.548 129.82 440.824 129.411C441.1 128.999 441.432 128.686 441.821 128.473C442.213 128.26 442.655 128.153 443.146 128.153C443.635 128.153 444.07 128.251 444.45 128.447C444.834 128.641 445.146 128.911 445.388 129.257C445.629 129.604 445.786 130.003 445.857 130.455H444.817C444.72 130.062 444.533 129.737 444.254 129.479C443.976 129.22 443.607 129.091 443.146 129.091C442.47 129.091 441.938 129.385 441.548 129.973C441.162 130.561 440.968 131.386 440.965 132.449H441.033C441.192 132.207 441.381 132.001 441.6 131.831C441.821 131.658 442.066 131.524 442.333 131.43C442.6 131.337 442.882 131.29 443.181 131.29C443.681 131.29 444.138 131.415 444.553 131.665C444.968 131.912 445.3 132.254 445.55 132.692C445.8 133.126 445.925 133.625 445.925 134.188C445.925 134.727 445.804 135.222 445.563 135.67C445.321 136.116 444.982 136.472 444.544 136.736C444.11 136.997 443.598 137.125 443.01 137.119ZM443.01 136.182C443.368 136.182 443.689 136.092 443.973 135.913C444.26 135.734 444.486 135.494 444.651 135.193C444.818 134.892 444.902 134.557 444.902 134.188C444.902 133.827 444.821 133.499 444.659 133.203C444.5 132.905 444.28 132.668 443.999 132.491C443.72 132.315 443.402 132.227 443.044 132.227C442.774 132.227 442.523 132.281 442.29 132.389C442.057 132.494 441.852 132.639 441.676 132.824C441.503 133.009 441.367 133.22 441.267 133.459C441.168 133.695 441.118 133.943 441.118 134.205C441.118 134.551 441.199 134.875 441.361 135.176C441.526 135.477 441.75 135.72 442.034 135.905C442.321 136.089 442.646 136.182 443.01 136.182ZM448.708 135.807L448.639 136.267C448.591 136.591 448.517 136.938 448.418 137.307C448.321 137.676 448.22 138.024 448.115 138.351C448.01 138.678 447.923 138.938 447.855 139.131H447.088C447.125 138.949 447.173 138.709 447.233 138.411C447.293 138.112 447.352 137.778 447.412 137.409C447.475 137.043 447.526 136.668 447.566 136.284L447.617 135.807H448.708ZM453.105 137.119C452.605 137.119 452.155 137.02 451.754 136.821C451.354 136.622 451.033 136.349 450.791 136.003C450.55 135.656 450.418 135.261 450.395 134.818H451.418C451.458 135.213 451.637 135.54 451.955 135.798C452.276 136.054 452.659 136.182 453.105 136.182C453.463 136.182 453.781 136.098 454.06 135.93C454.341 135.763 454.561 135.533 454.72 135.24C454.882 134.945 454.963 134.611 454.963 134.239C454.963 133.858 454.879 133.518 454.712 133.22C454.547 132.919 454.32 132.682 454.03 132.509C453.74 132.335 453.409 132.247 453.037 132.244C452.77 132.241 452.496 132.283 452.215 132.368C451.933 132.45 451.702 132.557 451.52 132.688L450.531 132.568L451.06 128.273H455.594V129.21H451.946L451.639 131.784H451.691C451.869 131.642 452.094 131.524 452.364 131.43C452.634 131.337 452.915 131.29 453.208 131.29C453.742 131.29 454.218 131.418 454.635 131.673C455.056 131.926 455.385 132.273 455.624 132.713C455.865 133.153 455.986 133.656 455.986 134.222C455.986 134.778 455.861 135.276 455.611 135.713C455.364 136.148 455.023 136.491 454.588 136.744C454.154 136.994 453.659 137.119 453.105 137.119ZM460.457 128.153C460.815 128.156 461.173 128.224 461.531 128.358C461.889 128.491 462.216 128.713 462.511 129.023C462.807 129.33 463.044 129.749 463.223 130.28C463.402 130.811 463.491 131.477 463.491 132.278C463.491 133.054 463.417 133.743 463.27 134.345C463.125 134.945 462.915 135.45 462.639 135.862C462.366 136.274 462.034 136.587 461.642 136.8C461.253 137.013 460.812 137.119 460.321 137.119C459.832 137.119 459.396 137.023 459.013 136.83C458.632 136.634 458.319 136.362 458.075 136.016C457.834 135.666 457.679 135.261 457.611 134.801H458.65C458.744 135.202 458.93 135.533 459.209 135.794C459.49 136.053 459.861 136.182 460.321 136.182C460.994 136.182 461.525 135.888 461.915 135.3C462.307 134.712 462.503 133.881 462.503 132.807H462.434C462.275 133.045 462.086 133.251 461.868 133.425C461.649 133.598 461.406 133.732 461.139 133.825C460.872 133.919 460.588 133.966 460.287 133.966C459.787 133.966 459.328 133.842 458.91 133.595C458.496 133.345 458.163 133.003 457.913 132.568C457.666 132.131 457.542 131.631 457.542 131.068C457.542 130.534 457.662 130.045 457.9 129.602C458.142 129.156 458.48 128.801 458.915 128.537C459.352 128.273 459.866 128.145 460.457 128.153ZM460.457 129.091C460.099 129.091 459.777 129.18 459.49 129.359C459.206 129.536 458.98 129.774 458.812 130.075C458.648 130.374 458.565 130.705 458.565 131.068C458.565 131.432 458.645 131.763 458.804 132.061C458.966 132.357 459.186 132.592 459.464 132.768C459.746 132.942 460.065 133.028 460.423 133.028C460.693 133.028 460.944 132.976 461.177 132.871C461.41 132.763 461.613 132.616 461.787 132.432C461.963 132.244 462.101 132.033 462.2 131.797C462.3 131.558 462.349 131.31 462.349 131.051C462.349 130.71 462.267 130.391 462.102 130.092C461.94 129.794 461.716 129.553 461.429 129.368C461.145 129.183 460.821 129.091 460.457 129.091ZM467.963 137.119C467.377 137.119 466.86 137.016 466.411 136.808C465.965 136.598 465.617 136.31 465.367 135.943C465.117 135.574 464.994 135.153 464.997 134.682C464.994 134.312 465.066 133.972 465.214 133.659C465.362 133.344 465.563 133.081 465.819 132.871C466.078 132.658 466.366 132.523 466.684 132.466V132.415C466.267 132.307 465.934 132.072 465.687 131.712C465.44 131.348 465.318 130.935 465.32 130.472C465.318 130.028 465.43 129.632 465.657 129.283C465.884 128.933 466.197 128.658 466.595 128.456C466.995 128.254 467.451 128.153 467.963 128.153C468.468 128.153 468.92 128.254 469.318 128.456C469.715 128.658 470.028 128.933 470.255 129.283C470.485 129.632 470.602 130.028 470.605 130.472C470.602 130.935 470.475 131.348 470.225 131.712C469.978 132.072 469.65 132.307 469.241 132.415V132.466C469.556 132.523 469.84 132.658 470.093 132.871C470.346 133.081 470.548 133.344 470.698 133.659C470.849 133.972 470.926 134.312 470.928 134.682C470.926 135.153 470.798 135.574 470.545 135.943C470.295 136.31 469.947 136.598 469.501 136.808C469.058 137.016 468.545 137.119 467.963 137.119ZM467.963 136.182C468.357 136.182 468.698 136.118 468.985 135.99C469.272 135.862 469.494 135.682 469.65 135.449C469.806 135.216 469.886 134.943 469.889 134.631C469.886 134.301 469.801 134.01 469.633 133.757C469.465 133.504 469.237 133.305 468.947 133.161C468.66 133.016 468.332 132.943 467.963 132.943C467.59 132.943 467.258 133.016 466.965 133.161C466.676 133.305 466.447 133.504 466.279 133.757C466.115 134.01 466.034 134.301 466.036 134.631C466.034 134.943 466.109 135.216 466.262 135.449C466.419 135.682 466.642 135.862 466.931 135.99C467.221 136.118 467.565 136.182 467.963 136.182ZM467.963 132.04C468.275 132.04 468.552 131.977 468.794 131.852C469.038 131.727 469.23 131.553 469.369 131.328C469.508 131.104 469.579 130.841 469.582 130.54C469.579 130.244 469.509 129.987 469.373 129.768C469.237 129.547 469.048 129.376 468.806 129.257C468.565 129.135 468.284 129.074 467.963 129.074C467.636 129.074 467.35 129.135 467.106 129.257C466.862 129.376 466.673 129.547 466.539 129.768C466.406 129.987 466.34 130.244 466.343 130.54C466.34 130.841 466.407 131.104 466.544 131.328C466.683 131.553 466.874 131.727 467.119 131.852C467.363 131.977 467.644 132.04 467.963 132.04Z" fill="white"/>
<defs>
<filter id="filter0_d_3587_1635" x="424" y="151" width="16" height="16" filterUnits="userSpaceOnUse" color-interpolation-filters="sRGB">
<feFlood flood-opacity="0" result="BackgroundImageFix"/>
<feColorMatrix in="SourceAlpha" type="matrix" values="0 0 0 0 0 0 0 0 0 0 0 0 0 0 0 0 0 0 127 0" result="hardAlpha"/>
<feOffset dy="2"/>
<feGaussianBlur stdDeviation="1"/>
<feComposite in2="hardAlpha" operator="out"/>
<feColorMatrix type="matrix" values="0 0 0 0 0 0 0 0 0 0 0 0 0 0 0 0 0 0 0.1 0"/>
<feBlend mode="normal" in2="BackgroundImageFix" result="effect1_dropShadow_3587_1635"/>
<feBlend mode="normal" in="SourceGraphic" in2="effect1_dropShadow_3587_1635" result="shape"/>
</filter>
</defs>
</svg>
