<svg width="614" height="236" viewBox="0 0 614 236" fill="none" xmlns="http://www.w3.org/2000/svg">
<path d="M4.4169 4.27273V13H3.36009V5.38068H3.30895L1.17827 6.79545V5.72159L3.36009 4.27273H4.4169ZM9.65412 13.1193C9.15412 13.1193 8.70384 13.0199 8.30327 12.821C7.9027 12.6222 7.58168 12.3494 7.3402 12.0028C7.09872 11.6562 6.96662 11.2614 6.94389 10.8182H7.96662C8.00639 11.2131 8.18537 11.5398 8.50355 11.7983C8.82457 12.054 9.2081 12.1818 9.65412 12.1818C10.0121 12.1818 10.3303 12.098 10.6087 11.9304C10.8899 11.7628 11.1101 11.5327 11.2692 11.2401C11.4311 10.9446 11.5121 10.6108 11.5121 10.2386C11.5121 9.85795 11.4283 9.51847 11.2607 9.22017C11.0959 8.91903 10.8686 8.68182 10.5788 8.50852C10.2891 8.33523 9.9581 8.24716 9.58594 8.24432C9.31889 8.24148 9.04474 8.28267 8.76349 8.3679C8.48224 8.45028 8.25071 8.55682 8.06889 8.6875L7.08026 8.56818L7.60866 4.27273H12.1428V5.21023H8.49503L8.18821 7.78409H8.23935C8.41832 7.64205 8.64276 7.52415 8.91264 7.4304C9.18253 7.33665 9.46378 7.28977 9.75639 7.28977C10.2905 7.28977 10.7663 7.41761 11.1839 7.6733C11.6044 7.92614 11.9339 8.27273 12.1726 8.71307C12.4141 9.15341 12.5348 9.65625 12.5348 10.2216C12.5348 10.7784 12.4098 11.2756 12.1598 11.7131C11.9126 12.1477 11.5717 12.4915 11.1371 12.7443C10.7024 12.9943 10.2081 13.1193 9.65412 13.1193ZM14.381 4.27273H15.6424L18.6083 11.517H18.7106L21.6765 4.27273H22.9379V13H21.9492V6.36932H21.864L19.1367 13H18.1822L15.4549 6.36932H15.3697V13H14.381V4.27273Z" fill="black" fill-opacity="0.4"/>
<path d="M4.21768 51.2727V60H3.16087V52.3807H3.10973L0.979048 53.7955V52.7216L3.16087 51.2727H4.21768ZM9.57422 60.1193C8.93217 60.1193 8.3853 59.9446 7.93359 59.5952C7.48189 59.2429 7.13672 58.733 6.89808 58.0653C6.65945 57.3949 6.54013 56.5852 6.54013 55.6364C6.54013 54.6932 6.65945 53.8878 6.89808 53.2202C7.13956 52.5497 7.48615 52.0384 7.93786 51.6861C8.3924 51.331 8.93786 51.1534 9.57422 51.1534C10.2106 51.1534 10.7546 51.331 11.2063 51.6861C11.6609 52.0384 12.0075 52.5497 12.2461 53.2202C12.4876 53.8878 12.6083 54.6932 12.6083 55.6364C12.6083 56.5852 12.489 57.3949 12.2504 58.0653C12.0117 58.733 11.6665 59.2429 11.2148 59.5952C10.7631 59.9446 10.2163 60.1193 9.57422 60.1193ZM9.57422 59.1818C10.2106 59.1818 10.7049 58.875 11.0572 58.2614C11.4094 57.6477 11.5856 56.7727 11.5856 55.6364C11.5856 54.8807 11.5046 54.2372 11.3427 53.706C11.1836 53.1747 10.9535 52.7699 10.6523 52.4915C10.354 52.2131 9.99467 52.0739 9.57422 52.0739C8.94354 52.0739 8.45064 52.3849 8.09553 53.0071C7.74041 53.6264 7.56286 54.5028 7.56286 55.6364C7.56286 56.392 7.6424 57.0341 7.80149 57.5625C7.96058 58.0909 8.18928 58.4929 8.48757 58.7685C8.78871 59.044 9.15092 59.1818 9.57422 59.1818ZM14.381 51.2727H15.6424L18.6083 58.517H18.7106L21.6765 51.2727H22.9379V60H21.9492V53.3693H21.864L19.1367 60H18.1822L15.4549 53.3693H15.3697V60H14.381V51.2727Z" fill="black" fill-opacity="0.4"/>
<path d="M9.65412 107.119C9.15412 107.119 8.70384 107.02 8.30327 106.821C7.9027 106.622 7.58168 106.349 7.3402 106.003C7.09872 105.656 6.96662 105.261 6.94389 104.818H7.96662C8.00639 105.213 8.18537 105.54 8.50355 105.798C8.82457 106.054 9.2081 106.182 9.65412 106.182C10.0121 106.182 10.3303 106.098 10.6087 105.93C10.8899 105.763 11.1101 105.533 11.2692 105.24C11.4311 104.945 11.5121 104.611 11.5121 104.239C11.5121 103.858 11.4283 103.518 11.2607 103.22C11.0959 102.919 10.8686 102.682 10.5788 102.509C10.2891 102.335 9.9581 102.247 9.58594 102.244C9.31889 102.241 9.04474 102.283 8.76349 102.368C8.48224 102.45 8.25071 102.557 8.06889 102.688L7.08026 102.568L7.60866 98.2727H12.1428V99.2102H8.49503L8.18821 101.784H8.23935C8.41832 101.642 8.64276 101.524 8.91264 101.43C9.18253 101.337 9.46378 101.29 9.75639 101.29C10.2905 101.29 10.7663 101.418 11.1839 101.673C11.6044 101.926 11.9339 102.273 12.1726 102.713C12.4141 103.153 12.5348 103.656 12.5348 104.222C12.5348 104.778 12.4098 105.276 12.1598 105.713C11.9126 106.148 11.5717 106.491 11.1371 106.744C10.7024 106.994 10.2081 107.119 9.65412 107.119ZM14.381 98.2727H15.6424L18.6083 105.517H18.7106L21.6765 98.2727H22.9379V107H21.9492V100.369H21.864L19.1367 107H18.1822L15.4549 100.369H15.3697V107H14.381V98.2727Z" fill="black" fill-opacity="0.4"/>
<path d="M11.7177 145.273V154H10.6609V146.381H10.6097L8.47905 147.795V146.722L10.6609 145.273H11.7177ZM14.381 145.273H15.6424L18.6083 152.517H18.7106L21.6765 145.273H22.9379V154H21.9492V147.369H21.864L19.1367 154H18.1822L15.4549 147.369H15.3697V154H14.381V145.273Z" fill="black" fill-opacity="0.4"/>
<path d="M20.25 201.119C19.608 201.119 19.0611 200.945 18.6094 200.595C18.1577 200.243 17.8125 199.733 17.5739 199.065C17.3352 198.395 17.2159 197.585 17.2159 196.636C17.2159 195.693 17.3352 194.888 17.5739 194.22C17.8153 193.55 18.1619 193.038 18.6136 192.686C19.0682 192.331 19.6136 192.153 20.25 192.153C20.8864 192.153 21.4304 192.331 21.8821 192.686C22.3366 193.038 22.6832 193.55 22.9219 194.22C23.1634 194.888 23.2841 195.693 23.2841 196.636C23.2841 197.585 23.1648 198.395 22.9261 199.065C22.6875 199.733 22.3423 200.243 21.8906 200.595C21.4389 200.945 20.892 201.119 20.25 201.119ZM20.25 200.182C20.8864 200.182 21.3807 199.875 21.733 199.261C22.0852 198.648 22.2614 197.773 22.2614 196.636C22.2614 195.881 22.1804 195.237 22.0185 194.706C21.8594 194.175 21.6293 193.77 21.3281 193.491C21.0298 193.213 20.6705 193.074 20.25 193.074C19.6193 193.074 19.1264 193.385 18.7713 194.007C18.4162 194.626 18.2386 195.503 18.2386 196.636C18.2386 197.392 18.3182 198.034 18.4773 198.562C18.6364 199.091 18.8651 199.493 19.1634 199.768C19.4645 200.044 19.8267 200.182 20.25 200.182Z" fill="black" fill-opacity="0.4"/>
<line x1="40.5" y1="15.5" x2="613.5" y2="15.5" stroke="black" stroke-opacity="0.05" stroke-linecap="round"/>
<line x1="40.5" y1="63" x2="613.5" y2="63" stroke="black" stroke-opacity="0.05" stroke-linecap="round"/>
<line x1="40.5" y1="110.5" x2="613.5" y2="110.5" stroke="black" stroke-opacity="0.05" stroke-linecap="round"/>
<line x1="40.5" y1="158" x2="613.5" y2="158" stroke="black" stroke-opacity="0.05" stroke-linecap="round"/>
<line x1="40.5" y1="205.5" x2="613.5" y2="205.5" stroke="black" stroke-opacity="0.2" stroke-linecap="round"/>
<path d="M69.6291 222.273H70.8904L73.8564 229.517H73.9586L76.9245 222.273H78.1859V231H77.1973V224.369H77.112L74.3848 231H73.4302L70.7029 224.369H70.6177V231H69.6291V222.273ZM82.8276 231.136C82.2367 231.136 81.7182 230.996 81.2722 230.714C80.829 230.433 80.4824 230.04 80.2324 229.534C79.9853 229.028 79.8617 228.437 79.8617 227.761C79.8617 227.08 79.9853 226.484 80.2324 225.976C80.4824 225.467 80.829 225.072 81.2722 224.791C81.7182 224.51 82.2367 224.369 82.8276 224.369C83.4185 224.369 83.9355 224.51 84.3787 224.791C84.8248 225.072 85.1713 225.467 85.4185 225.976C85.6685 226.484 85.7935 227.08 85.7935 227.761C85.7935 228.437 85.6685 229.028 85.4185 229.534C85.1713 230.04 84.8248 230.433 84.3787 230.714C83.9355 230.996 83.4185 231.136 82.8276 231.136ZM82.8276 230.233C83.2765 230.233 83.6458 230.118 83.9355 229.888C84.2253 229.658 84.4398 229.355 84.579 228.98C84.7182 228.605 84.7878 228.199 84.7878 227.761C84.7878 227.324 84.7182 226.916 84.579 226.538C84.4398 226.161 84.2253 225.855 83.9355 225.622C83.6458 225.389 83.2765 225.273 82.8276 225.273C82.3787 225.273 82.0094 225.389 81.7196 225.622C81.4299 225.855 81.2154 226.161 81.0762 226.538C80.937 226.916 80.8674 227.324 80.8674 227.761C80.8674 228.199 80.937 228.605 81.0762 228.98C81.2154 229.355 81.4299 229.658 81.7196 229.888C82.0094 230.118 82.3787 230.233 82.8276 230.233ZM88.3343 227.062V231H87.3287V224.455H88.3002V225.477H88.3855C88.5389 225.145 88.7718 224.878 89.0843 224.676C89.3968 224.472 89.8002 224.369 90.2946 224.369C90.7377 224.369 91.1255 224.46 91.4579 224.642C91.7903 224.821 92.0488 225.094 92.2335 225.46C92.4181 225.824 92.5105 226.284 92.5105 226.841V231H91.5048V226.909C91.5048 226.395 91.3713 225.994 91.1042 225.707C90.8372 225.418 90.4707 225.273 90.0048 225.273C89.6838 225.273 89.3968 225.342 89.144 225.482C88.894 225.621 88.6966 225.824 88.5517 226.091C88.4068 226.358 88.3343 226.682 88.3343 227.062Z" fill="black" fill-opacity="0.4"/>
<path d="M153.197 223.21V222.273H159.742V223.21H156.998V231H155.941V223.21H153.197ZM164.471 228.324V224.455H165.477V231H164.471V229.892H164.403C164.25 230.224 164.011 230.507 163.687 230.74C163.363 230.97 162.954 231.085 162.46 231.085C162.051 231.085 161.687 230.996 161.369 230.817C161.051 230.635 160.801 230.362 160.619 229.999C160.437 229.632 160.346 229.17 160.346 228.614V224.455H161.352V228.545C161.352 229.023 161.485 229.403 161.752 229.688C162.022 229.972 162.366 230.114 162.784 230.114C163.034 230.114 163.288 230.05 163.547 229.922C163.808 229.794 164.027 229.598 164.203 229.334C164.382 229.07 164.471 228.733 164.471 228.324ZM170.063 231.136C169.433 231.136 168.888 230.997 168.431 230.719C167.977 230.438 167.626 230.045 167.379 229.543C167.134 229.037 167.012 228.449 167.012 227.778C167.012 227.108 167.134 226.517 167.379 226.006C167.626 225.491 167.969 225.091 168.41 224.804C168.853 224.514 169.37 224.369 169.961 224.369C170.302 224.369 170.638 224.426 170.971 224.54C171.303 224.653 171.606 224.838 171.879 225.094C172.151 225.347 172.369 225.682 172.531 226.099C172.692 226.517 172.773 227.031 172.773 227.642V228.068H167.728V227.199H171.751C171.751 226.83 171.677 226.5 171.529 226.21C171.384 225.92 171.177 225.692 170.907 225.524C170.64 225.357 170.325 225.273 169.961 225.273C169.56 225.273 169.214 225.372 168.921 225.571C168.631 225.767 168.408 226.023 168.252 226.338C168.096 226.653 168.018 226.991 168.018 227.352V227.932C168.018 228.426 168.103 228.845 168.273 229.189C168.447 229.53 168.687 229.79 168.994 229.969C169.3 230.145 169.657 230.233 170.063 230.233C170.327 230.233 170.566 230.196 170.779 230.122C170.995 230.045 171.181 229.932 171.337 229.781C171.494 229.628 171.614 229.437 171.7 229.21L172.671 229.483C172.569 229.812 172.397 230.102 172.156 230.352C171.914 230.599 171.616 230.793 171.261 230.932C170.906 231.068 170.506 231.136 170.063 231.136Z" fill="black" fill-opacity="0.4"/>
<path d="M235.033 231L232.646 222.273H233.72L235.544 229.381H235.629L237.487 222.273H238.68L240.538 229.381H240.624L242.447 222.273H243.521L241.135 231H240.044L238.118 224.045H238.05L236.124 231H235.033ZM246.837 231.136C246.206 231.136 245.662 230.997 245.205 230.719C244.75 230.438 244.399 230.045 244.152 229.543C243.908 229.037 243.786 228.449 243.786 227.778C243.786 227.108 243.908 226.517 244.152 226.006C244.399 225.491 244.743 225.091 245.183 224.804C245.626 224.514 246.143 224.369 246.734 224.369C247.075 224.369 247.412 224.426 247.744 224.54C248.077 224.653 248.379 224.838 248.652 225.094C248.925 225.347 249.142 225.682 249.304 226.099C249.466 226.517 249.547 227.031 249.547 227.642V228.068H244.501V227.199H248.524C248.524 226.83 248.45 226.5 248.303 226.21C248.158 225.92 247.95 225.692 247.68 225.524C247.413 225.357 247.098 225.273 246.734 225.273C246.334 225.273 245.987 225.372 245.695 225.571C245.405 225.767 245.182 226.023 245.026 226.338C244.869 226.653 244.791 226.991 244.791 227.352V227.932C244.791 228.426 244.876 228.845 245.047 229.189C245.22 229.53 245.46 229.79 245.767 229.969C246.074 230.145 246.43 230.233 246.837 230.233C247.101 230.233 247.339 230.196 247.553 230.122C247.768 230.045 247.955 229.932 248.111 229.781C248.267 229.628 248.388 229.437 248.473 229.21L249.445 229.483C249.342 229.812 249.17 230.102 248.929 230.352C248.688 230.599 248.389 230.793 248.034 230.932C247.679 231.068 247.28 231.136 246.837 231.136ZM253.548 231.136C253.003 231.136 252.521 230.999 252.104 230.723C251.686 230.445 251.359 230.053 251.124 229.547C250.888 229.038 250.77 228.438 250.77 227.744C250.77 227.057 250.888 226.46 251.124 225.955C251.359 225.449 251.688 225.058 252.108 224.783C252.528 224.507 253.014 224.369 253.565 224.369C253.991 224.369 254.328 224.44 254.575 224.582C254.825 224.722 255.016 224.881 255.146 225.06C255.28 225.236 255.384 225.381 255.457 225.494H255.543V222.273H256.548V231H255.577V229.994H255.457C255.384 230.114 255.278 230.264 255.142 230.446C255.006 230.625 254.811 230.786 254.558 230.928C254.305 231.067 253.969 231.136 253.548 231.136ZM253.685 230.233C254.088 230.233 254.429 230.128 254.707 229.918C254.986 229.705 255.197 229.411 255.342 229.036C255.487 228.658 255.56 228.222 255.56 227.727C255.56 227.239 255.489 226.811 255.347 226.445C255.205 226.075 254.994 225.788 254.716 225.584C254.438 225.376 254.094 225.273 253.685 225.273C253.259 225.273 252.903 225.382 252.619 225.601C252.338 225.817 252.126 226.111 251.984 226.483C251.845 226.852 251.776 227.267 251.776 227.727C251.776 228.193 251.847 228.616 251.989 228.997C252.134 229.375 252.347 229.676 252.628 229.901C252.912 230.122 253.264 230.233 253.685 230.233Z" fill="black" fill-opacity="0.4"/>
<path d="M316.699 223.21V222.273H323.244V223.21H320.5V231H319.443V223.21H316.699ZM325.744 227.062V231H324.739V222.273H325.744V225.477H325.83C325.983 225.139 326.213 224.871 326.52 224.672C326.83 224.47 327.242 224.369 327.756 224.369C328.202 224.369 328.593 224.459 328.928 224.638C329.263 224.814 329.523 225.085 329.708 225.452C329.895 225.815 329.989 226.278 329.989 226.841V231H328.983V226.909C328.983 226.389 328.848 225.987 328.578 225.703C328.311 225.416 327.941 225.273 327.466 225.273C327.137 225.273 326.841 225.342 326.58 225.482C326.321 225.621 326.117 225.824 325.966 226.091C325.818 226.358 325.744 226.682 325.744 227.062ZM335.954 228.324V224.455H336.959V231H335.954V229.892H335.885C335.732 230.224 335.493 230.507 335.17 230.74C334.846 230.97 334.437 231.085 333.942 231.085C333.533 231.085 333.17 230.996 332.851 230.817C332.533 230.635 332.283 230.362 332.101 229.999C331.92 229.632 331.829 229.17 331.829 228.614V224.455H332.834V228.545C332.834 229.023 332.968 229.403 333.235 229.688C333.505 229.972 333.849 230.114 334.266 230.114C334.516 230.114 334.77 230.05 335.029 229.922C335.29 229.794 335.509 229.598 335.685 229.334C335.864 229.07 335.954 228.733 335.954 228.324Z" fill="black" fill-opacity="0.4"/>
<path d="M402.914 231V222.273H408.147V223.21H403.971V226.159H407.755V227.097H403.971V231H402.914ZM409.751 231V224.455H410.722V225.443H410.79C410.91 225.119 411.126 224.857 411.438 224.655C411.751 224.453 412.103 224.352 412.495 224.352C412.569 224.352 412.661 224.354 412.772 224.357C412.883 224.359 412.966 224.364 413.023 224.369V225.392C412.989 225.384 412.911 225.371 412.789 225.354C412.67 225.334 412.543 225.324 412.41 225.324C412.091 225.324 411.807 225.391 411.557 225.524C411.31 225.655 411.114 225.837 410.969 226.07C410.827 226.3 410.756 226.562 410.756 226.858V231H409.751ZM414.215 231V224.455H415.221V231H414.215ZM414.727 223.364C414.531 223.364 414.362 223.297 414.22 223.163C414.08 223.03 414.011 222.869 414.011 222.682C414.011 222.494 414.08 222.334 414.22 222.2C414.362 222.067 414.531 222 414.727 222C414.923 222 415.09 222.067 415.23 222.2C415.372 222.334 415.443 222.494 415.443 222.682C415.443 222.869 415.372 223.03 415.23 223.163C415.09 223.297 414.923 223.364 414.727 223.364Z" fill="black" fill-opacity="0.4"/>
<path d="M487.443 224.455C487.392 224.023 487.184 223.688 486.821 223.449C486.457 223.21 486.011 223.091 485.483 223.091C485.096 223.091 484.758 223.153 484.468 223.278C484.181 223.403 483.957 223.575 483.795 223.794C483.636 224.013 483.556 224.261 483.556 224.54C483.556 224.773 483.612 224.973 483.723 225.141C483.836 225.305 483.981 225.443 484.157 225.554C484.333 225.662 484.518 225.751 484.711 225.822C484.904 225.891 485.082 225.946 485.244 225.989L486.13 226.227C486.358 226.287 486.61 226.369 486.889 226.474C487.17 226.58 487.439 226.723 487.694 226.905C487.953 227.084 488.166 227.314 488.333 227.595C488.501 227.876 488.585 228.222 488.585 228.631C488.585 229.102 488.461 229.528 488.214 229.909C487.97 230.29 487.612 230.592 487.14 230.817C486.672 231.041 486.102 231.153 485.431 231.153C484.806 231.153 484.265 231.053 483.808 230.851C483.353 230.649 482.995 230.368 482.734 230.007C482.475 229.646 482.329 229.227 482.295 228.75H483.386C483.414 229.08 483.525 229.352 483.718 229.568C483.914 229.781 484.162 229.94 484.46 230.045C484.761 230.148 485.085 230.199 485.431 230.199C485.835 230.199 486.197 230.134 486.518 230.003C486.839 229.869 487.093 229.685 487.281 229.449C487.468 229.21 487.562 228.932 487.562 228.614C487.562 228.324 487.481 228.088 487.319 227.906C487.157 227.724 486.944 227.577 486.68 227.463C486.416 227.349 486.13 227.25 485.824 227.165L484.75 226.858C484.068 226.662 483.528 226.382 483.13 226.018C482.733 225.655 482.534 225.179 482.534 224.591C482.534 224.102 482.666 223.676 482.93 223.312C483.197 222.946 483.555 222.662 484.004 222.46C484.456 222.256 484.96 222.153 485.517 222.153C486.079 222.153 486.579 222.254 487.017 222.456C487.454 222.655 487.801 222.928 488.056 223.274C488.315 223.621 488.451 224.014 488.466 224.455H487.443ZM492.112 231.153C491.697 231.153 491.321 231.075 490.983 230.919C490.645 230.76 490.376 230.531 490.178 230.233C489.979 229.932 489.879 229.568 489.879 229.142C489.879 228.767 489.953 228.463 490.101 228.23C490.249 227.994 490.446 227.81 490.693 227.676C490.94 227.543 491.213 227.443 491.511 227.378C491.813 227.31 492.115 227.256 492.419 227.216C492.817 227.165 493.139 227.126 493.386 227.101C493.636 227.072 493.818 227.026 493.932 226.96C494.048 226.895 494.107 226.781 494.107 226.619V226.585C494.107 226.165 493.991 225.838 493.761 225.605C493.534 225.372 493.189 225.256 492.726 225.256C492.246 225.256 491.869 225.361 491.597 225.571C491.324 225.781 491.132 226.006 491.021 226.244L490.067 225.903C490.237 225.506 490.464 225.196 490.749 224.974C491.036 224.75 491.348 224.594 491.686 224.506C492.027 224.415 492.362 224.369 492.692 224.369C492.902 224.369 493.143 224.395 493.416 224.446C493.692 224.494 493.957 224.595 494.213 224.749C494.472 224.902 494.686 225.134 494.857 225.443C495.027 225.753 495.112 226.168 495.112 226.688V231H494.107V230.114H494.055C493.987 230.256 493.874 230.408 493.714 230.57C493.555 230.732 493.344 230.869 493.08 230.983C492.815 231.097 492.493 231.153 492.112 231.153ZM492.266 230.25C492.663 230.25 492.999 230.172 493.271 230.016C493.547 229.859 493.754 229.658 493.893 229.411C494.036 229.163 494.107 228.903 494.107 228.631V227.71C494.064 227.761 493.97 227.808 493.825 227.851C493.683 227.891 493.518 227.926 493.331 227.957C493.146 227.986 492.966 228.011 492.79 228.034C492.616 228.054 492.476 228.071 492.368 228.085C492.107 228.119 491.862 228.175 491.635 228.251C491.411 228.325 491.229 228.437 491.089 228.588C490.953 228.736 490.885 228.937 490.885 229.193C490.885 229.543 491.014 229.807 491.273 229.986C491.534 230.162 491.865 230.25 492.266 230.25ZM499.794 224.455V225.307H496.402V224.455H499.794ZM497.391 222.886H498.397V229.125C498.397 229.409 498.438 229.622 498.52 229.764C498.605 229.903 498.713 229.997 498.844 230.045C498.978 230.091 499.118 230.114 499.266 230.114C499.377 230.114 499.468 230.108 499.539 230.097C499.61 230.082 499.667 230.071 499.709 230.062L499.914 230.966C499.846 230.991 499.75 231.017 499.628 231.043C499.506 231.071 499.351 231.085 499.164 231.085C498.88 231.085 498.601 231.024 498.328 230.902C498.059 230.78 497.834 230.594 497.655 230.344C497.479 230.094 497.391 229.778 497.391 229.398V222.886Z" fill="black" fill-opacity="0.4"/>
<path d="M568.007 224.455C567.956 224.023 567.749 223.688 567.385 223.449C567.021 223.21 566.575 223.091 566.047 223.091C565.661 223.091 565.323 223.153 565.033 223.278C564.746 223.403 564.521 223.575 564.36 223.794C564.2 224.013 564.121 224.261 564.121 224.54C564.121 224.773 564.176 224.973 564.287 225.141C564.401 225.305 564.546 225.443 564.722 225.554C564.898 225.662 565.083 225.751 565.276 225.822C565.469 225.891 565.646 225.946 565.808 225.989L566.695 226.227C566.922 226.287 567.175 226.369 567.453 226.474C567.735 226.58 568.003 226.723 568.259 226.905C568.517 227.084 568.73 227.314 568.898 227.595C569.066 227.876 569.149 228.222 569.149 228.631C569.149 229.102 569.026 229.528 568.779 229.909C568.534 230.29 568.176 230.592 567.705 230.817C567.236 231.041 566.666 231.153 565.996 231.153C565.371 231.153 564.83 231.053 564.372 230.851C563.918 230.649 563.56 230.368 563.298 230.007C563.04 229.646 562.894 229.227 562.86 228.75H563.95C563.979 229.08 564.09 229.352 564.283 229.568C564.479 229.781 564.726 229.94 565.024 230.045C565.325 230.148 565.649 230.199 565.996 230.199C566.399 230.199 566.762 230.134 567.083 230.003C567.404 229.869 567.658 229.685 567.845 229.449C568.033 229.21 568.127 228.932 568.127 228.614C568.127 228.324 568.046 228.088 567.884 227.906C567.722 227.724 567.509 227.577 567.244 227.463C566.98 227.349 566.695 227.25 566.388 227.165L565.314 226.858C564.632 226.662 564.093 226.382 563.695 226.018C563.297 225.655 563.098 225.179 563.098 224.591C563.098 224.102 563.23 223.676 563.494 223.312C563.762 222.946 564.119 222.662 564.568 222.46C565.02 222.256 565.524 222.153 566.081 222.153C566.644 222.153 567.144 222.254 567.581 222.456C568.019 222.655 568.365 222.928 568.621 223.274C568.879 223.621 569.016 224.014 569.03 224.455H568.007ZM574.876 228.324V224.455H575.881V231H574.876V229.892H574.807C574.654 230.224 574.415 230.507 574.091 230.74C573.768 230.97 573.358 231.085 572.864 231.085C572.455 231.085 572.091 230.996 571.773 230.817C571.455 230.635 571.205 230.362 571.023 229.999C570.841 229.632 570.751 229.17 570.751 228.614V224.455H571.756V228.545C571.756 229.023 571.89 229.403 572.157 229.688C572.427 229.972 572.77 230.114 573.188 230.114C573.438 230.114 573.692 230.05 573.951 229.922C574.212 229.794 574.431 229.598 574.607 229.334C574.786 229.07 574.876 228.733 574.876 228.324ZM578.729 227.062V231H577.723V224.455H578.695V225.477H578.78C578.933 225.145 579.166 224.878 579.479 224.676C579.791 224.472 580.195 224.369 580.689 224.369C581.132 224.369 581.52 224.46 581.852 224.642C582.185 224.821 582.443 225.094 582.628 225.46C582.813 225.824 582.905 226.284 582.905 226.841V231H581.899V226.909C581.899 226.395 581.766 225.994 581.499 225.707C581.232 225.418 580.865 225.273 580.399 225.273C580.078 225.273 579.791 225.342 579.539 225.482C579.289 225.621 579.091 225.824 578.946 226.091C578.801 226.358 578.729 226.682 578.729 227.062Z" fill="black" fill-opacity="0.4"/>
</svg>
