<svg width="81" height="222" viewBox="0 0 81 222" fill="none" xmlns="http://www.w3.org/2000/svg">
<g id="Frame 427319004">
<path id="Rectangle 34624086" d="M0 0H78C79.6569 0 81 1.34315 81 3C81 4.65685 79.6569 6 78 6H0V0Z" fill="black" fill-opacity="0.1"/>
<path id="Rectangle 34624087" d="M0 36H43C44.6569 36 46 37.3431 46 39C46 40.6569 44.6569 42 43 42H0V36Z" fill="black" fill-opacity="0.1"/>
<path id="Rectangle 34624088" d="M0.5 72.5H57C58.3807 72.5 59.5 73.6193 59.5 75C59.5 76.3807 58.3807 77.5 57 77.5H0.5V72.5Z" fill="#1C1C1C" stroke="#1C1C1C"/>
<path id="Rectangle 34624089" d="M0 108H33C34.6569 108 36 109.343 36 111C36 112.657 34.6569 114 33 114H0V108Z" fill="black" fill-opacity="0.1"/>
<path id="Rectangle 34624090" d="M0 144H63C64.6569 144 66 145.343 66 147C66 148.657 64.6569 150 63 150H0V144Z" fill="black" fill-opacity="0.1"/>
<path id="Rectangle 34624091" d="M0 180H39C40.6569 180 42 181.343 42 183C42 184.657 40.6569 186 39 186H0V180Z" fill="black" fill-opacity="0.1"/>
<path id="Rectangle 34624092" d="M0 216H57C58.6569 216 60 217.343 60 219C60 220.657 58.6569 222 57 222H0V216Z" fill="black" fill-opacity="0.1"/>
</g>
</svg>
