<svg width="432" height="273" viewBox="0 0 432 273" fill="none" xmlns="http://www.w3.org/2000/svg">
<rect width="432" height="273" rx="16" fill="#F7F9FB"/>
<path d="M24.5568 30.3643V28.8182H32.6804V30.3643H29.5334V39H27.7038V30.3643H24.5568ZM33.3739 39V31.3636H35.119V32.6364H35.1985C35.3377 32.1955 35.5763 31.8558 35.9144 31.6172C36.2558 31.3752 36.6452 31.2543 37.0827 31.2543C37.1822 31.2543 37.2932 31.2592 37.4158 31.2692C37.5418 31.2758 37.6462 31.2874 37.729 31.304V32.9595C37.6528 32.933 37.5318 32.9098 37.3661 32.8899C37.2037 32.8667 37.0463 32.8551 36.8938 32.8551C36.5657 32.8551 36.2707 32.9264 36.0089 33.0689C35.7504 33.2081 35.5465 33.402 35.3974 33.6506C35.2482 33.8991 35.1737 34.1858 35.1737 34.5107V39H33.3739ZM40.9854 39.1541C40.5015 39.1541 40.0657 39.0679 39.6779 38.8956C39.2934 38.7199 38.9885 38.4614 38.7631 38.12C38.5411 37.7786 38.43 37.3577 38.43 36.8572C38.43 36.4264 38.5096 36.0701 38.6687 35.7884C38.8278 35.5066 39.0449 35.2812 39.32 35.1122C39.5951 34.9432 39.9049 34.8156 40.2496 34.7294C40.5977 34.6399 40.9573 34.5753 41.3285 34.5355C41.7759 34.4891 42.1388 34.4477 42.4173 34.4112C42.6957 34.3714 42.8978 34.3118 43.0238 34.2322C43.1531 34.1494 43.2177 34.0218 43.2177 33.8494V33.8196C43.2177 33.4451 43.1067 33.1551 42.8846 32.9496C42.6625 32.7441 42.3427 32.6413 41.9251 32.6413C41.4843 32.6413 41.1346 32.7375 40.8761 32.9297C40.6209 33.1219 40.4485 33.349 40.359 33.6108L38.6786 33.3722C38.8112 32.9081 39.0299 32.5204 39.3349 32.2088C39.6398 31.8939 40.0127 31.6586 40.4535 31.5028C40.8943 31.3438 41.3815 31.2642 41.9151 31.2642C42.283 31.2642 42.6493 31.3073 43.0138 31.3935C43.3784 31.4796 43.7115 31.6222 44.0131 31.821C44.3147 32.0166 44.5567 32.2834 44.739 32.6214C44.9246 32.9595 45.0174 33.3821 45.0174 33.8892V39H43.2873V37.951H43.2276C43.1183 38.1631 42.9641 38.362 42.7653 38.5476C42.5697 38.7299 42.3228 38.8774 42.0245 38.9901C41.7295 39.0994 41.3832 39.1541 40.9854 39.1541ZM41.4528 37.8317C41.814 37.8317 42.1272 37.7604 42.3924 37.6179C42.6576 37.4721 42.8614 37.2798 43.0039 37.0412C43.1497 36.8026 43.2227 36.5424 43.2227 36.2607V35.3608C43.1663 35.4072 43.0702 35.4503 42.9343 35.4901C42.8017 35.5298 42.6526 35.5646 42.4869 35.5945C42.3211 35.6243 42.1571 35.6508 41.9947 35.674C41.8323 35.6972 41.6914 35.7171 41.5721 35.7337C41.3036 35.7701 41.0633 35.8298 40.8512 35.9126C40.6391 35.9955 40.4717 36.1115 40.3491 36.2607C40.2264 36.4065 40.1651 36.5954 40.1651 36.8274C40.1651 37.1589 40.2861 37.4091 40.5281 37.5781C40.77 37.7472 41.0782 37.8317 41.4528 37.8317ZM50.695 31.3636V32.7557H46.1808V31.3636H50.695ZM47.3093 39V30.6428C47.3093 30.129 47.4154 29.7015 47.6275 29.3601C47.8429 29.0187 48.1313 28.7635 48.4925 28.5945C48.8538 28.4254 49.2549 28.3409 49.6957 28.3409C50.0072 28.3409 50.284 28.3658 50.5259 28.4155C50.7679 28.4652 50.9469 28.5099 51.0629 28.5497L50.7049 29.9418C50.6287 29.9186 50.5326 29.8954 50.4165 29.8722C50.3005 29.8456 50.1713 29.8324 50.0288 29.8324C49.694 29.8324 49.457 29.9136 49.3178 30.076C49.1819 30.2351 49.114 30.4638 49.114 30.7621V39H47.3093ZM55.9723 31.3636V32.7557H51.4581V31.3636H55.9723ZM52.5866 39V30.6428C52.5866 30.129 52.6927 29.7015 52.9048 29.3601C53.1203 29.0187 53.4086 28.7635 53.7699 28.5945C54.1312 28.4254 54.5322 28.3409 54.973 28.3409C55.2846 28.3409 55.5613 28.3658 55.8033 28.4155C56.0452 28.4652 56.2242 28.5099 56.3402 28.5497L55.9822 29.9418C55.906 29.9186 55.8099 29.8954 55.6939 29.8722C55.5779 29.8456 55.4486 29.8324 55.3061 29.8324C54.9714 29.8324 54.7344 29.9136 54.5952 30.076C54.4593 30.2351 54.3913 30.4638 54.3913 30.7621V39H52.5866ZM57.3817 39V31.3636H59.1815V39H57.3817ZM58.2866 30.2798C58.0015 30.2798 57.7563 30.1854 57.5508 29.9964C57.3453 29.8042 57.2425 29.5739 57.2425 29.3054C57.2425 29.0336 57.3453 28.8033 57.5508 28.6143C57.7563 28.4221 58.0015 28.326 58.2866 28.326C58.5749 28.326 58.8202 28.4221 59.0224 28.6143C59.2279 28.8033 59.3306 29.0336 59.3306 29.3054C59.3306 29.5739 59.2279 29.8042 59.0224 29.9964C58.8202 30.1854 58.5749 30.2798 58.2866 30.2798ZM64.3631 39.1491C63.6008 39.1491 62.9462 38.9818 62.3993 38.647C61.8558 38.3123 61.4365 37.8499 61.1415 37.2599C60.8498 36.6667 60.704 35.9839 60.704 35.2116C60.704 34.4361 60.8532 33.7517 61.1515 33.1584C61.4498 32.5618 61.8707 32.0978 62.4142 31.7663C62.9611 31.4316 63.6074 31.2642 64.3532 31.2642C64.973 31.2642 65.5215 31.3786 65.9988 31.6072C66.4793 31.8326 66.8622 32.1525 67.1472 32.5668C67.4322 32.9777 67.5946 33.4583 67.6344 34.0085H65.9142C65.8446 33.6406 65.6789 33.334 65.4171 33.0888C65.1586 32.8402 64.8122 32.7159 64.378 32.7159C64.0101 32.7159 63.687 32.8153 63.4086 33.0142C63.1301 33.2098 62.9131 33.4915 62.7573 33.8594C62.6048 34.2273 62.5286 34.6681 62.5286 35.1818C62.5286 35.7022 62.6048 36.1496 62.7573 36.5241C62.9097 36.8954 63.1235 37.1821 63.3986 37.3842C63.677 37.5831 64.0035 37.6825 64.378 37.6825C64.6432 37.6825 64.8801 37.6328 65.089 37.5334C65.3011 37.4306 65.4784 37.2831 65.6209 37.0909C65.7634 36.8987 65.8612 36.665 65.9142 36.3899H67.6344C67.5913 36.9302 67.4322 37.4091 67.1571 37.8267C66.882 38.241 66.5075 38.5658 66.0336 38.8011C65.5596 39.0331 65.0028 39.1491 64.3631 39.1491ZM72.6644 39V28.8182H74.4641V32.6264H74.5387C74.6315 32.4408 74.7624 32.2436 74.9315 32.0348C75.1005 31.8227 75.3292 31.642 75.6175 31.4929C75.9059 31.3404 76.2738 31.2642 76.7212 31.2642C77.3112 31.2642 77.8432 31.415 78.3171 31.7166C78.7944 32.0149 79.1722 32.4574 79.4506 33.044C79.7324 33.6274 79.8732 34.3433 79.8732 35.1918C79.8732 36.0303 79.7357 36.7429 79.4606 37.3295C79.1855 37.9162 78.811 38.3636 78.337 38.6719C77.863 38.9801 77.3261 39.1342 76.7262 39.1342C76.2887 39.1342 75.9258 39.0613 75.6374 38.9155C75.3491 38.7696 75.1171 38.594 74.9414 38.3885C74.7691 38.1797 74.6348 37.9825 74.5387 37.7969H74.4343V39H72.6644ZM74.4293 35.1818C74.4293 35.6757 74.4989 36.1082 74.6381 36.4794C74.7807 36.8506 74.9845 37.1406 75.2496 37.3494C75.5181 37.5549 75.8429 37.6577 76.2241 37.6577C76.6218 37.6577 76.9549 37.5516 77.2234 37.3395C77.4918 37.1241 77.694 36.8307 77.8299 36.4595C77.9691 36.085 78.0387 35.6591 78.0387 35.1818C78.0387 34.7079 77.9708 34.2869 77.8349 33.919C77.699 33.5511 77.4968 33.2628 77.2283 33.054C76.9599 32.8452 76.6251 32.7408 76.2241 32.7408C75.8396 32.7408 75.5131 32.8419 75.2447 33.044C74.9762 33.2462 74.7724 33.5296 74.6332 33.8942C74.4973 34.2588 74.4293 34.688 74.4293 35.1818ZM82.2621 41.8636C82.0168 41.8636 81.7898 41.8438 81.581 41.804C81.3755 41.7675 81.2114 41.7244 81.0888 41.6747L81.5064 40.2727C81.7682 40.349 82.0019 40.3854 82.2074 40.3821C82.4129 40.3788 82.5935 40.3142 82.7493 40.1882C82.9084 40.0656 83.0426 39.8601 83.152 39.5717L83.3061 39.1591L80.5369 31.3636H82.446L84.206 37.1307H84.2855L86.0504 31.3636H87.9645L84.907 39.9247C84.7644 40.3291 84.5755 40.6754 84.3402 40.9638C84.1049 41.2554 83.8165 41.4775 83.4751 41.63C83.1371 41.7857 82.7327 41.8636 82.2621 41.8636ZM92.7621 39V28.8182H94.6065V37.4538H99.0909V39H92.7621ZM103.943 39.1491C103.197 39.1491 102.551 38.9851 102.004 38.657C101.457 38.3288 101.033 37.8698 100.732 37.2798C100.433 36.6899 100.284 36.0005 100.284 35.2116C100.284 34.4228 100.433 33.7318 100.732 33.1385C101.033 32.5452 101.457 32.0845 102.004 31.7564C102.551 31.4283 103.197 31.2642 103.943 31.2642C104.689 31.2642 105.335 31.4283 105.882 31.7564C106.429 32.0845 106.852 32.5452 107.15 33.1385C107.451 33.7318 107.602 34.4228 107.602 35.2116C107.602 36.0005 107.451 36.6899 107.15 37.2798C106.852 37.8698 106.429 38.3288 105.882 38.657C105.335 38.9851 104.689 39.1491 103.943 39.1491ZM103.953 37.7074C104.357 37.7074 104.696 37.5964 104.967 37.3743C105.239 37.1489 105.441 36.8473 105.574 36.4695C105.71 36.0916 105.778 35.6707 105.778 35.2067C105.778 34.7393 105.71 34.3168 105.574 33.9389C105.441 33.5578 105.239 33.2545 104.967 33.0291C104.696 32.8037 104.357 32.6911 103.953 32.6911C103.539 32.6911 103.194 32.8037 102.919 33.0291C102.647 33.2545 102.443 33.5578 102.308 33.9389C102.175 34.3168 102.109 34.7393 102.109 35.2067C102.109 35.6707 102.175 36.0916 102.308 36.4695C102.443 36.8473 102.647 37.1489 102.919 37.3743C103.194 37.5964 103.539 37.7074 103.953 37.7074ZM112.461 39.1491C111.698 39.1491 111.044 38.9818 110.497 38.647C109.953 38.3123 109.534 37.8499 109.239 37.2599C108.948 36.6667 108.802 35.9839 108.802 35.2116C108.802 34.4361 108.951 33.7517 109.249 33.1584C109.547 32.5618 109.968 32.0978 110.512 31.7663C111.059 31.4316 111.705 31.2642 112.451 31.2642C113.071 31.2642 113.619 31.3786 114.096 31.6072C114.577 31.8326 114.96 32.1525 115.245 32.5668C115.53 32.9777 115.692 33.4583 115.732 34.0085H114.012C113.942 33.6406 113.777 33.334 113.515 33.0888C113.256 32.8402 112.91 32.7159 112.476 32.7159C112.108 32.7159 111.785 32.8153 111.506 33.0142C111.228 33.2098 111.011 33.4915 110.855 33.8594C110.702 34.2273 110.626 34.6681 110.626 35.1818C110.626 35.7022 110.702 36.1496 110.855 36.5241C111.007 36.8954 111.221 37.1821 111.496 37.3842C111.775 37.5831 112.101 37.6825 112.476 37.6825C112.741 37.6825 112.978 37.6328 113.187 37.5334C113.399 37.4306 113.576 37.2831 113.719 37.0909C113.861 36.8987 113.959 36.665 114.012 36.3899H115.732C115.689 36.9302 115.53 37.4091 115.255 37.8267C114.98 38.241 114.605 38.5658 114.131 38.8011C113.657 39.0331 113.1 39.1491 112.461 39.1491ZM119.407 39.1541C118.923 39.1541 118.488 39.0679 118.1 38.8956C117.715 38.7199 117.41 38.4614 117.185 38.12C116.963 37.7786 116.852 37.3577 116.852 36.8572C116.852 36.4264 116.931 36.0701 117.091 35.7884C117.25 35.5066 117.467 35.2812 117.742 35.1122C118.017 34.9432 118.327 34.8156 118.672 34.7294C119.02 34.6399 119.379 34.5753 119.75 34.5355C120.198 34.4891 120.561 34.4477 120.839 34.4112C121.118 34.3714 121.32 34.3118 121.446 34.2322C121.575 34.1494 121.64 34.0218 121.64 33.8494V33.8196C121.64 33.4451 121.529 33.1551 121.306 32.9496C121.084 32.7441 120.765 32.6413 120.347 32.6413C119.906 32.6413 119.556 32.7375 119.298 32.9297C119.043 33.1219 118.87 33.349 118.781 33.6108L117.1 33.3722C117.233 32.9081 117.452 32.5204 117.757 32.2088C118.062 31.8939 118.435 31.6586 118.875 31.5028C119.316 31.3438 119.803 31.2642 120.337 31.2642C120.705 31.2642 121.071 31.3073 121.436 31.3935C121.8 31.4796 122.133 31.6222 122.435 31.821C122.737 32.0166 122.979 32.2834 123.161 32.6214C123.346 32.9595 123.439 33.3821 123.439 33.8892V39H121.709V37.951H121.65C121.54 38.1631 121.386 38.362 121.187 38.5476C120.992 38.7299 120.745 38.8774 120.446 38.9901C120.151 39.0994 119.805 39.1541 119.407 39.1541ZM119.875 37.8317C120.236 37.8317 120.549 37.7604 120.814 37.6179C121.079 37.4721 121.283 37.2798 121.426 37.0412C121.572 36.8026 121.645 36.5424 121.645 36.2607V35.3608C121.588 35.4072 121.492 35.4503 121.356 35.4901C121.224 35.5298 121.074 35.5646 120.909 35.5945C120.743 35.6243 120.579 35.6508 120.417 35.674C120.254 35.6972 120.113 35.7171 119.994 35.7337C119.725 35.7701 119.485 35.8298 119.273 35.9126C119.061 35.9955 118.894 36.1115 118.771 36.2607C118.648 36.4065 118.587 36.5954 118.587 36.8274C118.587 37.1589 118.708 37.4091 118.95 37.5781C119.192 37.7472 119.5 37.8317 119.875 37.8317ZM129.062 31.3636V32.7557H124.672V31.3636H129.062ZM125.756 29.5341H127.556V36.7031C127.556 36.9451 127.592 37.1307 127.665 37.2599C127.741 37.3859 127.841 37.4721 127.963 37.5185C128.086 37.5649 128.222 37.5881 128.371 37.5881C128.484 37.5881 128.587 37.5798 128.679 37.5632C128.775 37.5466 128.848 37.5317 128.898 37.5185L129.201 38.9254C129.105 38.9586 128.968 38.995 128.789 39.0348C128.613 39.0746 128.398 39.0978 128.142 39.1044C127.692 39.1177 127.286 39.0497 126.924 38.9006C126.563 38.7481 126.276 38.5128 126.064 38.1946C125.855 37.8764 125.753 37.4787 125.756 37.0014V29.5341ZM130.567 39V31.3636H132.367V39H130.567ZM131.472 30.2798C131.187 30.2798 130.942 30.1854 130.736 29.9964C130.531 29.8042 130.428 29.5739 130.428 29.3054C130.428 29.0336 130.531 28.8033 130.736 28.6143C130.942 28.4221 131.187 28.326 131.472 28.326C131.76 28.326 132.006 28.4221 132.208 28.6143C132.413 28.8033 132.516 29.0336 132.516 29.3054C132.516 29.5739 132.413 29.8042 132.208 29.9964C132.006 30.1854 131.76 30.2798 131.472 30.2798ZM137.549 39.1491C136.803 39.1491 136.157 38.9851 135.61 38.657C135.063 38.3288 134.639 37.8698 134.337 37.2798C134.039 36.6899 133.89 36.0005 133.89 35.2116C133.89 34.4228 134.039 33.7318 134.337 33.1385C134.639 32.5452 135.063 32.0845 135.61 31.7564C136.157 31.4283 136.803 31.2642 137.549 31.2642C138.294 31.2642 138.941 31.4283 139.488 31.7564C140.034 32.0845 140.457 32.5452 140.755 33.1385C141.057 33.7318 141.208 34.4228 141.208 35.2116C141.208 36.0005 141.057 36.6899 140.755 37.2798C140.457 37.8698 140.034 38.3288 139.488 38.657C138.941 38.9851 138.294 39.1491 137.549 39.1491ZM137.559 37.7074C137.963 37.7074 138.301 37.5964 138.573 37.3743C138.845 37.1489 139.047 36.8473 139.179 36.4695C139.315 36.0916 139.383 35.6707 139.383 35.2067C139.383 34.7393 139.315 34.3168 139.179 33.9389C139.047 33.5578 138.845 33.2545 138.573 33.0291C138.301 32.8037 137.963 32.6911 137.559 32.6911C137.144 32.6911 136.8 32.8037 136.525 33.0291C136.253 33.2545 136.049 33.5578 135.913 33.9389C135.78 34.3168 135.714 34.7393 135.714 35.2067C135.714 35.6707 135.78 36.0916 135.913 36.4695C136.049 36.8473 136.253 37.1489 136.525 37.3743C136.8 37.5964 137.144 37.7074 137.559 37.7074ZM144.535 34.5256V39H142.735V31.3636H144.455V32.6612H144.545C144.721 32.2337 145.001 31.8939 145.385 31.642C145.773 31.3902 146.252 31.2642 146.822 31.2642C147.349 31.2642 147.808 31.3769 148.199 31.6023C148.593 31.8277 148.898 32.1541 149.114 32.5817C149.333 33.0092 149.44 33.5279 149.437 34.1378V39H147.637V34.4162C147.637 33.9058 147.505 33.5064 147.24 33.218C146.978 32.9297 146.615 32.7855 146.151 32.7855C145.836 32.7855 145.556 32.8551 145.311 32.9943C145.069 33.1302 144.878 33.3274 144.739 33.5859C144.603 33.8445 144.535 34.1577 144.535 34.5256Z" fill="#1C1C1C"/>
<path d="M151.371 112.227C146.94 107.299 139.353 106.896 134.425 111.327C129.496 115.758 129.093 123.345 133.525 128.273C139.424 134.835 143 143.485 143 153C143 173.434 126.434 190 106 190C85.5654 190 69 173.434 69 153C69 150.93 69.1689 148.908 69.4912 146.945C70.5652 140.405 66.1342 134.233 59.5944 133.159C53.0545 132.085 46.8824 136.516 45.8084 143.055C45.2758 146.299 45 149.622 45 153C45 186.689 72.3105 214 106 214C139.689 214 167 186.689 167 153C167 137.334 161.078 123.023 151.371 112.227Z" fill="#BAEDBD" stroke="#F7F9FB" stroke-width="4" stroke-linecap="round" stroke-linejoin="round"/>
<path d="M77.463 111.327L76.1258 112.814L77.463 111.327C72.5347 106.896 64.9474 107.299 60.5163 112.227C55.859 117.407 52.0709 123.396 49.39 129.967C46.8862 136.103 49.831 143.107 55.9673 145.611C62.1036 148.114 69.1077 145.17 71.6114 139.033C73.2318 135.062 75.5279 131.427 78.3632 128.273C82.7943 123.345 82.3913 115.758 77.463 111.327Z" fill="#95A4FC" stroke="#F7F9FB" stroke-width="4" stroke-linecap="round" stroke-linejoin="round"/>
<path d="M84.618 122.625C90.6062 118.448 97.8755 116 105.753 116C113.63 116 120.899 118.448 126.887 122.625C132.323 126.417 139.803 125.084 143.595 119.648C147.386 114.212 146.053 106.732 140.618 102.941C130.733 96.0454 118.697 92 105.753 92C92.8083 92 80.7729 96.0454 70.8877 102.941C65.4519 106.732 64.1191 114.212 67.9106 119.648C71.7021 125.084 79.1823 126.417 84.618 122.625Z" fill="#C6C7F8" stroke="#F7F9FB" stroke-width="4" stroke-linecap="round" stroke-linejoin="round"/>
<path d="M151.372 112.227C146.94 107.299 139.353 106.896 134.425 111.327C129.497 115.758 129.094 123.345 133.525 128.273C139.424 134.835 143 143.485 143 153C143 173.434 126.434 190 106 190C99.3726 190 94 195.372 94 202C94 208.627 99.3726 214 106 214C139.689 214 167 186.689 167 153C167 137.334 161.079 123.023 151.372 112.227Z" fill="#1C1C1C" stroke="#F7F9FB" stroke-width="4" stroke-linecap="round" stroke-linejoin="round"/>
<path d="M106 201.783C110.501 201.783 114.86 201.176 119 200.04" stroke="#F7F9FB" stroke-width="28" stroke-linecap="round" stroke-linejoin="round"/>
<path d="M78.0003 193C85.9371 198.536 95.5894 201.783 106 201.783C110.501 201.783 114.86 201.176 119 200.04" stroke="#BAEDBD" stroke-width="20" stroke-linecap="round" stroke-linejoin="round"/>
<path d="M351.852 103.119C351.29 103.119 350.788 103.023 350.348 102.83C349.911 102.636 349.563 102.368 349.304 102.024C349.048 101.678 348.909 101.276 348.886 100.818H349.96C349.983 101.099 350.08 101.342 350.25 101.547C350.42 101.749 350.643 101.905 350.919 102.016C351.195 102.126 351.5 102.182 351.835 102.182C352.21 102.182 352.543 102.116 352.832 101.986C353.122 101.855 353.349 101.673 353.514 101.44C353.679 101.207 353.761 100.938 353.761 100.631C353.761 100.31 353.682 100.027 353.523 99.7827C353.364 99.5355 353.131 99.3423 352.824 99.2031C352.517 99.0639 352.142 98.9943 351.699 98.9943H351V98.0568H351.699C352.045 98.0568 352.349 97.9943 352.611 97.8693C352.875 97.7443 353.081 97.5682 353.229 97.3409C353.379 97.1136 353.455 96.8466 353.455 96.5398C353.455 96.2443 353.389 95.9872 353.259 95.7685C353.128 95.5497 352.943 95.3793 352.705 95.2571C352.469 95.1349 352.19 95.0739 351.869 95.0739C351.568 95.0739 351.284 95.1293 351.017 95.2401C350.753 95.348 350.537 95.5057 350.369 95.7131C350.202 95.9176 350.111 96.1648 350.097 96.4545H349.074C349.091 95.9972 349.229 95.5966 349.487 95.2528C349.746 94.9062 350.084 94.6364 350.501 94.4432C350.922 94.25 351.384 94.1534 351.886 94.1534C352.426 94.1534 352.889 94.2628 353.276 94.4815C353.662 94.6974 353.959 94.983 354.166 95.3381C354.374 95.6932 354.477 96.0767 354.477 96.4886C354.477 96.9801 354.348 97.3991 354.089 97.7457C353.834 98.0923 353.486 98.3324 353.045 98.4659V98.5341C353.597 98.625 354.027 98.8594 354.337 99.2372C354.646 99.6122 354.801 100.077 354.801 100.631C354.801 101.105 354.672 101.531 354.413 101.909C354.158 102.284 353.808 102.58 353.365 102.795C352.922 103.011 352.418 103.119 351.852 103.119ZM359.339 103.119C358.754 103.119 358.237 103.016 357.788 102.808C357.342 102.598 356.994 102.31 356.744 101.943C356.494 101.574 356.371 101.153 356.374 100.682C356.371 100.312 356.443 99.9716 356.591 99.6591C356.739 99.3437 356.94 99.081 357.196 98.8707C357.455 98.6577 357.743 98.5227 358.061 98.4659V98.4148C357.643 98.3068 357.311 98.0724 357.064 97.7116C356.817 97.348 356.695 96.9347 356.697 96.4716C356.695 96.0284 356.807 95.6321 357.034 95.2827C357.261 94.9332 357.574 94.6577 357.972 94.456C358.372 94.2543 358.828 94.1534 359.339 94.1534C359.845 94.1534 360.297 94.2543 360.695 94.456C361.092 94.6577 361.405 94.9332 361.632 95.2827C361.862 95.6321 361.979 96.0284 361.982 96.4716C361.979 96.9347 361.852 97.348 361.602 97.7116C361.355 98.0724 361.027 98.3068 360.618 98.4148V98.4659C360.933 98.5227 361.217 98.6577 361.47 98.8707C361.723 99.081 361.925 99.3437 362.075 99.6591C362.226 99.9716 362.303 100.312 362.305 100.682C362.303 101.153 362.175 101.574 361.922 101.943C361.672 102.31 361.324 102.598 360.878 102.808C360.435 103.016 359.922 103.119 359.339 103.119ZM359.339 102.182C359.734 102.182 360.075 102.118 360.362 101.99C360.649 101.862 360.871 101.682 361.027 101.449C361.183 101.216 361.263 100.943 361.266 100.631C361.263 100.301 361.178 100.01 361.01 99.7571C360.842 99.5043 360.614 99.3054 360.324 99.1605C360.037 99.0156 359.709 98.9432 359.339 98.9432C358.967 98.9432 358.635 99.0156 358.342 99.1605C358.053 99.3054 357.824 99.5043 357.656 99.7571C357.491 100.01 357.411 100.301 357.413 100.631C357.411 100.943 357.486 101.216 357.639 101.449C357.795 101.682 358.018 101.862 358.308 101.99C358.598 102.118 358.942 102.182 359.339 102.182ZM359.339 98.0398C359.652 98.0398 359.929 97.9773 360.17 97.8523C360.415 97.7273 360.607 97.5526 360.746 97.3281C360.885 97.1037 360.956 96.8409 360.959 96.5398C360.956 96.2443 360.886 95.9872 360.75 95.7685C360.614 95.5469 360.425 95.3764 360.183 95.2571C359.942 95.1349 359.661 95.0739 359.339 95.0739C359.013 95.0739 358.727 95.1349 358.483 95.2571C358.239 95.3764 358.05 95.5469 357.916 95.7685C357.783 95.9872 357.717 96.2443 357.72 96.5398C357.717 96.8409 357.784 97.1037 357.92 97.3281C358.06 97.5526 358.251 97.7273 358.496 97.8523C358.74 97.9773 359.021 98.0398 359.339 98.0398ZM364.419 103.068C364.209 103.068 364.028 102.993 363.878 102.842C363.727 102.692 363.652 102.511 363.652 102.301C363.652 102.091 363.727 101.911 363.878 101.76C364.028 101.609 364.209 101.534 364.419 101.534C364.629 101.534 364.81 101.609 364.96 101.76C365.111 101.911 365.186 102.091 365.186 102.301C365.186 102.44 365.151 102.568 365.08 102.685C365.011 102.801 364.919 102.895 364.803 102.966C364.689 103.034 364.561 103.068 364.419 103.068ZM369.567 103.119C369.209 103.114 368.851 103.045 368.493 102.915C368.135 102.784 367.808 102.564 367.513 102.254C367.217 101.942 366.98 101.52 366.801 100.989C366.622 100.455 366.533 99.7841 366.533 98.9773C366.533 98.2045 366.605 97.5199 366.75 96.9233C366.895 96.3239 367.105 95.8196 367.381 95.4105C367.656 94.9986 367.989 94.6861 368.378 94.473C368.77 94.2599 369.212 94.1534 369.703 94.1534C370.192 94.1534 370.626 94.2514 371.007 94.4474C371.391 94.6406 371.703 94.9105 371.945 95.2571C372.186 95.6037 372.342 96.0028 372.413 96.4545H371.374C371.277 96.0625 371.089 95.7372 370.811 95.4787C370.533 95.2202 370.163 95.0909 369.703 95.0909C369.027 95.0909 368.494 95.3849 368.105 95.973C367.719 96.5611 367.524 97.3864 367.521 98.4489H367.589C367.749 98.2074 367.938 98.0014 368.156 97.831C368.378 97.6577 368.622 97.5241 368.889 97.4304C369.156 97.3366 369.439 97.2898 369.737 97.2898C370.237 97.2898 370.695 97.4148 371.109 97.6648C371.524 97.9119 371.857 98.2543 372.107 98.6918C372.357 99.1264 372.482 99.625 372.482 100.188C372.482 100.727 372.361 101.222 372.119 101.67C371.878 102.116 371.538 102.472 371.101 102.736C370.666 102.997 370.155 103.125 369.567 103.119ZM369.567 102.182C369.925 102.182 370.246 102.092 370.53 101.913C370.817 101.734 371.043 101.494 371.207 101.193C371.375 100.892 371.459 100.557 371.459 100.188C371.459 99.8267 371.378 99.4986 371.216 99.2031C371.057 98.9048 370.837 98.6676 370.555 98.4915C370.277 98.3153 369.959 98.2273 369.601 98.2273C369.331 98.2273 369.08 98.2812 368.847 98.3892C368.614 98.4943 368.409 98.6392 368.233 98.8239C368.06 99.0085 367.923 99.2202 367.824 99.4588C367.724 99.6946 367.675 99.9432 367.675 100.205C367.675 100.551 367.756 100.875 367.918 101.176C368.082 101.477 368.307 101.72 368.591 101.905C368.878 102.089 369.203 102.182 369.567 102.182ZM378.606 101.364V100.903C378.606 100.585 378.672 100.294 378.802 100.03C378.936 99.7628 379.129 99.5497 379.382 99.3906C379.637 99.2287 379.947 99.1477 380.311 99.1477C380.68 99.1477 380.99 99.2287 381.24 99.3906C381.49 99.5497 381.679 99.7628 381.806 100.03C381.934 100.294 381.998 100.585 381.998 100.903V101.364C381.998 101.682 381.933 101.974 381.802 102.241C381.674 102.506 381.484 102.719 381.231 102.881C380.981 103.04 380.674 103.119 380.311 103.119C379.941 103.119 379.63 103.04 379.377 102.881C379.125 102.719 378.933 102.506 378.802 102.241C378.672 101.974 378.606 101.682 378.606 101.364ZM379.475 100.903V101.364C379.475 101.628 379.538 101.865 379.663 102.075C379.788 102.283 380.004 102.386 380.311 102.386C380.609 102.386 380.819 102.283 380.941 102.075C381.066 101.865 381.129 101.628 381.129 101.364V100.903C381.129 100.639 381.069 100.403 380.95 100.196C380.831 99.9858 380.618 99.8807 380.311 99.8807C380.012 99.8807 379.798 99.9858 379.667 100.196C379.539 100.403 379.475 100.639 379.475 100.903ZM374.26 96.3693V95.9091C374.26 95.5909 374.325 95.2997 374.456 95.0355C374.589 94.7685 374.782 94.5554 375.035 94.3963C375.291 94.2344 375.6 94.1534 375.964 94.1534C376.333 94.1534 376.643 94.2344 376.893 94.3963C377.143 94.5554 377.332 94.7685 377.46 95.0355C377.588 95.2997 377.652 95.5909 377.652 95.9091V96.3693C377.652 96.6875 377.586 96.9801 377.456 97.2472C377.328 97.5114 377.137 97.7244 376.885 97.8864C376.635 98.0455 376.328 98.125 375.964 98.125C375.595 98.125 375.284 98.0455 375.031 97.8864C374.778 97.7244 374.586 97.5114 374.456 97.2472C374.325 96.9801 374.26 96.6875 374.26 96.3693ZM375.129 95.9091V96.3693C375.129 96.6335 375.191 96.8707 375.316 97.081C375.441 97.2884 375.657 97.392 375.964 97.392C376.262 97.392 376.473 97.2884 376.595 97.081C376.72 96.8707 376.782 96.6335 376.782 96.3693V95.9091C376.782 95.6449 376.723 95.4091 376.603 95.2017C376.484 94.9915 376.271 94.8864 375.964 94.8864C375.666 94.8864 375.451 94.9915 375.321 95.2017C375.193 95.4091 375.129 95.6449 375.129 95.9091ZM374.583 103L380.583 94.2727H381.555L375.555 103H374.583Z" fill="#1C1C1C"/>
<path d="M348.903 139V138.233L351.784 135.08C352.122 134.71 352.401 134.389 352.619 134.116C352.838 133.841 353 133.582 353.105 133.341C353.213 133.097 353.267 132.841 353.267 132.574C353.267 132.267 353.193 132.001 353.045 131.777C352.901 131.553 352.702 131.379 352.449 131.257C352.196 131.135 351.912 131.074 351.597 131.074C351.261 131.074 350.969 131.143 350.719 131.283C350.472 131.419 350.28 131.611 350.143 131.858C350.01 132.105 349.943 132.395 349.943 132.727H348.938C348.938 132.216 349.055 131.767 349.291 131.381C349.527 130.994 349.848 130.693 350.254 130.477C350.663 130.261 351.122 130.153 351.631 130.153C352.142 130.153 352.595 130.261 352.99 130.477C353.385 130.693 353.695 130.984 353.919 131.351C354.143 131.717 354.256 132.125 354.256 132.574C354.256 132.895 354.197 133.209 354.081 133.516C353.967 133.82 353.768 134.159 353.484 134.534C353.203 134.906 352.812 135.361 352.312 135.898L350.352 137.994V138.062H354.409V139H348.903ZM356.169 139V138.233L359.05 135.08C359.388 134.71 359.666 134.389 359.885 134.116C360.104 133.841 360.266 133.582 360.371 133.341C360.479 133.097 360.533 132.841 360.533 132.574C360.533 132.267 360.459 132.001 360.311 131.777C360.166 131.553 359.967 131.379 359.714 131.257C359.462 131.135 359.178 131.074 358.862 131.074C358.527 131.074 358.234 131.143 357.984 131.283C357.737 131.419 357.545 131.611 357.409 131.858C357.276 132.105 357.209 132.395 357.209 132.727H356.203C356.203 132.216 356.321 131.767 356.557 131.381C356.793 130.994 357.114 130.693 357.52 130.477C357.929 130.261 358.388 130.153 358.896 130.153C359.408 130.153 359.861 130.261 360.256 130.477C360.651 130.693 360.96 130.984 361.185 131.351C361.409 131.717 361.521 132.125 361.521 132.574C361.521 132.895 361.463 133.209 361.347 133.516C361.233 133.82 361.034 134.159 360.75 134.534C360.469 134.906 360.078 135.361 359.578 135.898L357.618 137.994V138.062H361.675V139H356.169ZM364.185 139.068C363.974 139.068 363.794 138.993 363.643 138.842C363.493 138.692 363.418 138.511 363.418 138.301C363.418 138.091 363.493 137.911 363.643 137.76C363.794 137.609 363.974 137.534 364.185 137.534C364.395 137.534 364.575 137.609 364.726 137.76C364.876 137.911 364.952 138.091 364.952 138.301C364.952 138.44 364.916 138.568 364.845 138.685C364.777 138.801 364.685 138.895 364.568 138.966C364.455 139.034 364.327 139.068 364.185 139.068ZM369.291 139.119C368.791 139.119 368.341 139.02 367.94 138.821C367.539 138.622 367.218 138.349 366.977 138.003C366.735 137.656 366.603 137.261 366.581 136.818H367.603C367.643 137.213 367.822 137.54 368.14 137.798C368.461 138.054 368.845 138.182 369.291 138.182C369.649 138.182 369.967 138.098 370.245 137.93C370.527 137.763 370.747 137.533 370.906 137.24C371.068 136.945 371.149 136.611 371.149 136.239C371.149 135.858 371.065 135.518 370.897 135.22C370.733 134.919 370.505 134.682 370.216 134.509C369.926 134.335 369.595 134.247 369.223 134.244C368.956 134.241 368.681 134.283 368.4 134.368C368.119 134.45 367.887 134.557 367.706 134.688L366.717 134.568L367.245 130.273H371.779V131.21H368.132L367.825 133.784H367.876C368.055 133.642 368.279 133.524 368.549 133.43C368.819 133.337 369.1 133.29 369.393 133.29C369.927 133.29 370.403 133.418 370.821 133.673C371.241 133.926 371.571 134.273 371.809 134.713C372.051 135.153 372.172 135.656 372.172 136.222C372.172 136.778 372.047 137.276 371.797 137.713C371.549 138.148 371.208 138.491 370.774 138.744C370.339 138.994 369.845 139.119 369.291 139.119ZM378.313 137.364V136.903C378.313 136.585 378.379 136.294 378.509 136.03C378.643 135.763 378.836 135.55 379.089 135.391C379.344 135.229 379.654 135.148 380.018 135.148C380.387 135.148 380.697 135.229 380.947 135.391C381.197 135.55 381.386 135.763 381.513 136.03C381.641 136.294 381.705 136.585 381.705 136.903V137.364C381.705 137.682 381.64 137.974 381.509 138.241C381.381 138.506 381.191 138.719 380.938 138.881C380.688 139.04 380.381 139.119 380.018 139.119C379.648 139.119 379.337 139.04 379.085 138.881C378.832 138.719 378.64 138.506 378.509 138.241C378.379 137.974 378.313 137.682 378.313 137.364ZM379.183 136.903V137.364C379.183 137.628 379.245 137.865 379.37 138.075C379.495 138.283 379.711 138.386 380.018 138.386C380.316 138.386 380.526 138.283 380.648 138.075C380.773 137.865 380.836 137.628 380.836 137.364V136.903C380.836 136.639 380.776 136.403 380.657 136.196C380.538 135.986 380.325 135.881 380.018 135.881C379.719 135.881 379.505 135.986 379.374 136.196C379.246 136.403 379.183 136.639 379.183 136.903ZM373.967 132.369V131.909C373.967 131.591 374.032 131.3 374.163 131.036C374.296 130.768 374.489 130.555 374.742 130.396C374.998 130.234 375.308 130.153 375.671 130.153C376.04 130.153 376.35 130.234 376.6 130.396C376.85 130.555 377.039 130.768 377.167 131.036C377.295 131.3 377.359 131.591 377.359 131.909V132.369C377.359 132.687 377.293 132.98 377.163 133.247C377.035 133.511 376.844 133.724 376.592 133.886C376.342 134.045 376.035 134.125 375.671 134.125C375.302 134.125 374.991 134.045 374.738 133.886C374.485 133.724 374.293 133.511 374.163 133.247C374.032 132.98 373.967 132.687 373.967 132.369ZM374.836 131.909V132.369C374.836 132.634 374.898 132.871 375.023 133.081C375.148 133.288 375.364 133.392 375.671 133.392C375.969 133.392 376.18 133.288 376.302 133.081C376.427 132.871 376.489 132.634 376.489 132.369V131.909C376.489 131.645 376.43 131.409 376.31 131.202C376.191 130.991 375.978 130.886 375.671 130.886C375.373 130.886 375.158 130.991 375.028 131.202C374.9 131.409 374.836 131.645 374.836 131.909ZM374.29 139L380.29 130.273H381.262L375.262 139H374.29Z" fill="#1C1C1C"/>
<path d="M351.852 175.119C351.29 175.119 350.788 175.023 350.348 174.83C349.911 174.636 349.563 174.368 349.304 174.024C349.048 173.678 348.909 173.276 348.886 172.818H349.96C349.983 173.099 350.08 173.342 350.25 173.547C350.42 173.749 350.643 173.905 350.919 174.016C351.195 174.126 351.5 174.182 351.835 174.182C352.21 174.182 352.543 174.116 352.832 173.986C353.122 173.855 353.349 173.673 353.514 173.44C353.679 173.207 353.761 172.938 353.761 172.631C353.761 172.31 353.682 172.027 353.523 171.783C353.364 171.536 353.131 171.342 352.824 171.203C352.517 171.064 352.142 170.994 351.699 170.994H351V170.057H351.699C352.045 170.057 352.349 169.994 352.611 169.869C352.875 169.744 353.081 169.568 353.229 169.341C353.379 169.114 353.455 168.847 353.455 168.54C353.455 168.244 353.389 167.987 353.259 167.768C353.128 167.55 352.943 167.379 352.705 167.257C352.469 167.135 352.19 167.074 351.869 167.074C351.568 167.074 351.284 167.129 351.017 167.24C350.753 167.348 350.537 167.506 350.369 167.713C350.202 167.918 350.111 168.165 350.097 168.455H349.074C349.091 167.997 349.229 167.597 349.487 167.253C349.746 166.906 350.084 166.636 350.501 166.443C350.922 166.25 351.384 166.153 351.886 166.153C352.426 166.153 352.889 166.263 353.276 166.482C353.662 166.697 353.959 166.983 354.166 167.338C354.374 167.693 354.477 168.077 354.477 168.489C354.477 168.98 354.348 169.399 354.089 169.746C353.834 170.092 353.486 170.332 353.045 170.466V170.534C353.597 170.625 354.027 170.859 354.337 171.237C354.646 171.612 354.801 172.077 354.801 172.631C354.801 173.105 354.672 173.531 354.413 173.909C354.158 174.284 353.808 174.58 353.365 174.795C352.922 175.011 352.418 175.119 351.852 175.119ZM359.391 175.119C358.749 175.119 358.202 174.945 357.75 174.595C357.298 174.243 356.953 173.733 356.714 173.065C356.476 172.395 356.357 171.585 356.357 170.636C356.357 169.693 356.476 168.888 356.714 168.22C356.956 167.55 357.303 167.038 357.754 166.686C358.209 166.331 358.754 166.153 359.391 166.153C360.027 166.153 360.571 166.331 361.023 166.686C361.477 167.038 361.824 167.55 362.062 168.22C362.304 168.888 362.425 169.693 362.425 170.636C362.425 171.585 362.305 172.395 362.067 173.065C361.828 173.733 361.483 174.243 361.031 174.595C360.58 174.945 360.033 175.119 359.391 175.119ZM359.391 174.182C360.027 174.182 360.521 173.875 360.874 173.261C361.226 172.648 361.402 171.773 361.402 170.636C361.402 169.881 361.321 169.237 361.159 168.706C361 168.175 360.77 167.77 360.469 167.491C360.17 167.213 359.811 167.074 359.391 167.074C358.76 167.074 358.267 167.385 357.912 168.007C357.557 168.626 357.379 169.503 357.379 170.636C357.379 171.392 357.459 172.034 357.618 172.562C357.777 173.091 358.006 173.493 358.304 173.768C358.605 174.044 358.967 174.182 359.391 174.182ZM364.489 175.068C364.279 175.068 364.099 174.993 363.948 174.842C363.798 174.692 363.722 174.511 363.722 174.301C363.722 174.091 363.798 173.911 363.948 173.76C364.099 173.609 364.279 173.534 364.489 173.534C364.7 173.534 364.88 173.609 365.031 173.76C365.181 173.911 365.256 174.091 365.256 174.301C365.256 174.44 365.221 174.568 365.15 174.685C365.082 174.801 364.989 174.895 364.873 174.966C364.759 175.034 364.631 175.068 364.489 175.068ZM369.57 175.119C368.985 175.119 368.468 175.016 368.019 174.808C367.573 174.598 367.225 174.31 366.975 173.943C366.725 173.574 366.601 173.153 366.604 172.682C366.601 172.312 366.674 171.972 366.821 171.659C366.969 171.344 367.171 171.081 367.426 170.871C367.685 170.658 367.973 170.523 368.292 170.466V170.415C367.874 170.307 367.542 170.072 367.294 169.712C367.047 169.348 366.925 168.935 366.928 168.472C366.925 168.028 367.037 167.632 367.265 167.283C367.492 166.933 367.804 166.658 368.202 166.456C368.603 166.254 369.059 166.153 369.57 166.153C370.076 166.153 370.527 166.254 370.925 166.456C371.323 166.658 371.635 166.933 371.863 167.283C372.093 167.632 372.209 168.028 372.212 168.472C372.209 168.935 372.083 169.348 371.833 169.712C371.586 170.072 371.257 170.307 370.848 170.415V170.466C371.164 170.523 371.448 170.658 371.701 170.871C371.953 171.081 372.155 171.344 372.306 171.659C372.456 171.972 372.533 172.312 372.536 172.682C372.533 173.153 372.405 173.574 372.152 173.943C371.902 174.31 371.554 174.598 371.108 174.808C370.665 175.016 370.152 175.119 369.57 175.119ZM369.57 174.182C369.965 174.182 370.306 174.118 370.593 173.99C370.88 173.862 371.101 173.682 371.257 173.449C371.414 173.216 371.493 172.943 371.496 172.631C371.493 172.301 371.408 172.01 371.24 171.757C371.073 171.504 370.844 171.305 370.554 171.161C370.267 171.016 369.939 170.943 369.57 170.943C369.198 170.943 368.865 171.016 368.573 171.161C368.283 171.305 368.054 171.504 367.887 171.757C367.722 172.01 367.641 172.301 367.644 172.631C367.641 172.943 367.716 173.216 367.87 173.449C368.026 173.682 368.249 173.862 368.539 173.99C368.828 174.118 369.172 174.182 369.57 174.182ZM369.57 170.04C369.882 170.04 370.159 169.977 370.401 169.852C370.645 169.727 370.837 169.553 370.976 169.328C371.115 169.104 371.186 168.841 371.189 168.54C371.186 168.244 371.117 167.987 370.98 167.768C370.844 167.547 370.655 167.376 370.414 167.257C370.172 167.135 369.891 167.074 369.57 167.074C369.243 167.074 368.958 167.135 368.713 167.257C368.469 167.376 368.28 167.547 368.147 167.768C368.013 167.987 367.948 168.244 367.951 168.54C367.948 168.841 368.015 169.104 368.151 169.328C368.29 169.553 368.482 169.727 368.726 169.852C368.971 169.977 369.252 170.04 369.57 170.04ZM378.618 173.364V172.903C378.618 172.585 378.683 172.294 378.814 172.03C378.947 171.763 379.141 171.55 379.393 171.391C379.649 171.229 379.959 171.148 380.322 171.148C380.692 171.148 381.001 171.229 381.251 171.391C381.501 171.55 381.69 171.763 381.818 172.03C381.946 172.294 382.01 172.585 382.01 172.903V173.364C382.01 173.682 381.945 173.974 381.814 174.241C381.686 174.506 381.496 174.719 381.243 174.881C380.993 175.04 380.686 175.119 380.322 175.119C379.953 175.119 379.642 175.04 379.389 174.881C379.136 174.719 378.945 174.506 378.814 174.241C378.683 173.974 378.618 173.682 378.618 173.364ZM379.487 172.903V173.364C379.487 173.628 379.55 173.865 379.675 174.075C379.8 174.283 380.016 174.386 380.322 174.386C380.621 174.386 380.831 174.283 380.953 174.075C381.078 173.865 381.141 173.628 381.141 173.364V172.903C381.141 172.639 381.081 172.403 380.962 172.196C380.842 171.986 380.629 171.881 380.322 171.881C380.024 171.881 379.81 171.986 379.679 172.196C379.551 172.403 379.487 172.639 379.487 172.903ZM374.271 168.369V167.909C374.271 167.591 374.337 167.3 374.467 167.036C374.601 166.768 374.794 166.555 375.047 166.396C375.303 166.234 375.612 166.153 375.976 166.153C376.345 166.153 376.655 166.234 376.905 166.396C377.155 166.555 377.344 166.768 377.472 167.036C377.599 167.3 377.663 167.591 377.663 167.909V168.369C377.663 168.687 377.598 168.98 377.467 169.247C377.339 169.511 377.149 169.724 376.896 169.886C376.646 170.045 376.339 170.125 375.976 170.125C375.607 170.125 375.295 170.045 375.043 169.886C374.79 169.724 374.598 169.511 374.467 169.247C374.337 168.98 374.271 168.687 374.271 168.369ZM375.141 167.909V168.369C375.141 168.634 375.203 168.871 375.328 169.081C375.453 169.288 375.669 169.392 375.976 169.392C376.274 169.392 376.484 169.288 376.607 169.081C376.732 168.871 376.794 168.634 376.794 168.369V167.909C376.794 167.645 376.734 167.409 376.615 167.202C376.496 166.991 376.283 166.886 375.976 166.886C375.678 166.886 375.463 166.991 375.332 167.202C375.205 167.409 375.141 167.645 375.141 167.909ZM374.595 175L380.595 166.273H381.567L375.567 175H374.595Z" fill="#1C1C1C"/>
<path d="M351.699 211.119C351.114 211.119 350.597 211.016 350.148 210.808C349.702 210.598 349.354 210.31 349.104 209.943C348.854 209.574 348.73 209.153 348.733 208.682C348.73 208.312 348.803 207.972 348.95 207.659C349.098 207.344 349.3 207.081 349.555 206.871C349.814 206.658 350.102 206.523 350.42 206.466V206.415C350.003 206.307 349.67 206.072 349.423 205.712C349.176 205.348 349.054 204.935 349.057 204.472C349.054 204.028 349.166 203.632 349.393 203.283C349.621 202.933 349.933 202.658 350.331 202.456C350.732 202.254 351.188 202.153 351.699 202.153C352.205 202.153 352.656 202.254 353.054 202.456C353.452 202.658 353.764 202.933 353.991 203.283C354.222 203.632 354.338 204.028 354.341 204.472C354.338 204.935 354.212 205.348 353.962 205.712C353.714 206.072 353.386 206.307 352.977 206.415V206.466C353.293 206.523 353.577 206.658 353.83 206.871C354.082 207.081 354.284 207.344 354.435 207.659C354.585 207.972 354.662 208.312 354.665 208.682C354.662 209.153 354.534 209.574 354.281 209.943C354.031 210.31 353.683 210.598 353.237 210.808C352.794 211.016 352.281 211.119 351.699 211.119ZM351.699 210.182C352.094 210.182 352.435 210.118 352.722 209.99C353.009 209.862 353.23 209.682 353.386 209.449C353.543 209.216 353.622 208.943 353.625 208.631C353.622 208.301 353.537 208.01 353.369 207.757C353.202 207.504 352.973 207.305 352.683 207.161C352.396 207.016 352.068 206.943 351.699 206.943C351.327 206.943 350.994 207.016 350.702 207.161C350.412 207.305 350.183 207.504 350.016 207.757C349.851 208.01 349.77 208.301 349.773 208.631C349.77 208.943 349.845 209.216 349.999 209.449C350.155 209.682 350.378 209.862 350.668 209.99C350.957 210.118 351.301 210.182 351.699 210.182ZM351.699 206.04C352.011 206.04 352.288 205.977 352.53 205.852C352.774 205.727 352.966 205.553 353.105 205.328C353.244 205.104 353.315 204.841 353.318 204.54C353.315 204.244 353.246 203.987 353.109 203.768C352.973 203.547 352.784 203.376 352.543 203.257C352.301 203.135 352.02 203.074 351.699 203.074C351.372 203.074 351.087 203.135 350.842 203.257C350.598 203.376 350.409 203.547 350.276 203.768C350.142 203.987 350.077 204.244 350.08 204.54C350.077 204.841 350.143 205.104 350.28 205.328C350.419 205.553 350.611 205.727 350.855 205.852C351.099 205.977 351.381 206.04 351.699 206.04ZM356.778 211.068C356.568 211.068 356.388 210.993 356.237 210.842C356.087 210.692 356.011 210.511 356.011 210.301C356.011 210.091 356.087 209.911 356.237 209.76C356.388 209.609 356.568 209.534 356.778 209.534C356.989 209.534 357.169 209.609 357.32 209.76C357.47 209.911 357.545 210.091 357.545 210.301C357.545 210.44 357.51 210.568 357.439 210.685C357.371 210.801 357.278 210.895 357.162 210.966C357.048 211.034 356.92 211.068 356.778 211.068ZM361.358 202.273V211H360.301V203.381H360.25L358.12 204.795V203.722L360.301 202.273H361.358ZM368.317 209.364V208.903C368.317 208.585 368.382 208.294 368.513 208.03C368.647 207.763 368.84 207.55 369.093 207.391C369.348 207.229 369.658 207.148 370.022 207.148C370.391 207.148 370.701 207.229 370.951 207.391C371.201 207.55 371.39 207.763 371.517 208.03C371.645 208.294 371.709 208.585 371.709 208.903V209.364C371.709 209.682 371.644 209.974 371.513 210.241C371.385 210.506 371.195 210.719 370.942 210.881C370.692 211.04 370.385 211.119 370.022 211.119C369.652 211.119 369.341 211.04 369.088 210.881C368.836 210.719 368.644 210.506 368.513 210.241C368.382 209.974 368.317 209.682 368.317 209.364ZM369.186 208.903V209.364C369.186 209.628 369.249 209.865 369.374 210.075C369.499 210.283 369.715 210.386 370.022 210.386C370.32 210.386 370.53 210.283 370.652 210.075C370.777 209.865 370.84 209.628 370.84 209.364V208.903C370.84 208.639 370.78 208.403 370.661 208.196C370.542 207.986 370.328 207.881 370.022 207.881C369.723 207.881 369.509 207.986 369.378 208.196C369.25 208.403 369.186 208.639 369.186 208.903ZM363.971 204.369V203.909C363.971 203.591 364.036 203.3 364.167 203.036C364.3 202.768 364.493 202.555 364.746 202.396C365.002 202.234 365.311 202.153 365.675 202.153C366.044 202.153 366.354 202.234 366.604 202.396C366.854 202.555 367.043 202.768 367.171 203.036C367.299 203.3 367.363 203.591 367.363 203.909V204.369C367.363 204.687 367.297 204.98 367.167 205.247C367.039 205.511 366.848 205.724 366.596 205.886C366.346 206.045 366.039 206.125 365.675 206.125C365.306 206.125 364.995 206.045 364.742 205.886C364.489 205.724 364.297 205.511 364.167 205.247C364.036 204.98 363.971 204.687 363.971 204.369ZM364.84 203.909V204.369C364.84 204.634 364.902 204.871 365.027 205.081C365.152 205.288 365.368 205.392 365.675 205.392C365.973 205.392 366.184 205.288 366.306 205.081C366.431 204.871 366.493 204.634 366.493 204.369V203.909C366.493 203.645 366.434 203.409 366.314 203.202C366.195 202.991 365.982 202.886 365.675 202.886C365.377 202.886 365.162 202.991 365.032 203.202C364.904 203.409 364.84 203.645 364.84 203.909ZM364.294 211L370.294 202.273H371.266L365.266 211H364.294Z" fill="#1C1C1C"/>
<path d="M226 99C226 100.657 224.657 102 223 102C221.343 102 220 100.657 220 99C220 97.3431 221.343 96 223 96C224.657 96 226 97.3431 226 99Z" fill="#1C1C1C"/>
<path d="M237.784 94.2727H238.841V100.051C238.841 100.648 238.7 101.18 238.419 101.649C238.141 102.115 237.747 102.483 237.239 102.753C236.73 103.02 236.134 103.153 235.449 103.153C234.764 103.153 234.168 103.02 233.659 102.753C233.151 102.483 232.756 102.115 232.474 101.649C232.196 101.18 232.057 100.648 232.057 100.051V94.2727H233.114V99.9659C233.114 100.392 233.207 100.771 233.395 101.104C233.582 101.433 233.849 101.693 234.196 101.884C234.545 102.071 234.963 102.165 235.449 102.165C235.935 102.165 236.352 102.071 236.702 101.884C237.051 101.693 237.318 101.433 237.503 101.104C237.69 100.771 237.784 100.392 237.784 99.9659V94.2727ZM241.821 99.0625V103H240.815V96.4545H241.787V97.4773H241.872C242.025 97.1449 242.258 96.8778 242.571 96.6761C242.883 96.4716 243.287 96.3693 243.781 96.3693C244.224 96.3693 244.612 96.4602 244.944 96.642C245.277 96.821 245.535 97.0938 245.72 97.4602C245.904 97.8239 245.997 98.2841 245.997 98.8409V103H244.991V98.9091C244.991 98.3949 244.858 97.9943 244.591 97.7074C244.324 97.4176 243.957 97.2727 243.491 97.2727C243.17 97.2727 242.883 97.3423 242.63 97.4815C242.38 97.6207 242.183 97.8239 242.038 98.0909C241.893 98.358 241.821 98.6818 241.821 99.0625ZM247.835 103V96.4545H248.84V103H247.835ZM248.346 95.3636C248.15 95.3636 247.981 95.2969 247.839 95.1634C247.7 95.0298 247.63 94.8693 247.63 94.6818C247.63 94.4943 247.7 94.3338 247.839 94.2003C247.981 94.0668 248.15 94 248.346 94C248.542 94 248.71 94.0668 248.849 94.2003C248.991 94.3338 249.062 94.4943 249.062 94.6818C249.062 94.8693 248.991 95.0298 248.849 95.1634C248.71 95.2969 248.542 95.3636 248.346 95.3636ZM253.529 96.4545V97.3068H250.137V96.4545H253.529ZM251.125 94.8864H252.131V101.125C252.131 101.409 252.172 101.622 252.255 101.764C252.34 101.903 252.448 101.997 252.578 102.045C252.712 102.091 252.853 102.114 253 102.114C253.111 102.114 253.202 102.108 253.273 102.097C253.344 102.082 253.401 102.071 253.444 102.062L253.648 102.966C253.58 102.991 253.485 103.017 253.363 103.043C253.24 103.071 253.086 103.085 252.898 103.085C252.614 103.085 252.336 103.024 252.063 102.902C251.793 102.78 251.569 102.594 251.39 102.344C251.213 102.094 251.125 101.778 251.125 101.398V94.8864ZM257.716 103.136C257.085 103.136 256.541 102.997 256.083 102.719C255.629 102.438 255.278 102.045 255.031 101.543C254.787 101.037 254.664 100.449 254.664 99.7784C254.664 99.108 254.787 98.517 255.031 98.0057C255.278 97.4915 255.622 97.0909 256.062 96.804C256.505 96.5142 257.022 96.3693 257.613 96.3693C257.954 96.3693 258.291 96.4261 258.623 96.5398C258.956 96.6534 259.258 96.8381 259.531 97.0938C259.804 97.3466 260.021 97.6818 260.183 98.0994C260.345 98.517 260.426 99.0312 260.426 99.642V100.068H255.38V99.1989H259.403C259.403 98.8295 259.329 98.5 259.181 98.2102C259.037 97.9205 258.829 97.6918 258.559 97.5241C258.292 97.3565 257.977 97.2727 257.613 97.2727C257.213 97.2727 256.866 97.3722 256.574 97.571C256.284 97.767 256.061 98.0227 255.904 98.3381C255.748 98.6534 255.67 98.9915 255.67 99.3523V99.9318C255.67 100.426 255.755 100.845 255.926 101.189C256.099 101.53 256.339 101.79 256.646 101.969C256.953 102.145 257.309 102.233 257.716 102.233C257.98 102.233 258.218 102.196 258.431 102.122C258.647 102.045 258.833 101.932 258.99 101.781C259.146 101.628 259.267 101.437 259.352 101.21L260.324 101.483C260.221 101.812 260.049 102.102 259.808 102.352C259.566 102.599 259.268 102.793 258.913 102.932C258.558 103.068 258.159 103.136 257.716 103.136ZM264.427 103.136C263.882 103.136 263.4 102.999 262.983 102.723C262.565 102.445 262.238 102.053 262.002 101.547C261.767 101.038 261.649 100.438 261.649 99.7443C261.649 99.0568 261.767 98.4602 262.002 97.9545C262.238 97.4489 262.566 97.0582 262.987 96.7827C263.407 96.5071 263.893 96.3693 264.444 96.3693C264.87 96.3693 265.207 96.4403 265.454 96.5824C265.704 96.7216 265.895 96.8807 266.025 97.0597C266.159 97.2358 266.262 97.3807 266.336 97.4943H266.422V94.2727H267.427V103H266.456V101.994H266.336C266.262 102.114 266.157 102.264 266.021 102.446C265.885 102.625 265.69 102.786 265.437 102.928C265.184 103.067 264.848 103.136 264.427 103.136ZM264.564 102.233C264.967 102.233 265.308 102.128 265.586 101.918C265.865 101.705 266.076 101.411 266.221 101.036C266.366 100.658 266.439 100.222 266.439 99.7273C266.439 99.2386 266.368 98.8111 266.225 98.4446C266.083 98.0753 265.873 97.7884 265.595 97.5838C265.316 97.3764 264.973 97.2727 264.564 97.2727C264.137 97.2727 263.782 97.3821 263.498 97.6009C263.217 97.8168 263.005 98.1108 262.863 98.483C262.724 98.8523 262.654 99.267 262.654 99.7273C262.654 100.193 262.725 100.616 262.868 100.997C263.012 101.375 263.225 101.676 263.507 101.901C263.791 102.122 264.143 102.233 264.564 102.233ZM277.693 96.4545C277.642 96.0227 277.434 95.6875 277.071 95.4489C276.707 95.2102 276.261 95.0909 275.733 95.0909C275.346 95.0909 275.008 95.1534 274.718 95.2784C274.431 95.4034 274.207 95.5753 274.045 95.794C273.886 96.0128 273.806 96.2614 273.806 96.5398C273.806 96.7727 273.862 96.973 273.973 97.1406C274.086 97.3054 274.231 97.4432 274.407 97.554C274.583 97.6619 274.768 97.7514 274.961 97.8224C275.154 97.8906 275.332 97.946 275.494 97.9886L276.38 98.2273C276.608 98.2869 276.86 98.3693 277.139 98.4744C277.42 98.5795 277.689 98.723 277.944 98.9048C278.203 99.0838 278.416 99.3139 278.583 99.5952C278.751 99.8764 278.835 100.222 278.835 100.631C278.835 101.102 278.711 101.528 278.464 101.909C278.22 102.29 277.862 102.592 277.39 102.817C276.922 103.041 276.352 103.153 275.681 103.153C275.056 103.153 274.515 103.053 274.058 102.851C273.603 102.649 273.245 102.368 272.984 102.007C272.725 101.646 272.579 101.227 272.545 100.75H273.636C273.664 101.08 273.775 101.352 273.968 101.568C274.164 101.781 274.412 101.94 274.71 102.045C275.011 102.148 275.335 102.199 275.681 102.199C276.085 102.199 276.447 102.134 276.768 102.003C277.089 101.869 277.343 101.685 277.531 101.449C277.718 101.21 277.812 100.932 277.812 100.614C277.812 100.324 277.731 100.088 277.569 99.9062C277.407 99.7244 277.194 99.5767 276.93 99.4631C276.666 99.3494 276.38 99.25 276.074 99.1648L275 98.858C274.318 98.6619 273.778 98.3821 273.38 98.0185C272.983 97.6548 272.784 97.179 272.784 96.5909C272.784 96.1023 272.916 95.6761 273.18 95.3125C273.447 94.946 273.805 94.6619 274.254 94.4602C274.706 94.2557 275.21 94.1534 275.767 94.1534C276.329 94.1534 276.829 94.2543 277.267 94.456C277.704 94.6548 278.051 94.9276 278.306 95.2741C278.565 95.6207 278.701 96.0142 278.716 96.4545H277.693ZM283.283 96.4545V97.3068H279.891V96.4545H283.283ZM280.879 94.8864H281.885V101.125C281.885 101.409 281.926 101.622 282.009 101.764C282.094 101.903 282.202 101.997 282.332 102.045C282.466 102.091 282.607 102.114 282.754 102.114C282.865 102.114 282.956 102.108 283.027 102.097C283.098 102.082 283.155 102.071 283.197 102.062L283.402 102.966C283.334 102.991 283.239 103.017 283.116 103.043C282.994 103.071 282.839 103.085 282.652 103.085C282.368 103.085 282.089 103.024 281.817 102.902C281.547 102.78 281.322 102.594 281.143 102.344C280.967 102.094 280.879 101.778 280.879 101.398V94.8864ZM286.722 103.153C286.307 103.153 285.93 103.075 285.592 102.919C285.254 102.76 284.986 102.531 284.787 102.233C284.588 101.932 284.489 101.568 284.489 101.142C284.489 100.767 284.563 100.463 284.71 100.23C284.858 99.9943 285.055 99.8097 285.303 99.6761C285.55 99.5426 285.822 99.4432 286.121 99.3778C286.422 99.3097 286.724 99.2557 287.028 99.2159C287.426 99.1648 287.749 99.1264 287.996 99.1009C288.246 99.0724 288.428 99.0256 288.541 98.9602C288.658 98.8949 288.716 98.7812 288.716 98.6193V98.5852C288.716 98.1648 288.601 97.8381 288.371 97.6051C288.143 97.3722 287.798 97.2557 287.335 97.2557C286.855 97.2557 286.479 97.3608 286.206 97.571C285.933 97.7812 285.741 98.0057 285.631 98.2443L284.676 97.9034C284.847 97.5057 285.074 97.196 285.358 96.9744C285.645 96.75 285.957 96.5937 286.295 96.5057C286.636 96.4148 286.972 96.3693 287.301 96.3693C287.511 96.3693 287.753 96.3949 288.026 96.446C288.301 96.4943 288.567 96.5952 288.822 96.7486C289.081 96.902 289.295 97.1335 289.466 97.4432C289.636 97.7528 289.722 98.1676 289.722 98.6875V103H288.716V102.114H288.665C288.597 102.256 288.483 102.408 288.324 102.57C288.165 102.732 287.953 102.869 287.689 102.983C287.425 103.097 287.102 103.153 286.722 103.153ZM286.875 102.25C287.273 102.25 287.608 102.172 287.881 102.016C288.156 101.859 288.364 101.658 288.503 101.411C288.645 101.163 288.716 100.903 288.716 100.631V99.7102C288.673 99.7614 288.58 99.8082 288.435 99.8509C288.293 99.8906 288.128 99.9261 287.94 99.9574C287.756 99.9858 287.575 100.011 287.399 100.034C287.226 100.054 287.085 100.071 286.977 100.085C286.716 100.119 286.472 100.175 286.244 100.251C286.02 100.325 285.838 100.437 285.699 100.588C285.563 100.736 285.494 100.937 285.494 101.193C285.494 101.543 285.624 101.807 285.882 101.986C286.143 102.162 286.474 102.25 286.875 102.25ZM294.404 96.4545V97.3068H291.012V96.4545H294.404ZM292 94.8864H293.006V101.125C293.006 101.409 293.047 101.622 293.13 101.764C293.215 101.903 293.323 101.997 293.453 102.045C293.587 102.091 293.728 102.114 293.875 102.114C293.986 102.114 294.077 102.108 294.148 102.097C294.219 102.082 294.276 102.071 294.319 102.062L294.523 102.966C294.455 102.991 294.36 103.017 294.238 103.043C294.115 103.071 293.961 103.085 293.773 103.085C293.489 103.085 293.211 103.024 292.938 102.902C292.668 102.78 292.444 102.594 292.265 102.344C292.088 102.094 292 101.778 292 101.398V94.8864ZM298.591 103.136C297.96 103.136 297.416 102.997 296.958 102.719C296.504 102.438 296.153 102.045 295.906 101.543C295.662 101.037 295.539 100.449 295.539 99.7784C295.539 99.108 295.662 98.517 295.906 98.0057C296.153 97.4915 296.497 97.0909 296.937 96.804C297.38 96.5142 297.897 96.3693 298.488 96.3693C298.829 96.3693 299.166 96.4261 299.498 96.5398C299.831 96.6534 300.133 96.8381 300.406 97.0938C300.679 97.3466 300.896 97.6818 301.058 98.0994C301.22 98.517 301.301 99.0312 301.301 99.642V100.068H296.255V99.1989H300.278C300.278 98.8295 300.204 98.5 300.056 98.2102C299.912 97.9205 299.704 97.6918 299.434 97.5241C299.167 97.3565 298.852 97.2727 298.488 97.2727C298.088 97.2727 297.741 97.3722 297.449 97.571C297.159 97.767 296.936 98.0227 296.779 98.3381C296.623 98.6534 296.545 98.9915 296.545 99.3523V99.9318C296.545 100.426 296.63 100.845 296.801 101.189C296.974 101.53 297.214 101.79 297.521 101.969C297.828 102.145 298.184 102.233 298.591 102.233C298.855 102.233 299.093 102.196 299.306 102.122C299.522 102.045 299.708 101.932 299.865 101.781C300.021 101.628 300.142 101.437 300.227 101.21L301.199 101.483C301.096 101.812 300.924 102.102 300.683 102.352C300.441 102.599 300.143 102.793 299.788 102.932C299.433 103.068 299.034 103.136 298.591 103.136ZM307.467 97.9205L306.564 98.1761C306.507 98.0256 306.423 97.8793 306.312 97.7372C306.204 97.5923 306.056 97.473 305.869 97.3793C305.681 97.2855 305.441 97.2386 305.149 97.2386C304.748 97.2386 304.414 97.331 304.147 97.5156C303.883 97.6974 303.751 97.929 303.751 98.2102C303.751 98.4602 303.842 98.6577 304.024 98.8026C304.206 98.9474 304.49 99.0682 304.876 99.1648L305.848 99.4034C306.433 99.5455 306.869 99.7628 307.156 100.055C307.443 100.345 307.586 100.719 307.586 101.176C307.586 101.551 307.478 101.886 307.262 102.182C307.049 102.477 306.751 102.71 306.368 102.881C305.984 103.051 305.538 103.136 305.029 103.136C304.362 103.136 303.809 102.991 303.372 102.702C302.934 102.412 302.657 101.989 302.541 101.432L303.495 101.193C303.586 101.545 303.758 101.81 304.011 101.986C304.267 102.162 304.6 102.25 305.012 102.25C305.481 102.25 305.853 102.151 306.129 101.952C306.407 101.75 306.547 101.509 306.547 101.227C306.547 101 306.467 100.81 306.308 100.656C306.149 100.5 305.904 100.384 305.575 100.307L304.484 100.051C303.885 99.9091 303.444 99.6889 303.163 99.3906C302.885 99.0895 302.745 98.7131 302.745 98.2614C302.745 97.892 302.849 97.5653 303.056 97.2812C303.267 96.9972 303.552 96.7741 303.913 96.6122C304.277 96.4503 304.689 96.3693 305.149 96.3693C305.797 96.3693 306.305 96.5114 306.674 96.7955C307.047 97.0795 307.311 97.4545 307.467 97.9205Z" fill="#1C1C1C"/>
<path d="M226 135C226 136.657 224.657 138 223 138C221.343 138 220 136.657 220 135C220 133.343 221.343 132 223 132C224.657 132 226 133.343 226 135Z" fill="#C6C7F8"/>
<path d="M239.08 133H238.023C237.96 132.696 237.851 132.429 237.695 132.199C237.541 131.969 237.354 131.776 237.132 131.619C236.913 131.46 236.67 131.341 236.403 131.261C236.136 131.182 235.858 131.142 235.568 131.142C235.04 131.142 234.561 131.276 234.132 131.543C233.706 131.81 233.366 132.203 233.114 132.723C232.864 133.243 232.739 133.881 232.739 134.636C232.739 135.392 232.864 136.03 233.114 136.55C233.366 137.07 233.706 137.463 234.132 137.73C234.561 137.997 235.04 138.131 235.568 138.131C235.858 138.131 236.136 138.091 236.403 138.011C236.67 137.932 236.913 137.814 237.132 137.658C237.354 137.499 237.541 137.304 237.695 137.074C237.851 136.841 237.96 136.574 238.023 136.273H239.08C239 136.719 238.855 137.118 238.645 137.47C238.435 137.822 238.173 138.122 237.861 138.369C237.548 138.614 237.197 138.8 236.808 138.928C236.422 139.055 236.009 139.119 235.568 139.119C234.824 139.119 234.162 138.938 233.582 138.574C233.003 138.21 232.547 137.693 232.214 137.023C231.882 136.352 231.716 135.557 231.716 134.636C231.716 133.716 231.882 132.92 232.214 132.25C232.547 131.58 233.003 131.062 233.582 130.699C234.162 130.335 234.824 130.153 235.568 130.153C236.009 130.153 236.422 130.217 236.808 130.345C237.197 130.473 237.548 130.661 237.861 130.908C238.173 131.152 238.435 131.45 238.645 131.803C238.855 132.152 239 132.551 239.08 133ZM242.577 139.153C242.162 139.153 241.786 139.075 241.448 138.919C241.11 138.76 240.841 138.531 240.642 138.233C240.444 137.932 240.344 137.568 240.344 137.142C240.344 136.767 240.418 136.463 240.566 136.23C240.713 135.994 240.911 135.81 241.158 135.676C241.405 135.543 241.678 135.443 241.976 135.378C242.277 135.31 242.58 135.256 242.884 135.216C243.282 135.165 243.604 135.126 243.851 135.101C244.101 135.072 244.283 135.026 244.397 134.96C244.513 134.895 244.571 134.781 244.571 134.619V134.585C244.571 134.165 244.456 133.838 244.226 133.605C243.999 133.372 243.654 133.256 243.191 133.256C242.711 133.256 242.334 133.361 242.061 133.571C241.789 133.781 241.597 134.006 241.486 134.244L240.532 133.903C240.702 133.506 240.929 133.196 241.213 132.974C241.5 132.75 241.813 132.594 242.151 132.506C242.492 132.415 242.827 132.369 243.157 132.369C243.367 132.369 243.608 132.395 243.881 132.446C244.157 132.494 244.422 132.595 244.678 132.749C244.936 132.902 245.151 133.134 245.321 133.443C245.492 133.753 245.577 134.168 245.577 134.688V139H244.571V138.114H244.52C244.452 138.256 244.338 138.408 244.179 138.57C244.02 138.732 243.809 138.869 243.544 138.983C243.28 139.097 242.958 139.153 242.577 139.153ZM242.73 138.25C243.128 138.25 243.463 138.172 243.736 138.016C244.012 137.859 244.219 137.658 244.358 137.411C244.5 137.163 244.571 136.903 244.571 136.631V135.71C244.529 135.761 244.435 135.808 244.29 135.851C244.148 135.891 243.983 135.926 243.796 135.957C243.611 135.986 243.431 136.011 243.255 136.034C243.081 136.054 242.941 136.071 242.833 136.085C242.571 136.119 242.327 136.175 242.1 136.251C241.875 136.325 241.694 136.437 241.554 136.588C241.418 136.736 241.35 136.937 241.35 137.193C241.35 137.543 241.479 137.807 241.738 137.986C241.999 138.162 242.33 138.25 242.73 138.25ZM248.418 135.062V139H247.413V132.455H248.384V133.477H248.469C248.623 133.145 248.856 132.878 249.168 132.676C249.481 132.472 249.884 132.369 250.379 132.369C250.822 132.369 251.21 132.46 251.542 132.642C251.874 132.821 252.133 133.094 252.317 133.46C252.502 133.824 252.594 134.284 252.594 134.841V139H251.589V134.909C251.589 134.395 251.455 133.994 251.188 133.707C250.921 133.418 250.555 133.273 250.089 133.273C249.768 133.273 249.481 133.342 249.228 133.482C248.978 133.621 248.781 133.824 248.636 134.091C248.491 134.358 248.418 134.682 248.418 135.062ZM256.358 139.153C255.944 139.153 255.567 139.075 255.229 138.919C254.891 138.76 254.623 138.531 254.424 138.233C254.225 137.932 254.125 137.568 254.125 137.142C254.125 136.767 254.199 136.463 254.347 136.23C254.495 135.994 254.692 135.81 254.939 135.676C255.186 135.543 255.459 135.443 255.757 135.378C256.059 135.31 256.361 135.256 256.665 135.216C257.063 135.165 257.385 135.126 257.632 135.101C257.882 135.072 258.064 135.026 258.178 134.96C258.294 134.895 258.353 134.781 258.353 134.619V134.585C258.353 134.165 258.238 133.838 258.007 133.605C257.78 133.372 257.435 133.256 256.972 133.256C256.492 133.256 256.115 133.361 255.843 133.571C255.57 133.781 255.378 134.006 255.267 134.244L254.313 133.903C254.483 133.506 254.711 133.196 254.995 132.974C255.282 132.75 255.594 132.594 255.932 132.506C256.273 132.415 256.608 132.369 256.938 132.369C257.148 132.369 257.39 132.395 257.662 132.446C257.938 132.494 258.203 132.595 258.459 132.749C258.718 132.902 258.932 133.134 259.103 133.443C259.273 133.753 259.358 134.168 259.358 134.688V139H258.353V138.114H258.301C258.233 138.256 258.12 138.408 257.961 138.57C257.801 138.732 257.59 138.869 257.326 138.983C257.061 139.097 256.739 139.153 256.358 139.153ZM256.512 138.25C256.909 138.25 257.245 138.172 257.517 138.016C257.793 137.859 258 137.658 258.14 137.411C258.282 137.163 258.353 136.903 258.353 136.631V135.71C258.31 135.761 258.216 135.808 258.071 135.851C257.929 135.891 257.765 135.926 257.577 135.957C257.392 135.986 257.212 136.011 257.036 136.034C256.863 136.054 256.722 136.071 256.614 136.085C256.353 136.119 256.108 136.175 255.881 136.251C255.657 136.325 255.475 136.437 255.336 136.588C255.199 136.736 255.131 136.937 255.131 137.193C255.131 137.543 255.26 137.807 255.519 137.986C255.78 138.162 256.111 138.25 256.512 138.25ZM263.665 139.136C263.12 139.136 262.638 138.999 262.221 138.723C261.803 138.445 261.477 138.053 261.241 137.547C261.005 137.038 260.887 136.438 260.887 135.744C260.887 135.057 261.005 134.46 261.241 133.955C261.477 133.449 261.805 133.058 262.225 132.783C262.646 132.507 263.131 132.369 263.683 132.369C264.109 132.369 264.445 132.44 264.692 132.582C264.942 132.722 265.133 132.881 265.263 133.06C265.397 133.236 265.501 133.381 265.575 133.494H265.66V130.273H266.665V139H265.694V137.994H265.575C265.501 138.114 265.396 138.264 265.259 138.446C265.123 138.625 264.928 138.786 264.675 138.928C264.423 139.067 264.086 139.136 263.665 139.136ZM263.802 138.233C264.205 138.233 264.546 138.128 264.825 137.918C265.103 137.705 265.315 137.411 265.46 137.036C265.604 136.658 265.677 136.222 265.677 135.727C265.677 135.239 265.606 134.811 265.464 134.445C265.322 134.075 265.112 133.788 264.833 133.584C264.555 133.376 264.211 133.273 263.802 133.273C263.376 133.273 263.021 133.382 262.737 133.601C262.455 133.817 262.244 134.111 262.102 134.483C261.962 134.852 261.893 135.267 261.893 135.727C261.893 136.193 261.964 136.616 262.106 136.997C262.251 137.375 262.464 137.676 262.745 137.901C263.029 138.122 263.381 138.233 263.802 138.233ZM270.573 139.153C270.158 139.153 269.782 139.075 269.444 138.919C269.106 138.76 268.837 138.531 268.638 138.233C268.44 137.932 268.34 137.568 268.34 137.142C268.34 136.767 268.414 136.463 268.562 136.23C268.71 135.994 268.907 135.81 269.154 135.676C269.401 135.543 269.674 135.443 269.972 135.378C270.273 135.31 270.576 135.256 270.88 135.216C271.278 135.165 271.6 135.126 271.847 135.101C272.097 135.072 272.279 135.026 272.393 134.96C272.509 134.895 272.567 134.781 272.567 134.619V134.585C272.567 134.165 272.452 133.838 272.222 133.605C271.995 133.372 271.65 133.256 271.187 133.256C270.707 133.256 270.33 133.361 270.058 133.571C269.785 133.781 269.593 134.006 269.482 134.244L268.528 133.903C268.698 133.506 268.925 133.196 269.21 132.974C269.496 132.75 269.809 132.594 270.147 132.506C270.488 132.415 270.823 132.369 271.153 132.369C271.363 132.369 271.604 132.395 271.877 132.446C272.153 132.494 272.418 132.595 272.674 132.749C272.933 132.902 273.147 133.134 273.317 133.443C273.488 133.753 273.573 134.168 273.573 134.688V139H272.567V138.114H272.516C272.448 138.256 272.335 138.408 272.175 138.57C272.016 138.732 271.805 138.869 271.54 138.983C271.276 139.097 270.954 139.153 270.573 139.153ZM270.727 138.25C271.124 138.25 271.46 138.172 271.732 138.016C272.008 137.859 272.215 137.658 272.354 137.411C272.496 137.163 272.567 136.903 272.567 136.631V135.71C272.525 135.761 272.431 135.808 272.286 135.851C272.144 135.891 271.979 135.926 271.792 135.957C271.607 135.986 271.427 136.011 271.251 136.034C271.077 136.054 270.937 136.071 270.829 136.085C270.567 136.119 270.323 136.175 270.096 136.251C269.871 136.325 269.69 136.437 269.55 136.588C269.414 136.736 269.346 136.937 269.346 137.193C269.346 137.543 269.475 137.807 269.734 137.986C269.995 138.162 270.326 138.25 270.727 138.25Z" fill="#1C1C1C"/>
<path d="M226 171C226 172.657 224.657 174 223 174C221.343 174 220 172.657 220 171C220 169.343 221.343 168 223 168C224.657 168 226 169.343 226 171Z" fill="#BAEDBD"/>
<path d="M232.057 166.273H233.318L236.284 173.517H236.386L239.352 166.273H240.614V175H239.625V168.369H239.54L236.812 175H235.858L233.131 168.369H233.045V175H232.057V166.273ZM245.341 175.136C244.71 175.136 244.166 174.997 243.708 174.719C243.254 174.438 242.903 174.045 242.656 173.543C242.412 173.037 242.289 172.449 242.289 171.778C242.289 171.108 242.412 170.517 242.656 170.006C242.903 169.491 243.247 169.091 243.687 168.804C244.13 168.514 244.647 168.369 245.238 168.369C245.579 168.369 245.916 168.426 246.248 168.54C246.581 168.653 246.883 168.838 247.156 169.094C247.429 169.347 247.646 169.682 247.808 170.099C247.97 170.517 248.051 171.031 248.051 171.642V172.068H243.005V171.199H247.028C247.028 170.83 246.954 170.5 246.806 170.21C246.662 169.92 246.454 169.692 246.184 169.524C245.917 169.357 245.602 169.273 245.238 169.273C244.838 169.273 244.491 169.372 244.199 169.571C243.909 169.767 243.686 170.023 243.529 170.338C243.373 170.653 243.295 170.991 243.295 171.352V171.932C243.295 172.426 243.38 172.845 243.551 173.189C243.724 173.53 243.964 173.79 244.271 173.969C244.578 174.145 244.934 174.233 245.341 174.233C245.605 174.233 245.843 174.196 246.056 174.122C246.272 174.045 246.458 173.932 246.615 173.781C246.771 173.628 246.892 173.437 246.977 173.21L247.949 173.483C247.846 173.812 247.674 174.102 247.433 174.352C247.191 174.599 246.893 174.793 246.538 174.932C246.183 175.068 245.784 175.136 245.341 175.136ZM250.155 168.455L251.723 171.131L253.291 168.455H254.45L252.337 171.727L254.45 175H253.291L251.723 172.46L250.155 175H248.996L251.075 171.727L248.996 168.455H250.155ZM255.885 175V168.455H256.891V175H255.885ZM256.397 167.364C256.201 167.364 256.032 167.297 255.89 167.163C255.75 167.03 255.681 166.869 255.681 166.682C255.681 166.494 255.75 166.334 255.89 166.2C256.032 166.067 256.201 166 256.397 166C256.593 166 256.76 166.067 256.9 166.2C257.042 166.334 257.113 166.494 257.113 166.682C257.113 166.869 257.042 167.03 256.9 167.163C256.76 167.297 256.593 167.364 256.397 167.364ZM261.392 175.136C260.778 175.136 260.25 174.991 259.807 174.702C259.364 174.412 259.023 174.013 258.784 173.504C258.545 172.996 258.426 172.415 258.426 171.761C258.426 171.097 258.548 170.51 258.793 170.001C259.04 169.49 259.384 169.091 259.824 168.804C260.267 168.514 260.784 168.369 261.375 168.369C261.835 168.369 262.25 168.455 262.619 168.625C262.989 168.795 263.291 169.034 263.527 169.341C263.763 169.648 263.909 170.006 263.966 170.415H262.96C262.884 170.116 262.713 169.852 262.449 169.622C262.188 169.389 261.835 169.273 261.392 169.273C261 169.273 260.656 169.375 260.361 169.58C260.068 169.781 259.839 170.067 259.675 170.436C259.513 170.803 259.432 171.233 259.432 171.727C259.432 172.233 259.511 172.673 259.67 173.048C259.832 173.423 260.06 173.714 260.352 173.922C260.648 174.129 260.994 174.233 261.392 174.233C261.653 174.233 261.891 174.188 262.104 174.097C262.317 174.006 262.497 173.875 262.645 173.705C262.793 173.534 262.898 173.33 262.96 173.091H263.966C263.909 173.477 263.768 173.825 263.544 174.135C263.322 174.442 263.028 174.686 262.662 174.868C262.298 175.047 261.875 175.136 261.392 175.136ZM268.095 175.136C267.504 175.136 266.986 174.996 266.54 174.714C266.097 174.433 265.75 174.04 265.5 173.534C265.253 173.028 265.129 172.437 265.129 171.761C265.129 171.08 265.253 170.484 265.5 169.976C265.75 169.467 266.097 169.072 266.54 168.791C266.986 168.51 267.504 168.369 268.095 168.369C268.686 168.369 269.203 168.51 269.646 168.791C270.092 169.072 270.439 169.467 270.686 169.976C270.936 170.484 271.061 171.08 271.061 171.761C271.061 172.437 270.936 173.028 270.686 173.534C270.439 174.04 270.092 174.433 269.646 174.714C269.203 174.996 268.686 175.136 268.095 175.136ZM268.095 174.233C268.544 174.233 268.913 174.118 269.203 173.888C269.493 173.658 269.707 173.355 269.847 172.98C269.986 172.605 270.055 172.199 270.055 171.761C270.055 171.324 269.986 170.916 269.847 170.538C269.707 170.161 269.493 169.855 269.203 169.622C268.913 169.389 268.544 169.273 268.095 169.273C267.646 169.273 267.277 169.389 266.987 169.622C266.697 169.855 266.483 170.161 266.344 170.538C266.205 170.916 266.135 171.324 266.135 171.761C266.135 172.199 266.205 172.605 266.344 172.98C266.483 173.355 266.697 173.658 266.987 173.888C267.277 174.118 267.646 174.233 268.095 174.233Z" fill="#1C1C1C"/>
<path d="M226 207C226 208.657 224.657 210 223 210C221.343 210 220 208.657 220 207C220 205.343 221.343 204 223 204C224.657 204 226 205.343 226 207Z" fill="#95A4FC"/>
<path d="M239.42 206.636C239.42 207.557 239.254 208.352 238.922 209.023C238.589 209.693 238.134 210.21 237.554 210.574C236.974 210.938 236.313 211.119 235.568 211.119C234.824 211.119 234.162 210.938 233.582 210.574C233.003 210.21 232.547 209.693 232.214 209.023C231.882 208.352 231.716 207.557 231.716 206.636C231.716 205.716 231.882 204.92 232.214 204.25C232.547 203.58 233.003 203.062 233.582 202.699C234.162 202.335 234.824 202.153 235.568 202.153C236.313 202.153 236.974 202.335 237.554 202.699C238.134 203.062 238.589 203.58 238.922 204.25C239.254 204.92 239.42 205.716 239.42 206.636ZM238.398 206.636C238.398 205.881 238.271 205.243 238.018 204.723C237.768 204.203 237.429 203.81 237 203.543C236.574 203.276 236.097 203.142 235.568 203.142C235.04 203.142 234.561 203.276 234.132 203.543C233.706 203.81 233.366 204.203 233.114 204.723C232.864 205.243 232.739 205.881 232.739 206.636C232.739 207.392 232.864 208.03 233.114 208.55C233.366 209.07 233.706 209.463 234.132 209.73C234.561 209.997 235.04 210.131 235.568 210.131C236.097 210.131 236.574 209.997 237 209.73C237.429 209.463 237.768 209.07 238.018 208.55C238.271 208.03 238.398 207.392 238.398 206.636ZM243.908 204.455V205.307H240.516V204.455H243.908ZM241.504 202.886H242.51V209.125C242.51 209.409 242.551 209.622 242.634 209.764C242.719 209.903 242.827 209.997 242.957 210.045C243.091 210.091 243.232 210.114 243.379 210.114C243.49 210.114 243.581 210.108 243.652 210.097C243.723 210.082 243.78 210.071 243.822 210.062L244.027 210.966C243.959 210.991 243.864 211.017 243.741 211.043C243.619 211.071 243.464 211.085 243.277 211.085C242.993 211.085 242.714 211.024 242.442 210.902C242.172 210.78 241.947 210.594 241.768 210.344C241.592 210.094 241.504 209.778 241.504 209.398V202.886ZM246.567 207.062V211H245.561V202.273H246.567V205.477H246.652C246.805 205.139 247.036 204.871 247.342 204.672C247.652 204.47 248.064 204.369 248.578 204.369C249.024 204.369 249.415 204.459 249.75 204.638C250.085 204.814 250.345 205.085 250.53 205.452C250.717 205.815 250.811 206.278 250.811 206.841V211H249.805V206.909C249.805 206.389 249.67 205.987 249.401 205.703C249.134 205.416 248.763 205.273 248.288 205.273C247.959 205.273 247.663 205.342 247.402 205.482C247.143 205.621 246.939 205.824 246.788 206.091C246.641 206.358 246.567 206.682 246.567 207.062ZM255.395 211.136C254.765 211.136 254.221 210.997 253.763 210.719C253.309 210.438 252.958 210.045 252.711 209.543C252.466 209.037 252.344 208.449 252.344 207.778C252.344 207.108 252.466 206.517 252.711 206.006C252.958 205.491 253.301 205.091 253.742 204.804C254.185 204.514 254.702 204.369 255.293 204.369C255.634 204.369 255.971 204.426 256.303 204.54C256.635 204.653 256.938 204.838 257.211 205.094C257.483 205.347 257.701 205.682 257.863 206.099C258.025 206.517 258.105 207.031 258.105 207.642V208.068H253.06V207.199H257.083C257.083 206.83 257.009 206.5 256.861 206.21C256.716 205.92 256.509 205.692 256.239 205.524C255.972 205.357 255.657 205.273 255.293 205.273C254.892 205.273 254.546 205.372 254.253 205.571C253.963 205.767 253.74 206.023 253.584 206.338C253.428 206.653 253.35 206.991 253.35 207.352V207.932C253.35 208.426 253.435 208.845 253.605 209.189C253.779 209.53 254.019 209.79 254.326 209.969C254.632 210.145 254.989 210.233 255.395 210.233C255.659 210.233 255.898 210.196 256.111 210.122C256.327 210.045 256.513 209.932 256.669 209.781C256.826 209.628 256.946 209.437 257.032 209.21L258.003 209.483C257.901 209.812 257.729 210.102 257.488 210.352C257.246 210.599 256.948 210.793 256.593 210.932C256.238 211.068 255.838 211.136 255.395 211.136ZM259.635 211V204.455H260.607V205.443H260.675C260.794 205.119 261.01 204.857 261.323 204.655C261.635 204.453 261.988 204.352 262.38 204.352C262.453 204.352 262.546 204.354 262.657 204.357C262.767 204.359 262.851 204.364 262.908 204.369V205.392C262.874 205.384 262.796 205.371 262.674 205.354C262.554 205.334 262.428 205.324 262.294 205.324C261.976 205.324 261.692 205.391 261.442 205.524C261.195 205.655 260.999 205.837 260.854 206.07C260.712 206.3 260.641 206.562 260.641 206.858V211H259.635Z" fill="#1C1C1C"/>
</svg>
