<svg width="432" height="273" viewBox="0 0 432 273" fill="none" xmlns="http://www.w3.org/2000/svg">
<rect width="432" height="273" rx="16" fill="white" fill-opacity="0.05"/>
<path d="M24.5568 30.3643V28.8182H32.6804V30.3643H29.5334V39H27.7038V30.3643H24.5568ZM33.3739 39V31.3636H35.119V32.6364H35.1985C35.3377 32.1955 35.5763 31.8558 35.9144 31.6172C36.2558 31.3752 36.6452 31.2543 37.0827 31.2543C37.1822 31.2543 37.2932 31.2592 37.4158 31.2692C37.5418 31.2758 37.6462 31.2874 37.729 31.304V32.9595C37.6528 32.933 37.5318 32.9098 37.3661 32.8899C37.2037 32.8667 37.0463 32.8551 36.8938 32.8551C36.5657 32.8551 36.2707 32.9264 36.0089 33.0689C35.7504 33.2081 35.5465 33.402 35.3974 33.6506C35.2482 33.8991 35.1737 34.1858 35.1737 34.5107V39H33.3739ZM40.9854 39.1541C40.5015 39.1541 40.0657 39.0679 39.6779 38.8956C39.2934 38.7199 38.9885 38.4614 38.7631 38.12C38.5411 37.7786 38.43 37.3577 38.43 36.8572C38.43 36.4264 38.5096 36.0701 38.6687 35.7884C38.8278 35.5066 39.0449 35.2812 39.32 35.1122C39.5951 34.9432 39.9049 34.8156 40.2496 34.7294C40.5977 34.6399 40.9573 34.5753 41.3285 34.5355C41.7759 34.4891 42.1388 34.4477 42.4173 34.4112C42.6957 34.3714 42.8978 34.3118 43.0238 34.2322C43.1531 34.1494 43.2177 34.0218 43.2177 33.8494V33.8196C43.2177 33.4451 43.1067 33.1551 42.8846 32.9496C42.6625 32.7441 42.3427 32.6413 41.9251 32.6413C41.4843 32.6413 41.1346 32.7375 40.8761 32.9297C40.6209 33.1219 40.4485 33.349 40.359 33.6108L38.6786 33.3722C38.8112 32.9081 39.0299 32.5204 39.3349 32.2088C39.6398 31.8939 40.0127 31.6586 40.4535 31.5028C40.8943 31.3438 41.3815 31.2642 41.9151 31.2642C42.283 31.2642 42.6493 31.3073 43.0138 31.3935C43.3784 31.4796 43.7115 31.6222 44.0131 31.821C44.3147 32.0166 44.5567 32.2834 44.739 32.6214C44.9246 32.9595 45.0174 33.3821 45.0174 33.8892V39H43.2873V37.951H43.2276C43.1183 38.1631 42.9641 38.362 42.7653 38.5476C42.5697 38.7299 42.3228 38.8774 42.0245 38.9901C41.7295 39.0994 41.3832 39.1541 40.9854 39.1541ZM41.4528 37.8317C41.814 37.8317 42.1272 37.7604 42.3924 37.6179C42.6576 37.4721 42.8614 37.2798 43.0039 37.0412C43.1497 36.8026 43.2227 36.5424 43.2227 36.2607V35.3608C43.1663 35.4072 43.0702 35.4503 42.9343 35.4901C42.8017 35.5298 42.6526 35.5646 42.4869 35.5945C42.3211 35.6243 42.1571 35.6508 41.9947 35.674C41.8323 35.6972 41.6914 35.7171 41.5721 35.7337C41.3036 35.7701 41.0633 35.8298 40.8512 35.9126C40.6391 35.9955 40.4717 36.1115 40.3491 36.2607C40.2264 36.4065 40.1651 36.5954 40.1651 36.8274C40.1651 37.1589 40.2861 37.4091 40.5281 37.5781C40.77 37.7472 41.0782 37.8317 41.4528 37.8317ZM50.695 31.3636V32.7557H46.1808V31.3636H50.695ZM47.3093 39V30.6428C47.3093 30.129 47.4154 29.7015 47.6275 29.3601C47.8429 29.0187 48.1313 28.7635 48.4925 28.5945C48.8538 28.4254 49.2549 28.3409 49.6957 28.3409C50.0072 28.3409 50.284 28.3658 50.5259 28.4155C50.7679 28.4652 50.9469 28.5099 51.0629 28.5497L50.7049 29.9418C50.6287 29.9186 50.5326 29.8954 50.4165 29.8722C50.3005 29.8456 50.1713 29.8324 50.0288 29.8324C49.694 29.8324 49.457 29.9136 49.3178 30.076C49.1819 30.2351 49.114 30.4638 49.114 30.7621V39H47.3093ZM55.9723 31.3636V32.7557H51.4581V31.3636H55.9723ZM52.5866 39V30.6428C52.5866 30.129 52.6927 29.7015 52.9048 29.3601C53.1203 29.0187 53.4086 28.7635 53.7699 28.5945C54.1312 28.4254 54.5322 28.3409 54.973 28.3409C55.2846 28.3409 55.5613 28.3658 55.8033 28.4155C56.0452 28.4652 56.2242 28.5099 56.3402 28.5497L55.9822 29.9418C55.906 29.9186 55.8099 29.8954 55.6939 29.8722C55.5779 29.8456 55.4486 29.8324 55.3061 29.8324C54.9714 29.8324 54.7344 29.9136 54.5952 30.076C54.4593 30.2351 54.3913 30.4638 54.3913 30.7621V39H52.5866ZM57.3817 39V31.3636H59.1815V39H57.3817ZM58.2866 30.2798C58.0015 30.2798 57.7563 30.1854 57.5508 29.9964C57.3453 29.8042 57.2425 29.5739 57.2425 29.3054C57.2425 29.0336 57.3453 28.8033 57.5508 28.6143C57.7563 28.4221 58.0015 28.326 58.2866 28.326C58.5749 28.326 58.8202 28.4221 59.0224 28.6143C59.2279 28.8033 59.3306 29.0336 59.3306 29.3054C59.3306 29.5739 59.2279 29.8042 59.0224 29.9964C58.8202 30.1854 58.5749 30.2798 58.2866 30.2798ZM64.3631 39.1491C63.6008 39.1491 62.9462 38.9818 62.3993 38.647C61.8558 38.3123 61.4365 37.8499 61.1415 37.2599C60.8498 36.6667 60.704 35.9839 60.704 35.2116C60.704 34.4361 60.8532 33.7517 61.1515 33.1584C61.4498 32.5618 61.8707 32.0978 62.4142 31.7663C62.9611 31.4316 63.6074 31.2642 64.3532 31.2642C64.973 31.2642 65.5215 31.3786 65.9988 31.6072C66.4793 31.8326 66.8622 32.1525 67.1472 32.5668C67.4322 32.9777 67.5946 33.4583 67.6344 34.0085H65.9142C65.8446 33.6406 65.6789 33.334 65.4171 33.0888C65.1586 32.8402 64.8122 32.7159 64.378 32.7159C64.0101 32.7159 63.687 32.8153 63.4086 33.0142C63.1301 33.2098 62.9131 33.4915 62.7573 33.8594C62.6048 34.2273 62.5286 34.6681 62.5286 35.1818C62.5286 35.7022 62.6048 36.1496 62.7573 36.5241C62.9097 36.8954 63.1235 37.1821 63.3986 37.3842C63.677 37.5831 64.0035 37.6825 64.378 37.6825C64.6432 37.6825 64.8801 37.6328 65.089 37.5334C65.3011 37.4306 65.4784 37.2831 65.6209 37.0909C65.7634 36.8987 65.8612 36.665 65.9142 36.3899H67.6344C67.5913 36.9302 67.4322 37.4091 67.1571 37.8267C66.882 38.241 66.5075 38.5658 66.0336 38.8011C65.5596 39.0331 65.0028 39.1491 64.3631 39.1491ZM72.6644 39V28.8182H74.4641V32.6264H74.5387C74.6315 32.4408 74.7624 32.2436 74.9315 32.0348C75.1005 31.8227 75.3292 31.642 75.6175 31.4929C75.9059 31.3404 76.2738 31.2642 76.7212 31.2642C77.3112 31.2642 77.8432 31.415 78.3171 31.7166C78.7944 32.0149 79.1722 32.4574 79.4506 33.044C79.7324 33.6274 79.8732 34.3433 79.8732 35.1918C79.8732 36.0303 79.7357 36.7429 79.4606 37.3295C79.1855 37.9162 78.811 38.3636 78.337 38.6719C77.863 38.9801 77.3261 39.1342 76.7262 39.1342C76.2887 39.1342 75.9258 39.0613 75.6374 38.9155C75.3491 38.7696 75.1171 38.594 74.9414 38.3885C74.7691 38.1797 74.6348 37.9825 74.5387 37.7969H74.4343V39H72.6644ZM74.4293 35.1818C74.4293 35.6757 74.4989 36.1082 74.6381 36.4794C74.7807 36.8506 74.9845 37.1406 75.2496 37.3494C75.5181 37.5549 75.8429 37.6577 76.2241 37.6577C76.6218 37.6577 76.9549 37.5516 77.2234 37.3395C77.4918 37.1241 77.694 36.8307 77.8299 36.4595C77.9691 36.085 78.0387 35.6591 78.0387 35.1818C78.0387 34.7079 77.9708 34.2869 77.8349 33.919C77.699 33.5511 77.4968 33.2628 77.2283 33.054C76.9599 32.8452 76.6251 32.7408 76.2241 32.7408C75.8396 32.7408 75.5131 32.8419 75.2447 33.044C74.9762 33.2462 74.7724 33.5296 74.6332 33.8942C74.4973 34.2588 74.4293 34.688 74.4293 35.1818ZM82.2621 41.8636C82.0168 41.8636 81.7898 41.8438 81.581 41.804C81.3755 41.7675 81.2114 41.7244 81.0888 41.6747L81.5064 40.2727C81.7682 40.349 82.0019 40.3854 82.2074 40.3821C82.4129 40.3788 82.5935 40.3142 82.7493 40.1882C82.9084 40.0656 83.0426 39.8601 83.152 39.5717L83.3061 39.1591L80.5369 31.3636H82.446L84.206 37.1307H84.2855L86.0504 31.3636H87.9645L84.907 39.9247C84.7644 40.3291 84.5755 40.6754 84.3402 40.9638C84.1049 41.2554 83.8165 41.4775 83.4751 41.63C83.1371 41.7857 82.7327 41.8636 82.2621 41.8636ZM96.2124 39H92.7621V28.8182H96.282C97.2929 28.8182 98.1612 29.022 98.8871 29.4297C99.6162 29.834 100.176 30.4157 100.567 31.1747C100.959 31.9337 101.154 32.8419 101.154 33.8991C101.154 34.9598 100.957 35.8712 100.562 36.6335C100.171 37.3958 99.6063 37.9808 98.8672 38.3885C98.1314 38.7962 97.2464 39 96.2124 39ZM94.6065 37.4041H96.1229C96.8321 37.4041 97.4238 37.2749 97.8977 37.0163C98.3717 36.7545 98.728 36.3651 98.9666 35.848C99.2053 35.3277 99.3246 34.678 99.3246 33.8991C99.3246 33.1203 99.2053 32.474 98.9666 31.9602C98.728 31.4432 98.375 31.0571 97.9077 30.8018C97.4437 30.5433 96.867 30.4141 96.1776 30.4141H94.6065V37.4041ZM106.208 39.1491C105.442 39.1491 104.781 38.9901 104.224 38.6719C103.671 38.3504 103.245 37.8963 102.946 37.3097C102.648 36.7197 102.499 36.0253 102.499 35.2266C102.499 34.4411 102.648 33.7517 102.946 33.1584C103.248 32.5618 103.669 32.0978 104.209 31.7663C104.749 31.4316 105.384 31.2642 106.113 31.2642C106.584 31.2642 107.028 31.3404 107.446 31.4929C107.867 31.642 108.238 31.8741 108.559 32.1889C108.884 32.5038 109.139 32.9048 109.325 33.392C109.511 33.8759 109.603 34.4527 109.603 35.1222V35.674H103.344V34.4609H107.878C107.875 34.1162 107.8 33.8097 107.654 33.5412C107.509 33.2694 107.305 33.0556 107.043 32.8999C106.784 32.7441 106.483 32.6662 106.138 32.6662C105.77 32.6662 105.447 32.7557 105.169 32.9347C104.89 33.1103 104.673 33.3423 104.517 33.6307C104.365 33.9157 104.287 34.2289 104.284 34.5703V35.6293C104.284 36.0734 104.365 36.4545 104.527 36.7727C104.69 37.0876 104.917 37.3295 105.208 37.4986C105.5 37.6643 105.842 37.7472 106.233 37.7472C106.494 37.7472 106.731 37.7107 106.944 37.6378C107.156 37.5616 107.34 37.4505 107.495 37.3047C107.651 37.1589 107.769 36.9782 107.848 36.7628L109.529 36.9517C109.423 37.3958 109.221 37.7836 108.922 38.1151C108.627 38.4432 108.249 38.6984 107.789 38.8807C107.328 39.0597 106.801 39.1491 106.208 39.1491ZM117.728 31.3636L115.009 39H113.02L110.301 31.3636H112.22L113.975 37.0362H114.054L115.814 31.3636H117.728ZM118.974 39V31.3636H120.773V39H118.974ZM119.878 30.2798C119.593 30.2798 119.348 30.1854 119.143 29.9964C118.937 29.8042 118.834 29.5739 118.834 29.3054C118.834 29.0336 118.937 28.8033 119.143 28.6143C119.348 28.4221 119.593 28.326 119.878 28.326C120.167 28.326 120.412 28.4221 120.614 28.6143C120.82 28.8033 120.922 29.0336 120.922 29.3054C120.922 29.5739 120.82 29.8042 120.614 29.9964C120.412 30.1854 120.167 30.2798 119.878 30.2798ZM125.955 39.1491C125.193 39.1491 124.538 38.9818 123.991 38.647C123.448 38.3123 123.028 37.8499 122.733 37.2599C122.442 36.6667 122.296 35.9839 122.296 35.2116C122.296 34.4361 122.445 33.7517 122.743 33.1584C123.042 32.5618 123.462 32.0978 124.006 31.7663C124.553 31.4316 125.199 31.2642 125.945 31.2642C126.565 31.2642 127.113 31.3786 127.591 31.6072C128.071 31.8326 128.454 32.1525 128.739 32.5668C129.024 32.9777 129.186 33.4583 129.226 34.0085H127.506C127.436 33.6406 127.271 33.334 127.009 33.0888C126.75 32.8402 126.404 32.7159 125.97 32.7159C125.602 32.7159 125.279 32.8153 125 33.0142C124.722 33.2098 124.505 33.4915 124.349 33.8594C124.197 34.2273 124.12 34.6681 124.12 35.1818C124.12 35.7022 124.197 36.1496 124.349 36.5241C124.502 36.8954 124.715 37.1821 124.99 37.3842C125.269 37.5831 125.595 37.6825 125.97 37.6825C126.235 37.6825 126.472 37.6328 126.681 37.5334C126.893 37.4306 127.07 37.2831 127.213 37.0909C127.355 36.8987 127.453 36.665 127.506 36.3899H129.226C129.183 36.9302 129.024 37.4091 128.749 37.8267C128.474 38.241 128.099 38.5658 127.625 38.8011C127.151 39.0331 126.595 39.1491 125.955 39.1491ZM134.085 39.1491C133.319 39.1491 132.658 38.9901 132.101 38.6719C131.548 38.3504 131.122 37.8963 130.823 37.3097C130.525 36.7197 130.376 36.0253 130.376 35.2266C130.376 34.4411 130.525 33.7517 130.823 33.1584C131.125 32.5618 131.546 32.0978 132.086 31.7663C132.626 31.4316 133.261 31.2642 133.99 31.2642C134.461 31.2642 134.905 31.3404 135.323 31.4929C135.744 31.642 136.115 31.8741 136.436 32.1889C136.761 32.5038 137.016 32.9048 137.202 33.392C137.387 33.8759 137.48 34.4527 137.48 35.1222V35.674H131.221V34.4609H135.755C135.752 34.1162 135.677 33.8097 135.531 33.5412C135.386 33.2694 135.182 33.0556 134.92 32.8999C134.661 32.7441 134.36 32.6662 134.015 32.6662C133.647 32.6662 133.324 32.7557 133.046 32.9347C132.767 33.1103 132.55 33.3423 132.394 33.6307C132.242 33.9157 132.164 34.2289 132.161 34.5703V35.6293C132.161 36.0734 132.242 36.4545 132.404 36.7727C132.567 37.0876 132.794 37.3295 133.085 37.4986C133.377 37.6643 133.718 37.7472 134.11 37.7472C134.371 37.7472 134.608 37.7107 134.82 37.6378C135.033 37.5616 135.217 37.4505 135.372 37.3047C135.528 37.1589 135.646 36.9782 135.725 36.7628L137.406 36.9517C137.3 37.3958 137.097 37.7836 136.799 38.1151C136.504 38.4432 136.126 38.6984 135.666 38.8807C135.205 39.0597 134.678 39.1491 134.085 39.1491Z" fill="white"/>
<path d="M28.3654 64.1534C28.7234 64.1562 29.0813 64.2244 29.4393 64.358C29.7972 64.4915 30.1239 64.7131 30.4194 65.0227C30.7148 65.3295 30.9521 65.7486 31.131 66.2798C31.31 66.8111 31.3995 67.4773 31.3995 68.2784C31.3995 69.054 31.3256 69.7429 31.1779 70.3452C31.033 70.9446 30.8228 71.4503 30.5472 71.8622C30.2745 72.2741 29.9421 72.5866 29.5501 72.7997C29.1609 73.0128 28.7205 73.1193 28.229 73.1193C27.7404 73.1193 27.3043 73.0227 26.9208 72.8295C26.5401 72.6335 26.2276 72.3622 25.9833 72.0156C25.7418 71.6662 25.587 71.2614 25.5188 70.8011H26.5586C26.6523 71.2017 26.8384 71.5327 27.1168 71.794C27.3981 72.0526 27.7688 72.1818 28.229 72.1818C28.9023 72.1818 29.4336 71.8878 29.8228 71.2997C30.2148 70.7116 30.4109 69.8807 30.4109 68.8068H30.3427C30.1836 69.0455 29.9947 69.2514 29.7759 69.4247C29.5572 69.598 29.3143 69.7315 29.0472 69.8253C28.7802 69.919 28.4961 69.9659 28.195 69.9659C27.695 69.9659 27.2362 69.8423 26.8185 69.5952C26.4038 69.3452 26.0714 69.0028 25.8214 68.5682C25.5742 68.1307 25.4506 67.6307 25.4506 67.0682C25.4506 66.5341 25.57 66.0455 25.8086 65.6023C26.0501 65.1562 26.3881 64.8011 26.8228 64.5369C27.2603 64.2727 27.7745 64.1449 28.3654 64.1534ZM28.3654 65.0909C28.0075 65.0909 27.685 65.1804 27.3981 65.3594C27.114 65.5355 26.8881 65.7741 26.7205 66.0753C26.5558 66.3736 26.4734 66.7045 26.4734 67.0682C26.4734 67.4318 26.5529 67.7628 26.712 68.0611C26.8739 68.3565 27.0941 68.5923 27.3725 68.7685C27.6538 68.9418 27.9734 69.0284 28.3313 69.0284C28.6012 69.0284 28.8526 68.9759 29.0856 68.8707C29.3185 68.7628 29.5217 68.6165 29.695 68.4318C29.8711 68.2443 30.0089 68.0327 30.1083 67.7969C30.2077 67.5582 30.2575 67.3097 30.2575 67.0511C30.2575 66.7102 30.1751 66.3906 30.0103 66.0923C29.8484 65.794 29.6239 65.5526 29.337 65.3679C29.0529 65.1832 28.729 65.0909 28.3654 65.0909ZM35.9219 73.1193C35.2798 73.1193 34.733 72.9446 34.2812 72.5952C33.8295 72.2429 33.4844 71.733 33.2457 71.0653C33.0071 70.3949 32.8878 69.5852 32.8878 68.6364C32.8878 67.6932 33.0071 66.8878 33.2457 66.2202C33.4872 65.5497 33.8338 65.0384 34.2855 64.6861C34.7401 64.331 35.2855 64.1534 35.9219 64.1534C36.5582 64.1534 37.1023 64.331 37.554 64.6861C38.0085 65.0384 38.3551 65.5497 38.5938 66.2202C38.8352 66.8878 38.956 67.6932 38.956 68.6364C38.956 69.5852 38.8366 70.3949 38.598 71.0653C38.3594 71.733 38.0142 72.2429 37.5625 72.5952C37.1108 72.9446 36.5639 73.1193 35.9219 73.1193ZM35.9219 72.1818C36.5582 72.1818 37.0526 71.875 37.4048 71.2614C37.7571 70.6477 37.9332 69.7727 37.9332 68.6364C37.9332 67.8807 37.8523 67.2372 37.6903 66.706C37.5313 66.1747 37.3011 65.7699 37 65.4915C36.7017 65.2131 36.3423 65.0739 35.9219 65.0739C35.2912 65.0739 34.7983 65.3849 34.4432 66.0071C34.0881 66.6264 33.9105 67.5028 33.9105 68.6364C33.9105 69.392 33.9901 70.0341 34.1491 70.5625C34.3082 71.0909 34.5369 71.4929 34.8352 71.7685C35.1364 72.044 35.4986 72.1818 35.9219 72.1818ZM43.4219 73.1193C42.7798 73.1193 42.233 72.9446 41.7812 72.5952C41.3295 72.2429 40.9844 71.733 40.7457 71.0653C40.5071 70.3949 40.3878 69.5852 40.3878 68.6364C40.3878 67.6932 40.5071 66.8878 40.7457 66.2202C40.9872 65.5497 41.3338 65.0384 41.7855 64.6861C42.2401 64.331 42.7855 64.1534 43.4219 64.1534C44.0582 64.1534 44.6023 64.331 45.054 64.6861C45.5085 65.0384 45.8551 65.5497 46.0938 66.2202C46.3352 66.8878 46.456 67.6932 46.456 68.6364C46.456 69.5852 46.3366 70.3949 46.098 71.0653C45.8594 71.733 45.5142 72.2429 45.0625 72.5952C44.6108 72.9446 44.0639 73.1193 43.4219 73.1193ZM43.4219 72.1818C44.0582 72.1818 44.5526 71.875 44.9048 71.2614C45.2571 70.6477 45.4332 69.7727 45.4332 68.6364C45.4332 67.8807 45.3523 67.2372 45.1903 66.706C45.0313 66.1747 44.8011 65.7699 44.5 65.4915C44.2017 65.2131 43.8423 65.0739 43.4219 65.0739C42.7912 65.0739 42.2983 65.3849 41.9432 66.0071C41.5881 66.6264 41.4105 67.5028 41.4105 68.6364C41.4105 69.392 41.4901 70.0341 41.6491 70.5625C41.8082 71.0909 42.0369 71.4929 42.3352 71.7685C42.6364 72.044 42.9986 72.1818 43.4219 72.1818ZM48.2287 73V64.2727H49.2855V68.6023H49.3878L53.3082 64.2727H54.6889L51.0241 68.2102L54.6889 73H53.4105L50.3764 68.9432L49.2855 70.1705V73H48.2287Z" fill="white" fill-opacity="0.4"/>
<path d="M28.4847 120.119C28.1268 120.114 27.7688 120.045 27.4109 119.915C27.0529 119.784 26.7262 119.564 26.4308 119.254C26.1353 118.942 25.8981 118.52 25.7191 117.989C25.5401 117.455 25.4506 116.784 25.4506 115.977C25.4506 115.205 25.5231 114.52 25.668 113.923C25.8129 113.324 26.0231 112.82 26.2987 112.411C26.5742 111.999 26.9066 111.686 27.2958 111.473C27.6879 111.26 28.1296 111.153 28.6211 111.153C29.1097 111.153 29.5444 111.251 29.9251 111.447C30.3086 111.641 30.6211 111.911 30.8626 112.257C31.104 112.604 31.2603 113.003 31.3313 113.455H30.2915C30.195 113.062 30.0075 112.737 29.729 112.479C29.4506 112.22 29.0813 112.091 28.6211 112.091C27.945 112.091 27.4123 112.385 27.0231 112.973C26.6367 113.561 26.4421 114.386 26.4393 115.449H26.5075C26.6665 115.207 26.8555 115.001 27.0742 114.831C27.2958 114.658 27.5401 114.524 27.8072 114.43C28.0742 114.337 28.3569 114.29 28.6552 114.29C29.1552 114.29 29.6126 114.415 30.0273 114.665C30.4421 114.912 30.7745 115.254 31.0245 115.692C31.2745 116.126 31.3995 116.625 31.3995 117.188C31.3995 117.727 31.2788 118.222 31.0373 118.67C30.7958 119.116 30.4563 119.472 30.0188 119.736C29.5842 119.997 29.0728 120.125 28.4847 120.119ZM28.4847 119.182C28.8427 119.182 29.1637 119.092 29.4478 118.913C29.7347 118.734 29.9606 118.494 30.1254 118.193C30.293 117.892 30.3768 117.557 30.3768 117.188C30.3768 116.827 30.2958 116.499 30.1339 116.203C29.9748 115.905 29.7546 115.668 29.4734 115.491C29.195 115.315 28.8768 115.227 28.5188 115.227C28.2489 115.227 27.9975 115.281 27.7646 115.389C27.5316 115.494 27.3271 115.639 27.1509 115.824C26.9776 116.009 26.8413 116.22 26.7418 116.459C26.6424 116.695 26.5927 116.943 26.5927 117.205C26.5927 117.551 26.6737 117.875 26.8356 118.176C27.0004 118.477 27.2248 118.72 27.5089 118.905C27.7958 119.089 28.1211 119.182 28.4847 119.182ZM35.9219 120.119C35.2798 120.119 34.733 119.945 34.2812 119.595C33.8295 119.243 33.4844 118.733 33.2457 118.065C33.0071 117.395 32.8878 116.585 32.8878 115.636C32.8878 114.693 33.0071 113.888 33.2457 113.22C33.4872 112.55 33.8338 112.038 34.2855 111.686C34.7401 111.331 35.2855 111.153 35.9219 111.153C36.5582 111.153 37.1023 111.331 37.554 111.686C38.0085 112.038 38.3551 112.55 38.5938 113.22C38.8352 113.888 38.956 114.693 38.956 115.636C38.956 116.585 38.8366 117.395 38.598 118.065C38.3594 118.733 38.0142 119.243 37.5625 119.595C37.1108 119.945 36.5639 120.119 35.9219 120.119ZM35.9219 119.182C36.5582 119.182 37.0526 118.875 37.4048 118.261C37.7571 117.648 37.9332 116.773 37.9332 115.636C37.9332 114.881 37.8523 114.237 37.6903 113.706C37.5313 113.175 37.3011 112.77 37 112.491C36.7017 112.213 36.3423 112.074 35.9219 112.074C35.2912 112.074 34.7983 112.385 34.4432 113.007C34.0881 113.626 33.9105 114.503 33.9105 115.636C33.9105 116.392 33.9901 117.034 34.1491 117.562C34.3082 118.091 34.5369 118.493 34.8352 118.768C35.1364 119.044 35.4986 119.182 35.9219 119.182ZM43.4219 120.119C42.7798 120.119 42.233 119.945 41.7812 119.595C41.3295 119.243 40.9844 118.733 40.7457 118.065C40.5071 117.395 40.3878 116.585 40.3878 115.636C40.3878 114.693 40.5071 113.888 40.7457 113.22C40.9872 112.55 41.3338 112.038 41.7855 111.686C42.2401 111.331 42.7855 111.153 43.4219 111.153C44.0582 111.153 44.6023 111.331 45.054 111.686C45.5085 112.038 45.8551 112.55 46.0938 113.22C46.3352 113.888 46.456 114.693 46.456 115.636C46.456 116.585 46.3366 117.395 46.098 118.065C45.8594 118.733 45.5142 119.243 45.0625 119.595C44.6108 119.945 44.0639 120.119 43.4219 120.119ZM43.4219 119.182C44.0582 119.182 44.5526 118.875 44.9048 118.261C45.2571 117.648 45.4332 116.773 45.4332 115.636C45.4332 114.881 45.3523 114.237 45.1903 113.706C45.0313 113.175 44.8011 112.77 44.5 112.491C44.2017 112.213 43.8423 112.074 43.4219 112.074C42.7912 112.074 42.2983 112.385 41.9432 113.007C41.5881 113.626 41.4105 114.503 41.4105 115.636C41.4105 116.392 41.4901 117.034 41.6491 117.562C41.8082 118.091 42.0369 118.493 42.3352 118.768C42.6364 119.044 42.9986 119.182 43.4219 119.182ZM48.2287 120V111.273H49.2855V115.602H49.3878L53.3082 111.273H54.6889L51.0241 115.21L54.6889 120H53.4105L50.3764 115.943L49.2855 117.17V120H48.2287Z" fill="white" fill-opacity="0.4"/>
<path d="M28.3835 167.119C27.821 167.119 27.3196 167.023 26.8793 166.83C26.4418 166.636 26.0938 166.368 25.8352 166.024C25.5795 165.678 25.4403 165.276 25.4176 164.818H26.4915C26.5142 165.099 26.6108 165.342 26.7812 165.547C26.9517 165.749 27.1747 165.905 27.4503 166.016C27.7259 166.126 28.0313 166.182 28.3665 166.182C28.7415 166.182 29.0739 166.116 29.3636 165.986C29.6534 165.855 29.8807 165.673 30.0455 165.44C30.2102 165.207 30.2926 164.938 30.2926 164.631C30.2926 164.31 30.2131 164.027 30.054 163.783C29.8949 163.536 29.6619 163.342 29.3551 163.203C29.0483 163.064 28.6733 162.994 28.2301 162.994H27.5312V162.057H28.2301C28.5767 162.057 28.8807 161.994 29.142 161.869C29.4063 161.744 29.6122 161.568 29.7599 161.341C29.9105 161.114 29.9858 160.847 29.9858 160.54C29.9858 160.244 29.9205 159.987 29.7898 159.768C29.6591 159.55 29.4744 159.379 29.2358 159.257C29 159.135 28.7216 159.074 28.4006 159.074C28.0994 159.074 27.8153 159.129 27.5483 159.24C27.2841 159.348 27.0682 159.506 26.9006 159.713C26.733 159.918 26.642 160.165 26.6278 160.455H25.6051C25.6222 159.997 25.7599 159.597 26.0185 159.253C26.277 158.906 26.6151 158.636 27.0327 158.443C27.4531 158.25 27.9148 158.153 28.4176 158.153C28.9574 158.153 29.4205 158.263 29.8068 158.482C30.1932 158.697 30.4901 158.983 30.6974 159.338C30.9048 159.693 31.0085 160.077 31.0085 160.489C31.0085 160.98 30.8793 161.399 30.6207 161.746C30.3651 162.092 30.017 162.332 29.5767 162.466V162.534C30.1278 162.625 30.5582 162.859 30.8679 163.237C31.1776 163.612 31.3324 164.077 31.3324 164.631C31.3324 165.105 31.2031 165.531 30.9446 165.909C30.6889 166.284 30.3395 166.58 29.8963 166.795C29.4531 167.011 28.9489 167.119 28.3835 167.119ZM35.9219 167.119C35.2798 167.119 34.733 166.945 34.2812 166.595C33.8295 166.243 33.4844 165.733 33.2457 165.065C33.0071 164.395 32.8878 163.585 32.8878 162.636C32.8878 161.693 33.0071 160.888 33.2457 160.22C33.4872 159.55 33.8338 159.038 34.2855 158.686C34.7401 158.331 35.2855 158.153 35.9219 158.153C36.5582 158.153 37.1023 158.331 37.554 158.686C38.0085 159.038 38.3551 159.55 38.5938 160.22C38.8352 160.888 38.956 161.693 38.956 162.636C38.956 163.585 38.8366 164.395 38.598 165.065C38.3594 165.733 38.0142 166.243 37.5625 166.595C37.1108 166.945 36.5639 167.119 35.9219 167.119ZM35.9219 166.182C36.5582 166.182 37.0526 165.875 37.4048 165.261C37.7571 164.648 37.9332 163.773 37.9332 162.636C37.9332 161.881 37.8523 161.237 37.6903 160.706C37.5313 160.175 37.3011 159.77 37 159.491C36.7017 159.213 36.3423 159.074 35.9219 159.074C35.2912 159.074 34.7983 159.385 34.4432 160.007C34.0881 160.626 33.9105 161.503 33.9105 162.636C33.9105 163.392 33.9901 164.034 34.1491 164.562C34.3082 165.091 34.5369 165.493 34.8352 165.768C35.1364 166.044 35.4986 166.182 35.9219 166.182ZM43.4219 167.119C42.7798 167.119 42.233 166.945 41.7812 166.595C41.3295 166.243 40.9844 165.733 40.7457 165.065C40.5071 164.395 40.3878 163.585 40.3878 162.636C40.3878 161.693 40.5071 160.888 40.7457 160.22C40.9872 159.55 41.3338 159.038 41.7855 158.686C42.2401 158.331 42.7855 158.153 43.4219 158.153C44.0582 158.153 44.6023 158.331 45.054 158.686C45.5085 159.038 45.8551 159.55 46.0938 160.22C46.3352 160.888 46.456 161.693 46.456 162.636C46.456 163.585 46.3366 164.395 46.098 165.065C45.8594 165.733 45.5142 166.243 45.0625 166.595C44.6108 166.945 44.0639 167.119 43.4219 167.119ZM43.4219 166.182C44.0582 166.182 44.5526 165.875 44.9048 165.261C45.2571 164.648 45.4332 163.773 45.4332 162.636C45.4332 161.881 45.3523 161.237 45.1903 160.706C45.0313 160.175 44.8011 159.77 44.5 159.491C44.2017 159.213 43.8423 159.074 43.4219 159.074C42.7912 159.074 42.2983 159.385 41.9432 160.007C41.5881 160.626 41.4105 161.503 41.4105 162.636C41.4105 163.392 41.4901 164.034 41.6491 164.562C41.8082 165.091 42.0369 165.493 42.3352 165.768C42.6364 166.044 42.9986 166.182 43.4219 166.182ZM48.2287 167V158.273H49.2855V162.602H49.3878L53.3082 158.273H54.6889L51.0241 162.21L54.6889 167H53.4105L50.3764 162.943L49.2855 164.17V167H48.2287Z" fill="white" fill-opacity="0.4"/>
<path d="M51.25 214.119C50.608 214.119 50.0611 213.945 49.6094 213.595C49.1577 213.243 48.8125 212.733 48.5739 212.065C48.3352 211.395 48.2159 210.585 48.2159 209.636C48.2159 208.693 48.3352 207.888 48.5739 207.22C48.8153 206.55 49.1619 206.038 49.6136 205.686C50.0682 205.331 50.6136 205.153 51.25 205.153C51.8864 205.153 52.4304 205.331 52.8821 205.686C53.3366 206.038 53.6832 206.55 53.9219 207.22C54.1634 207.888 54.2841 208.693 54.2841 209.636C54.2841 210.585 54.1648 211.395 53.9261 212.065C53.6875 212.733 53.3423 213.243 52.8906 213.595C52.4389 213.945 51.892 214.119 51.25 214.119ZM51.25 213.182C51.8864 213.182 52.3807 212.875 52.733 212.261C53.0852 211.648 53.2614 210.773 53.2614 209.636C53.2614 208.881 53.1804 208.237 53.0185 207.706C52.8594 207.175 52.6293 206.77 52.3281 206.491C52.0298 206.213 51.6705 206.074 51.25 206.074C50.6193 206.074 50.1264 206.385 49.7713 207.007C49.4162 207.626 49.2386 208.503 49.2386 209.636C49.2386 210.392 49.3182 211.034 49.4773 211.562C49.6364 212.091 49.8651 212.493 50.1634 212.768C50.4645 213.044 50.8267 213.182 51.25 213.182Z" fill="white" fill-opacity="0.4"/>
<line x1="71.5" y1="75.5" x2="407.5" y2="75.5" stroke="white" stroke-opacity="0.05" stroke-linecap="round"/>
<line x1="71.5" y1="123.167" x2="407.5" y2="123.167" stroke="white" stroke-opacity="0.05" stroke-linecap="round"/>
<line x1="71.5" y1="170.833" x2="407.5" y2="170.833" stroke="white" stroke-opacity="0.05" stroke-linecap="round"/>
<line x1="71.5" y1="218.5" x2="407.5" y2="218.5" stroke="white" stroke-opacity="0.2" stroke-linecap="round"/>
<path d="M85.105 244V235.273H86.1618V243.062H90.2186V244H85.105ZM91.7186 244V237.455H92.7243V244H91.7186ZM92.23 236.364C92.034 236.364 91.8649 236.297 91.7229 236.163C91.5837 236.03 91.5141 235.869 91.5141 235.682C91.5141 235.494 91.5837 235.334 91.7229 235.2C91.8649 235.067 92.034 235 92.23 235C92.426 235 92.5936 235.067 92.7328 235.2C92.8749 235.334 92.9459 235.494 92.9459 235.682C92.9459 235.869 92.8749 236.03 92.7328 236.163C92.5936 236.297 92.426 236.364 92.23 236.364ZM95.572 240.062V244H94.5663V237.455H95.5379V238.477H95.6231C95.7765 238.145 96.0095 237.878 96.322 237.676C96.6345 237.472 97.0379 237.369 97.5322 237.369C97.9754 237.369 98.3632 237.46 98.6956 237.642C99.0279 237.821 99.2865 238.094 99.4711 238.46C99.6558 238.824 99.7481 239.284 99.7481 239.841V244H98.7424V239.909C98.7424 239.395 98.6089 238.994 98.3419 238.707C98.0748 238.418 97.7083 238.273 97.2424 238.273C96.9214 238.273 96.6345 238.342 96.3816 238.482C96.1316 238.621 95.9342 238.824 95.7893 239.091C95.6444 239.358 95.572 239.682 95.572 240.062ZM105.711 241.324V237.455H106.717V244H105.711V242.892H105.643C105.489 243.224 105.251 243.507 104.927 243.74C104.603 243.97 104.194 244.085 103.699 244.085C103.29 244.085 102.927 243.996 102.609 243.817C102.29 243.635 102.04 243.362 101.859 242.999C101.677 242.632 101.586 242.17 101.586 241.614V237.455H102.592V241.545C102.592 242.023 102.725 242.403 102.992 242.688C103.262 242.972 103.606 243.114 104.023 243.114C104.273 243.114 104.528 243.05 104.786 242.922C105.047 242.794 105.266 242.598 105.442 242.334C105.621 242.07 105.711 241.733 105.711 241.324ZM109.308 237.455L110.877 240.131L112.445 237.455H113.604L111.49 240.727L113.604 244H112.445L110.877 241.46L109.308 244H108.149L110.229 240.727L108.149 237.455H109.308Z" fill="white" fill-opacity="0.4"/>
<path d="M144.236 235.273H145.498L148.464 242.517H148.566L151.532 235.273H152.793V244H151.805V237.369H151.719L148.992 244H148.038L145.31 237.369H145.225V244H144.236V235.273ZM156.702 244.153C156.287 244.153 155.911 244.075 155.573 243.919C155.235 243.76 154.966 243.531 154.767 243.233C154.569 242.932 154.469 242.568 154.469 242.142C154.469 241.767 154.543 241.463 154.691 241.23C154.838 240.994 155.036 240.81 155.283 240.676C155.53 240.543 155.803 240.443 156.101 240.378C156.402 240.31 156.705 240.256 157.009 240.216C157.407 240.165 157.729 240.126 157.976 240.101C158.226 240.072 158.408 240.026 158.522 239.96C158.638 239.895 158.696 239.781 158.696 239.619V239.585C158.696 239.165 158.581 238.838 158.351 238.605C158.124 238.372 157.779 238.256 157.316 238.256C156.836 238.256 156.459 238.361 156.186 238.571C155.914 238.781 155.722 239.006 155.611 239.244L154.657 238.903C154.827 238.506 155.054 238.196 155.338 237.974C155.625 237.75 155.938 237.594 156.276 237.506C156.617 237.415 156.952 237.369 157.282 237.369C157.492 237.369 157.733 237.395 158.006 237.446C158.282 237.494 158.547 237.595 158.803 237.749C159.061 237.902 159.276 238.134 159.446 238.443C159.617 238.753 159.702 239.168 159.702 239.688V244H158.696V243.114H158.645C158.577 243.256 158.463 243.408 158.304 243.57C158.145 243.732 157.934 243.869 157.669 243.983C157.405 244.097 157.083 244.153 156.702 244.153ZM156.855 243.25C157.253 243.25 157.588 243.172 157.861 243.016C158.137 242.859 158.344 242.658 158.483 242.411C158.625 242.163 158.696 241.903 158.696 241.631V240.71C158.654 240.761 158.56 240.808 158.415 240.851C158.273 240.891 158.108 240.926 157.921 240.957C157.736 240.986 157.556 241.011 157.38 241.034C157.206 241.054 157.066 241.071 156.958 241.085C156.696 241.119 156.452 241.175 156.225 241.251C156 241.325 155.819 241.437 155.679 241.588C155.543 241.736 155.475 241.937 155.475 242.193C155.475 242.543 155.604 242.807 155.863 242.986C156.124 243.162 156.455 243.25 156.855 243.25ZM164.197 244.136C163.583 244.136 163.055 243.991 162.611 243.702C162.168 243.412 161.827 243.013 161.589 242.504C161.35 241.996 161.231 241.415 161.231 240.761C161.231 240.097 161.353 239.51 161.597 239.001C161.844 238.49 162.188 238.091 162.629 237.804C163.072 237.514 163.589 237.369 164.18 237.369C164.64 237.369 165.055 237.455 165.424 237.625C165.793 237.795 166.096 238.034 166.332 238.341C166.567 238.648 166.714 239.006 166.771 239.415H165.765C165.688 239.116 165.518 238.852 165.254 238.622C164.992 238.389 164.64 238.273 164.197 238.273C163.805 238.273 163.461 238.375 163.165 238.58C162.873 238.781 162.644 239.067 162.479 239.436C162.317 239.803 162.236 240.233 162.236 240.727C162.236 241.233 162.316 241.673 162.475 242.048C162.637 242.423 162.864 242.714 163.157 242.922C163.452 243.129 163.799 243.233 164.197 243.233C164.458 243.233 164.695 243.188 164.908 243.097C165.121 243.006 165.302 242.875 165.45 242.705C165.597 242.534 165.702 242.33 165.765 242.091H166.771C166.714 242.477 166.573 242.825 166.349 243.135C166.127 243.442 165.833 243.686 165.467 243.868C165.103 244.047 164.68 244.136 164.197 244.136Z" fill="white" fill-opacity="0.4"/>
<path d="M202.517 244V237.455H203.523V244H202.517ZM203.028 236.364C202.832 236.364 202.663 236.297 202.521 236.163C202.382 236.03 202.312 235.869 202.312 235.682C202.312 235.494 202.382 235.334 202.521 235.2C202.663 235.067 202.832 235 203.028 235C203.224 235 203.392 235.067 203.531 235.2C203.673 235.334 203.744 235.494 203.744 235.682C203.744 235.869 203.673 236.03 203.531 236.163C203.392 236.297 203.224 236.364 203.028 236.364ZM212.864 239.636C212.864 240.557 212.698 241.352 212.366 242.023C212.034 242.693 211.578 243.21 210.998 243.574C210.418 243.938 209.757 244.119 209.012 244.119C208.268 244.119 207.606 243.938 207.026 243.574C206.447 243.21 205.991 242.693 205.659 242.023C205.326 241.352 205.16 240.557 205.16 239.636C205.16 238.716 205.326 237.92 205.659 237.25C205.991 236.58 206.447 236.062 207.026 235.699C207.606 235.335 208.268 235.153 209.012 235.153C209.757 235.153 210.418 235.335 210.998 235.699C211.578 236.062 212.034 236.58 212.366 237.25C212.698 237.92 212.864 238.716 212.864 239.636ZM211.842 239.636C211.842 238.881 211.715 238.243 211.462 237.723C211.212 237.203 210.873 236.81 210.444 236.543C210.018 236.276 209.541 236.142 209.012 236.142C208.484 236.142 208.005 236.276 207.576 236.543C207.15 236.81 206.81 237.203 206.558 237.723C206.308 238.243 206.183 238.881 206.183 239.636C206.183 240.392 206.308 241.03 206.558 241.55C206.81 242.07 207.15 242.463 207.576 242.73C208.005 242.997 208.484 243.131 209.012 243.131C209.541 243.131 210.018 242.997 210.444 242.73C210.873 242.463 211.212 242.07 211.462 241.55C211.715 241.03 211.842 240.392 211.842 239.636ZM219.414 237.455C219.363 237.023 219.156 236.688 218.792 236.449C218.428 236.21 217.982 236.091 217.454 236.091C217.068 236.091 216.73 236.153 216.44 236.278C216.153 236.403 215.928 236.575 215.766 236.794C215.607 237.013 215.528 237.261 215.528 237.54C215.528 237.773 215.583 237.973 215.694 238.141C215.808 238.305 215.953 238.443 216.129 238.554C216.305 238.662 216.489 238.751 216.683 238.822C216.876 238.891 217.053 238.946 217.215 238.989L218.102 239.227C218.329 239.287 218.582 239.369 218.86 239.474C219.141 239.58 219.41 239.723 219.666 239.905C219.924 240.084 220.137 240.314 220.305 240.595C220.472 240.876 220.556 241.222 220.556 241.631C220.556 242.102 220.433 242.528 220.185 242.909C219.941 243.29 219.583 243.592 219.112 243.817C218.643 244.041 218.073 244.153 217.403 244.153C216.778 244.153 216.237 244.053 215.779 243.851C215.325 243.649 214.967 243.368 214.705 243.007C214.447 242.646 214.301 242.227 214.266 241.75H215.357C215.386 242.08 215.497 242.352 215.69 242.568C215.886 242.781 216.133 242.94 216.431 243.045C216.732 243.148 217.056 243.199 217.403 243.199C217.806 243.199 218.168 243.134 218.489 243.003C218.81 242.869 219.065 242.685 219.252 242.449C219.44 242.21 219.534 241.932 219.534 241.614C219.534 241.324 219.453 241.088 219.291 240.906C219.129 240.724 218.916 240.577 218.651 240.463C218.387 240.349 218.102 240.25 217.795 240.165L216.721 239.858C216.039 239.662 215.499 239.382 215.102 239.018C214.704 238.655 214.505 238.179 214.505 237.591C214.505 237.102 214.637 236.676 214.901 236.312C215.168 235.946 215.526 235.662 215.975 235.46C216.427 235.256 216.931 235.153 217.488 235.153C218.051 235.153 218.551 235.254 218.988 235.456C219.426 235.655 219.772 235.928 220.028 236.274C220.286 236.621 220.423 237.014 220.437 237.455H219.414Z" fill="white" fill-opacity="0.4"/>
<path d="M244.391 244L242.005 235.273H243.079L244.903 242.381H244.988L246.846 235.273H248.039L249.897 242.381H249.982L251.806 235.273H252.88L250.494 244H249.403L247.477 237.045H247.408L245.482 244H244.391ZM254.06 244V237.455H255.066V244H254.06ZM254.572 236.364C254.376 236.364 254.207 236.297 254.065 236.163C253.925 236.03 253.856 235.869 253.856 235.682C253.856 235.494 253.925 235.334 254.065 235.2C254.207 235.067 254.376 235 254.572 235C254.768 235 254.935 235.067 255.075 235.2C255.217 235.334 255.288 235.494 255.288 235.682C255.288 235.869 255.217 236.03 255.075 236.163C254.935 236.297 254.768 236.364 254.572 236.364ZM257.914 240.062V244H256.908V237.455H257.88V238.477H257.965C258.118 238.145 258.351 237.878 258.664 237.676C258.976 237.472 259.38 237.369 259.874 237.369C260.317 237.369 260.705 237.46 261.037 237.642C261.37 237.821 261.628 238.094 261.813 238.46C261.998 238.824 262.09 239.284 262.09 239.841V244H261.084V239.909C261.084 239.395 260.951 238.994 260.684 238.707C260.417 238.418 260.05 238.273 259.584 238.273C259.263 238.273 258.976 238.342 258.723 238.482C258.473 238.621 258.276 238.824 258.131 239.091C257.986 239.358 257.914 239.682 257.914 240.062ZM266.399 244.136C265.854 244.136 265.372 243.999 264.955 243.723C264.537 243.445 264.21 243.053 263.974 242.547C263.739 242.038 263.621 241.438 263.621 240.744C263.621 240.057 263.739 239.46 263.974 238.955C264.21 238.449 264.538 238.058 264.959 237.783C265.379 237.507 265.865 237.369 266.416 237.369C266.842 237.369 267.179 237.44 267.426 237.582C267.676 237.722 267.867 237.881 267.997 238.06C268.131 238.236 268.234 238.381 268.308 238.494H268.394V235.273H269.399V244H268.428V242.994H268.308C268.234 243.114 268.129 243.264 267.993 243.446C267.857 243.625 267.662 243.786 267.409 243.928C267.156 244.067 266.82 244.136 266.399 244.136ZM266.536 243.233C266.939 243.233 267.28 243.128 267.558 242.918C267.837 242.705 268.048 242.411 268.193 242.036C268.338 241.658 268.411 241.222 268.411 240.727C268.411 240.239 268.34 239.811 268.198 239.445C268.055 239.075 267.845 238.788 267.567 238.584C267.288 238.376 266.945 238.273 266.536 238.273C266.109 238.273 265.754 238.382 265.47 238.601C265.189 238.817 264.977 239.111 264.835 239.483C264.696 239.852 264.626 240.267 264.626 240.727C264.626 241.193 264.698 241.616 264.84 241.997C264.984 242.375 265.198 242.676 265.479 242.901C265.763 243.122 266.115 243.233 266.536 243.233ZM274.04 244.136C273.449 244.136 272.93 243.996 272.484 243.714C272.041 243.433 271.695 243.04 271.445 242.534C271.198 242.028 271.074 241.437 271.074 240.761C271.074 240.08 271.198 239.484 271.445 238.976C271.695 238.467 272.041 238.072 272.484 237.791C272.93 237.51 273.449 237.369 274.04 237.369C274.631 237.369 275.148 237.51 275.591 237.791C276.037 238.072 276.384 238.467 276.631 238.976C276.881 239.484 277.006 240.08 277.006 240.761C277.006 241.437 276.881 242.028 276.631 242.534C276.384 243.04 276.037 243.433 275.591 243.714C275.148 243.996 274.631 244.136 274.04 244.136ZM274.04 243.233C274.489 243.233 274.858 243.118 275.148 242.888C275.438 242.658 275.652 242.355 275.791 241.98C275.93 241.605 276 241.199 276 240.761C276 240.324 275.93 239.916 275.791 239.538C275.652 239.161 275.438 238.855 275.148 238.622C274.858 238.389 274.489 238.273 274.04 238.273C273.591 238.273 273.222 238.389 272.932 238.622C272.642 238.855 272.428 239.161 272.288 239.538C272.149 239.916 272.08 240.324 272.08 240.761C272.08 241.199 272.149 241.605 272.288 241.98C272.428 242.355 272.642 242.658 272.932 242.888C273.222 243.118 273.591 243.233 274.04 243.233ZM279.801 244L277.807 237.455H278.864L280.278 242.466H280.347L281.744 237.455H282.818L284.199 242.449H284.267L285.682 237.455H286.739L284.744 244H283.756L282.324 238.972H282.222L280.79 244H279.801ZM292.705 238.92L291.801 239.176C291.744 239.026 291.661 238.879 291.55 238.737C291.442 238.592 291.294 238.473 291.107 238.379C290.919 238.286 290.679 238.239 290.386 238.239C289.986 238.239 289.652 238.331 289.385 238.516C289.121 238.697 288.989 238.929 288.989 239.21C288.989 239.46 289.08 239.658 289.261 239.803C289.443 239.947 289.727 240.068 290.114 240.165L291.085 240.403C291.671 240.545 292.107 240.763 292.394 241.055C292.68 241.345 292.824 241.719 292.824 242.176C292.824 242.551 292.716 242.886 292.5 243.182C292.287 243.477 291.989 243.71 291.605 243.881C291.222 244.051 290.776 244.136 290.267 244.136C289.599 244.136 289.047 243.991 288.609 243.702C288.172 243.412 287.895 242.989 287.778 242.432L288.733 242.193C288.824 242.545 288.996 242.81 289.249 242.986C289.504 243.162 289.838 243.25 290.25 243.25C290.719 243.25 291.091 243.151 291.367 242.952C291.645 242.75 291.784 242.509 291.784 242.227C291.784 242 291.705 241.81 291.546 241.656C291.386 241.5 291.142 241.384 290.813 241.307L289.722 241.051C289.122 240.909 288.682 240.689 288.401 240.391C288.122 240.089 287.983 239.713 287.983 239.261C287.983 238.892 288.087 238.565 288.294 238.281C288.504 237.997 288.79 237.774 289.151 237.612C289.514 237.45 289.926 237.369 290.386 237.369C291.034 237.369 291.543 237.511 291.912 237.795C292.284 238.08 292.548 238.455 292.705 238.92Z" fill="white" fill-opacity="0.4"/>
<path d="M303.01 244H301.903L305.107 235.273H306.198L309.403 244H308.295L305.687 236.653H305.618L303.01 244ZM303.42 240.591H307.885V241.528H303.42V240.591ZM311.631 240.062V244H310.626V237.455H311.597V238.477H311.682C311.836 238.145 312.069 237.878 312.381 237.676C312.694 237.472 313.097 237.369 313.591 237.369C314.035 237.369 314.422 237.46 314.755 237.642C315.087 237.821 315.346 238.094 315.53 238.46C315.715 238.824 315.807 239.284 315.807 239.841V244H314.802V239.909C314.802 239.395 314.668 238.994 314.401 238.707C314.134 238.418 313.768 238.273 313.302 238.273C312.981 238.273 312.694 238.342 312.441 238.482C312.191 238.621 311.993 238.824 311.849 239.091C311.704 239.358 311.631 239.682 311.631 240.062ZM320.117 244.136C319.571 244.136 319.09 243.999 318.672 243.723C318.254 243.445 317.928 243.053 317.692 242.547C317.456 242.038 317.338 241.438 317.338 240.744C317.338 240.057 317.456 239.46 317.692 238.955C317.928 238.449 318.256 238.058 318.676 237.783C319.097 237.507 319.583 237.369 320.134 237.369C320.56 237.369 320.897 237.44 321.144 237.582C321.394 237.722 321.584 237.881 321.715 238.06C321.848 238.236 321.952 238.381 322.026 238.494H322.111V235.273H323.117V244H322.145V242.994H322.026C321.952 243.114 321.847 243.264 321.71 243.446C321.574 243.625 321.379 243.786 321.127 243.928C320.874 244.067 320.537 244.136 320.117 244.136ZM320.253 243.233C320.656 243.233 320.997 243.128 321.276 242.918C321.554 242.705 321.766 242.411 321.911 242.036C322.056 241.658 322.128 241.222 322.128 240.727C322.128 240.239 322.057 239.811 321.915 239.445C321.773 239.075 321.563 238.788 321.284 238.584C321.006 238.376 320.662 238.273 320.253 238.273C319.827 238.273 319.472 238.382 319.188 238.601C318.906 238.817 318.695 239.111 318.553 239.483C318.414 239.852 318.344 240.267 318.344 240.727C318.344 241.193 318.415 241.616 318.557 241.997C318.702 242.375 318.915 242.676 319.196 242.901C319.48 243.122 319.833 243.233 320.253 243.233ZM325.098 244V237.455H326.07V238.443H326.138C326.257 238.119 326.473 237.857 326.786 237.655C327.098 237.453 327.45 237.352 327.843 237.352C327.916 237.352 328.009 237.354 328.12 237.357C328.23 237.359 328.314 237.364 328.371 237.369V238.392C328.337 238.384 328.259 238.371 328.137 238.354C328.017 238.334 327.891 238.324 327.757 238.324C327.439 238.324 327.155 238.391 326.905 238.524C326.658 238.655 326.462 238.837 326.317 239.07C326.175 239.3 326.104 239.562 326.104 239.858V244H325.098ZM332.023 244.136C331.432 244.136 330.914 243.996 330.468 243.714C330.024 243.433 329.678 243.04 329.428 242.534C329.181 242.028 329.057 241.437 329.057 240.761C329.057 240.08 329.181 239.484 329.428 238.976C329.678 238.467 330.024 238.072 330.468 237.791C330.914 237.51 331.432 237.369 332.023 237.369C332.614 237.369 333.131 237.51 333.574 237.791C334.02 238.072 334.367 238.467 334.614 238.976C334.864 239.484 334.989 240.08 334.989 240.761C334.989 241.437 334.864 242.028 334.614 242.534C334.367 243.04 334.02 243.433 333.574 243.714C333.131 243.996 332.614 244.136 332.023 244.136ZM332.023 243.233C332.472 243.233 332.841 243.118 333.131 242.888C333.421 242.658 333.635 242.355 333.774 241.98C333.914 241.605 333.983 241.199 333.983 240.761C333.983 240.324 333.914 239.916 333.774 239.538C333.635 239.161 333.421 238.855 333.131 238.622C332.841 238.389 332.472 238.273 332.023 238.273C331.574 238.273 331.205 238.389 330.915 238.622C330.625 238.855 330.411 239.161 330.272 239.538C330.132 239.916 330.063 240.324 330.063 240.761C330.063 241.199 330.132 241.605 330.272 241.98C330.411 242.355 330.625 242.658 330.915 242.888C331.205 243.118 331.574 243.233 332.023 243.233ZM336.524 244V237.455H337.53V244H336.524ZM337.035 236.364C336.839 236.364 336.67 236.297 336.528 236.163C336.389 236.03 336.319 235.869 336.319 235.682C336.319 235.494 336.389 235.334 336.528 235.2C336.67 235.067 336.839 235 337.035 235C337.231 235 337.399 235.067 337.538 235.2C337.68 235.334 337.751 235.494 337.751 235.682C337.751 235.869 337.68 236.03 337.538 236.163C337.399 236.297 337.231 236.364 337.035 236.364ZM341.843 244.136C341.298 244.136 340.816 243.999 340.399 243.723C339.981 243.445 339.654 243.053 339.419 242.547C339.183 242.038 339.065 241.438 339.065 240.744C339.065 240.057 339.183 239.46 339.419 238.955C339.654 238.449 339.982 238.058 340.403 237.783C340.823 237.507 341.309 237.369 341.86 237.369C342.286 237.369 342.623 237.44 342.87 237.582C343.12 237.722 343.311 237.881 343.441 238.06C343.575 238.236 343.678 238.381 343.752 238.494H343.838V235.273H344.843V244H343.872V242.994H343.752C343.678 243.114 343.573 243.264 343.437 243.446C343.301 243.625 343.106 243.786 342.853 243.928C342.6 244.067 342.264 244.136 341.843 244.136ZM341.98 243.233C342.383 243.233 342.724 243.128 343.002 242.918C343.281 242.705 343.492 242.411 343.637 242.036C343.782 241.658 343.855 241.222 343.855 240.727C343.855 240.239 343.784 239.811 343.642 239.445C343.499 239.075 343.289 238.788 343.011 238.584C342.732 238.376 342.389 238.273 341.98 238.273C341.553 238.273 341.198 238.382 340.914 238.601C340.633 238.817 340.421 239.111 340.279 239.483C340.14 239.852 340.071 240.267 340.071 240.727C340.071 241.193 340.142 241.616 340.284 241.997C340.428 242.375 340.642 242.676 340.923 242.901C341.207 243.122 341.559 243.233 341.98 243.233Z" fill="white" fill-opacity="0.4"/>
<path d="M372.247 239.636C372.247 240.557 372.081 241.352 371.749 242.023C371.416 242.693 370.96 243.21 370.381 243.574C369.801 243.938 369.139 244.119 368.395 244.119C367.651 244.119 366.989 243.938 366.409 243.574C365.83 243.21 365.374 242.693 365.041 242.023C364.709 241.352 364.543 240.557 364.543 239.636C364.543 238.716 364.709 237.92 365.041 237.25C365.374 236.58 365.83 236.062 366.409 235.699C366.989 235.335 367.651 235.153 368.395 235.153C369.139 235.153 369.801 235.335 370.381 235.699C370.96 236.062 371.416 236.58 371.749 237.25C372.081 237.92 372.247 238.716 372.247 239.636ZM371.225 239.636C371.225 238.881 371.098 238.243 370.845 237.723C370.595 237.203 370.256 236.81 369.827 236.543C369.401 236.276 368.923 236.142 368.395 236.142C367.867 236.142 367.388 236.276 366.959 236.543C366.533 236.81 366.193 237.203 365.941 237.723C365.691 238.243 365.566 238.881 365.566 239.636C365.566 240.392 365.691 241.03 365.941 241.55C366.193 242.07 366.533 242.463 366.959 242.73C367.388 242.997 367.867 243.131 368.395 243.131C368.923 243.131 369.401 242.997 369.827 242.73C370.256 242.463 370.595 242.07 370.845 241.55C371.098 241.03 371.225 240.392 371.225 239.636ZM376.735 237.455V238.307H373.342V237.455H376.735ZM374.331 235.886H375.337V242.125C375.337 242.409 375.378 242.622 375.46 242.764C375.546 242.903 375.654 242.997 375.784 243.045C375.918 243.091 376.058 243.114 376.206 243.114C376.317 243.114 376.408 243.108 376.479 243.097C376.55 243.082 376.607 243.071 376.649 243.062L376.854 243.966C376.786 243.991 376.691 244.017 376.568 244.043C376.446 244.071 376.291 244.085 376.104 244.085C375.82 244.085 375.541 244.024 375.269 243.902C374.999 243.78 374.774 243.594 374.595 243.344C374.419 243.094 374.331 242.778 374.331 242.398V235.886ZM379.394 240.062V244H378.388V235.273H379.394V238.477H379.479C379.632 238.139 379.862 237.871 380.169 237.672C380.479 237.47 380.891 237.369 381.405 237.369C381.851 237.369 382.242 237.459 382.577 237.638C382.912 237.814 383.172 238.085 383.357 238.452C383.544 238.815 383.638 239.278 383.638 239.841V244H382.632V239.909C382.632 239.389 382.497 238.987 382.227 238.703C381.96 238.416 381.59 238.273 381.115 238.273C380.786 238.273 380.49 238.342 380.229 238.482C379.97 238.621 379.766 238.824 379.615 239.091C379.467 239.358 379.394 239.682 379.394 240.062ZM388.222 244.136C387.591 244.136 387.047 243.997 386.59 243.719C386.135 243.438 385.785 243.045 385.537 242.543C385.293 242.037 385.171 241.449 385.171 240.778C385.171 240.108 385.293 239.517 385.537 239.006C385.785 238.491 386.128 238.091 386.569 237.804C387.012 237.514 387.529 237.369 388.12 237.369C388.461 237.369 388.797 237.426 389.13 237.54C389.462 237.653 389.765 237.838 390.037 238.094C390.31 238.347 390.528 238.682 390.689 239.099C390.851 239.517 390.932 240.031 390.932 240.642V241.068H385.887V240.199H389.91C389.91 239.83 389.836 239.5 389.688 239.21C389.543 238.92 389.336 238.692 389.066 238.524C388.799 238.357 388.483 238.273 388.12 238.273C387.719 238.273 387.373 238.372 387.08 238.571C386.79 238.767 386.567 239.023 386.411 239.338C386.255 239.653 386.177 239.991 386.177 240.352V240.932C386.177 241.426 386.262 241.845 386.432 242.189C386.606 242.53 386.846 242.79 387.153 242.969C387.459 243.145 387.816 243.233 388.222 243.233C388.486 243.233 388.725 243.196 388.938 243.122C389.154 243.045 389.34 242.932 389.496 242.781C389.653 242.628 389.773 242.437 389.858 242.21L390.83 242.483C390.728 242.812 390.556 243.102 390.314 243.352C390.073 243.599 389.775 243.793 389.42 243.932C389.064 244.068 388.665 244.136 388.222 244.136ZM392.462 244V237.455H393.434V238.443H393.502C393.621 238.119 393.837 237.857 394.15 237.655C394.462 237.453 394.814 237.352 395.206 237.352C395.28 237.352 395.373 237.354 395.483 237.357C395.594 237.359 395.678 237.364 395.735 237.369V238.392C395.701 238.384 395.623 238.371 395.501 238.354C395.381 238.334 395.255 238.324 395.121 238.324C394.803 238.324 394.519 238.391 394.269 238.524C394.022 238.655 393.826 238.837 393.681 239.07C393.539 239.3 393.468 239.562 393.468 239.858V244H392.462Z" fill="white" fill-opacity="0.4"/>
<path d="M90 154C90 151.791 91.7909 150 94 150H104C106.209 150 108 151.791 108 154V218H90V154Z" fill="#95A4FC"/>
<path d="M146 141C146 138.791 147.791 137 150 137H160C162.209 137 164 138.791 164 141V218H146V141Z" fill="#BAEDBD"/>
<path d="M202 151C202 148.791 203.791 147 206 147H216C218.209 147 220 148.791 220 151V218H202V151Z" fill="#C6C7F8"/>
<path d="M258 102C258 99.7909 259.791 98 262 98H272C274.209 98 276 99.7909 276 102V218H258V102Z" fill="#B1E3FF"/>
<path d="M314 187C314 184.791 315.791 183 318 183H328C330.209 183 332 184.791 332 187V218H314V187Z" fill="#95A4FC"/>
<path d="M370 134C370 131.791 371.791 130 374 130H384C386.209 130 388 131.791 388 134V218H370V134Z" fill="#A1E3CB"/>
</svg>
