<svg width="28" height="28" viewBox="0 0 28 28" fill="none" xmlns="http://www.w3.org/2000/svg">
<path d="M8.39062 12.125C8.38956 11.3841 8.53513 10.6502 8.81894 9.96575C9.10275 9.28128 9.51917 8.65975 10.0441 8.13691C10.5691 7.61407 11.1924 7.20025 11.878 6.9193C12.5638 6.63838 13.2982 6.49586 14.0391 6.49998C17.1328 6.52345 19.6093 9.09375 19.6093 12.1953V12.75C19.6093 15.5469 20.1953 17.1719 20.7109 18.0625C20.7657 18.1574 20.7946 18.2649 20.7946 18.3745C20.7948 18.484 20.7661 18.5916 20.7115 18.6865C20.6569 18.7815 20.5783 18.8604 20.4837 18.9155C20.3889 18.9705 20.2813 18.9996 20.1719 19H7.82819C7.71863 18.9996 7.61105 18.9705 7.51645 18.9155C7.42169 18.8604 7.34311 18.7815 7.28848 18.6865C7.23386 18.5916 7.20517 18.484 7.20532 18.3745C7.20547 18.2649 7.23431 18.1574 7.28909 18.0625C7.80469 17.1719 8.39062 15.5469 8.39062 12.75V12.125Z" fill="black" fill-opacity="0.1"/>
<path fill-rule="evenodd" clip-rule="evenodd" d="M7.76562 12.75V12.125C7.76562 12.125 7.76387 10.8786 8.24158 9.72635C8.24158 9.72635 8.71929 8.57416 9.6031 7.69401C9.6031 7.69401 10.4869 6.81387 11.6411 6.34096C11.6411 6.34096 12.7953 5.86804 14.0425 5.87498C14.0425 5.87498 15.3108 5.88459 16.4657 6.39125C16.4657 6.39125 17.5768 6.87872 18.4322 7.75736C18.4322 7.75736 19.2842 8.63257 19.7515 9.76112C19.7515 9.76112 20.2344 10.9273 20.2344 12.1953V12.75C20.2344 12.75 20.2344 15.9919 21.2518 17.7493C21.2518 17.7493 21.4194 18.0395 21.4197 18.3739C21.4197 18.3739 21.42 18.7082 21.2533 18.9981C21.2533 18.9981 21.0866 19.2879 20.7975 19.4559C20.7975 19.4559 20.5084 19.6238 20.1741 19.625L7.82812 19.625C7.82812 19.625 7.49157 19.6238 7.20246 19.4559C7.20246 19.4559 6.91335 19.2879 6.74669 18.9981C6.74669 18.9981 6.58003 18.7082 6.58032 18.3739C6.58032 18.3739 6.58062 18.0395 6.7478 17.75C6.7478 17.75 7.76562 15.9919 7.76562 12.75ZM9.01562 12.75C9.01562 12.75 9.01562 16.3276 7.83032 18.375L20.1697 18.375C20.1697 18.375 18.9844 16.3271 18.9844 12.75V12.1953C18.9844 12.1953 18.9844 10.1165 17.5365 8.62931C17.5365 8.62931 16.0871 7.14051 14.0356 7.12496C14.0356 7.12496 13.0381 7.11941 12.115 7.49763C12.115 7.49763 11.192 7.87584 10.4851 8.57973C10.4851 8.57973 9.77831 9.28363 9.39627 10.2051C9.39627 10.2051 9.01422 11.1266 9.01562 12.125V12.75Z" fill="#1C1C1C"/>
<path d="M17.125 19.625V19C17.125 18.6548 16.8452 18.375 16.5 18.375C16.1548 18.375 15.875 18.6548 15.875 19V19.625C15.875 20.4016 15.3258 20.9508 15.3258 20.9508C14.7766 21.5 14 21.5 14 21.5C13.2234 21.5 12.6742 20.9508 12.6742 20.9508C12.125 20.4016 12.125 19.625 12.125 19.625V19C12.125 18.6548 11.8452 18.375 11.5 18.375C11.1548 18.375 10.875 18.6548 10.875 19L10.875 19.625C10.875 20.9194 11.7903 21.8347 11.7903 21.8347C12.7056 22.75 14 22.75 14 22.75C15.2944 22.75 16.2097 21.8347 16.2097 21.8347C17.125 20.9194 17.125 19.625 17.125 19.625Z" fill="#1C1C1C"/>
</svg>
