<svg width="28" height="28" viewBox="0 0 28 28" fill="none" xmlns="http://www.w3.org/2000/svg">
<path d="M14.3438 18.8984L18.2812 21.3984C18.789 21.7187 19.414 21.2422 19.2657 20.6562L18.125 16.1719C18.0942 16.0475 18.099 15.9171 18.1392 15.7954C18.1792 15.6738 18.2529 15.566 18.3516 15.4844L21.8828 12.5391C22.3437 12.1562 22.1094 11.3828 21.5078 11.3438L16.8984 11.0469C16.7727 11.0395 16.6517 10.9957 16.5505 10.9208C16.4492 10.8459 16.3719 10.7431 16.3281 10.625L14.6094 6.29688C14.5639 6.17179 14.481 6.06376 14.372 5.98739C14.263 5.91106 14.1331 5.87009 14 5.87009C13.8669 5.87009 13.737 5.91106 13.628 5.98739C13.519 6.06376 13.4361 6.17179 13.3906 6.29688L11.6719 10.625C11.6281 10.7431 11.5508 10.8459 11.4495 10.9208C11.3483 10.9957 11.2273 11.0395 11.1016 11.0469L6.49222 11.3438C5.89064 11.3828 5.65627 12.1562 6.11716 12.5391L9.64842 15.4844C9.74715 15.566 9.82077 15.6738 9.86082 15.7954C9.90096 15.9171 9.90584 16.0475 9.87502 16.1719L8.82033 20.3281C8.64066 21.0313 9.39062 21.6016 9.9922 21.2188L13.6562 18.8984C13.759 18.8331 13.8782 18.7984 14 18.7984C14.1218 18.7984 14.241 18.8331 14.3438 18.8984Z" fill="black" fill-opacity="0.1"/>
<path fill-rule="evenodd" clip-rule="evenodd" d="M14.0084 19.4258C14.0084 19.4258 14.0046 19.4234 14.0001 19.4234C14.0001 19.4234 13.9955 19.4234 13.9917 19.4258L10.3266 21.7468C10.3266 21.7468 9.93675 21.9949 9.48655 21.9634C9.48655 21.9634 9.07226 21.9345 8.73511 21.6782C8.73511 21.6782 8.40217 21.4251 8.25729 21.0356C8.25729 21.0356 8.1015 20.6168 8.21483 20.1734L9.26925 16.0181C9.26925 16.0181 9.27225 16.006 9.26731 15.9911C9.26731 15.9911 9.26237 15.9761 9.25022 15.966L5.71692 13.019C5.71692 13.019 5.39728 12.7536 5.29241 12.3555C5.29241 12.3555 5.19657 11.9917 5.30925 11.6277C5.30925 11.6277 5.42319 11.2596 5.71159 11.0158C5.71159 11.0158 6.02905 10.7475 6.45174 10.7201L11.0614 10.4232C11.0614 10.4232 11.0723 10.4225 11.0779 10.4184C11.0779 10.4184 11.0835 10.4142 11.0859 10.4077L11.0911 10.3943L12.8069 6.0734C12.8069 6.0734 12.9449 5.70282 13.2695 5.47546C13.2695 5.47546 13.5985 5.24509 14.0001 5.24509C14.0001 5.24509 14.4016 5.24509 14.7306 5.47546C14.7306 5.47546 15.0552 5.70282 15.1932 6.0734L16.9091 10.3943L16.9142 10.4077C16.9142 10.4077 16.9166 10.4142 16.9222 10.4184C16.9222 10.4184 16.9278 10.4225 16.9348 10.4229L21.548 10.72C21.548 10.72 21.9711 10.7475 22.2885 11.0158C22.2885 11.0158 22.5769 11.2596 22.6909 11.6277C22.6909 11.6277 22.8035 11.9917 22.7077 12.3555C22.7077 12.3555 22.6028 12.7536 22.2822 13.0199L18.7519 15.9643C18.7519 15.9643 18.7377 15.9761 18.7328 15.9911C18.7328 15.9911 18.7279 16.006 18.7317 16.0214L19.8714 20.5022C19.8714 20.5022 19.9732 20.904 19.8313 21.2834C19.8313 21.2834 19.6992 21.6365 19.3969 21.8654C19.3969 21.8654 19.0904 22.0975 18.7131 22.1235C18.7131 22.1235 18.304 22.1517 17.9479 21.927L14.0093 19.4264L14.0088 19.4261L14.0084 19.4258ZM18.6147 20.8698L14.6793 18.3711L14.6788 18.3708C14.6788 18.3708 14.3682 18.1734 14.0001 18.1734C14.0001 18.1734 13.6317 18.1734 13.3209 18.371L9.65786 20.6907C9.65786 20.6907 9.5728 20.7448 9.49156 20.6831C9.49156 20.6831 9.39374 20.6087 9.42591 20.4829L10.4809 16.3256C10.4809 16.3256 10.5723 15.9572 10.4545 15.5998C10.4545 15.5998 10.3367 15.2425 10.0468 15.0027L6.51756 12.0591C6.51756 12.0591 6.49105 12.0371 6.50336 11.9973C6.50336 11.9973 6.51219 11.9688 6.53274 11.9674L11.1418 11.6706C11.1418 11.6706 11.5164 11.6488 11.8213 11.4233C11.8213 11.4233 12.1228 11.2003 12.255 10.85L13.9716 6.52754L13.978 6.51051C13.978 6.51051 13.9806 6.50357 13.9866 6.49933C13.9866 6.49933 13.9927 6.49509 14.0001 6.49509C14.0001 6.49509 14.0074 6.49509 14.0135 6.49933C14.0135 6.49933 14.0196 6.50357 14.0221 6.51051L14.0286 6.52754L15.7451 10.85C15.7451 10.85 15.8773 11.2003 16.1788 11.4233C16.1788 11.4233 16.4837 11.6488 16.8622 11.6708L21.4677 11.9674C21.4677 11.9674 21.4879 11.9688 21.4967 11.9973C21.4967 11.9973 21.5091 12.0371 21.4836 12.0582L17.9513 15.0044C17.9513 15.0044 17.6634 15.2425 17.5456 15.5998C17.5456 15.5998 17.4278 15.9572 17.5184 16.3224L18.66 20.8103C18.66 20.8103 18.6696 20.8482 18.6423 20.8689C18.6423 20.8689 18.6291 20.8789 18.6147 20.8698Z" fill="#1C1C1C"/>
</svg>
