<svg width="28" height="28" viewBox="0 0 28 28" fill="none" xmlns="http://www.w3.org/2000/svg">
<path d="M18.6875 14C18.6875 16.5888 16.5888 18.6875 14 18.6875C11.4112 18.6875 9.3125 16.5888 9.3125 14C9.3125 11.4112 11.4112 9.3125 14 9.3125C16.5888 9.3125 18.6875 11.4112 18.6875 14Z" fill="black" fill-opacity="0.1"/>
<path fill-rule="evenodd" clip-rule="evenodd" d="M14 8.6875C14 8.6875 15.0804 8.6875 16.0681 9.10524C16.0681 9.10524 17.0215 9.50853 17.7565 10.2435C17.7565 10.2435 18.4915 10.9785 18.8948 11.9319C18.8948 11.9319 19.3125 12.9196 19.3125 14C19.3125 14 19.3125 15.0804 18.8948 16.0681C18.8948 16.0681 18.4915 17.0215 17.7565 17.7565C17.7565 17.7565 17.0215 18.4915 16.0681 18.8948C16.0681 18.8948 15.0804 19.3125 14 19.3125C14 19.3125 12.9196 19.3125 11.9319 18.8948C11.9319 18.8948 10.9785 18.4915 10.2435 17.7565C10.2435 17.7565 9.50853 17.0215 9.10524 16.0681C9.10524 16.0681 8.6875 15.0804 8.6875 14C8.6875 14 8.6875 12.9196 9.10524 11.9319C9.10524 11.9319 9.50853 10.9785 10.2435 10.2435C10.2435 10.2435 10.9785 9.50853 11.9319 9.10524C11.9319 9.10524 12.9196 8.6875 14 8.6875ZM14 9.9375C14 9.9375 12.3173 9.9375 11.1274 11.1274C11.1274 11.1274 9.9375 12.3173 9.9375 14C9.9375 14 9.9375 15.6827 11.1274 16.8726C11.1274 16.8726 12.3173 18.0625 14 18.0625C14 18.0625 15.6827 18.0625 16.8726 16.8726C16.8726 16.8726 18.0625 15.6827 18.0625 14C18.0625 14 18.0625 12.3173 16.8726 11.1274C16.8726 11.1274 15.6827 9.9375 14 9.9375Z" fill="#1C1C1C"/>
<path d="M14.625 6.8125V5.25C14.625 4.90482 14.3452 4.625 14 4.625C13.6548 4.625 13.375 4.90482 13.375 5.25V6.8125C13.375 7.15768 13.6548 7.4375 14 7.4375C14.3452 7.4375 14.625 7.15768 14.625 6.8125Z" fill="#1C1C1C"/>
<path d="M8.25444 7.37056C8.13723 7.25335 7.97826 7.1875 7.8125 7.1875C7.64674 7.1875 7.48777 7.25335 7.37056 7.37056C7.25335 7.48777 7.1875 7.64674 7.1875 7.8125C7.1875 7.97826 7.25335 8.13723 7.37056 8.25444L8.47212 9.356C8.58933 9.47321 8.7483 9.53906 8.91406 9.53906C9.07982 9.53906 9.23879 9.47321 9.356 9.356C9.47321 9.23879 9.53906 9.07982 9.53906 8.91406C9.53906 8.7483 9.47321 8.58933 9.356 8.47212L8.25444 7.37056Z" fill="#1C1C1C"/>
<path d="M6.8125 13.375H5.25C4.90482 13.375 4.625 13.6548 4.625 14C4.625 14.3452 4.90482 14.625 5.25 14.625H6.8125C7.15768 14.625 7.4375 14.3452 7.4375 14C7.4375 13.6548 7.15768 13.375 6.8125 13.375Z" fill="#1C1C1C"/>
<path d="M7.37056 19.7456C7.25335 19.8628 7.1875 20.0217 7.1875 20.1875C7.1875 20.1983 7.18778 20.2091 7.18834 20.2198C7.19634 20.3742 7.26126 20.5201 7.37056 20.6294C7.48777 20.7467 7.64674 20.8125 7.8125 20.8125C7.97826 20.8125 8.13723 20.7467 8.25444 20.6294L9.356 19.5279C9.47321 19.4107 9.53906 19.2517 9.53906 19.0859C9.53906 18.9202 9.47321 18.7612 9.356 18.644C9.23879 18.5268 9.07982 18.4609 8.91406 18.4609C8.90328 18.4609 8.89249 18.4612 8.88172 18.4618C8.72735 18.4698 8.58142 18.5347 8.47212 18.644L7.37056 19.7456Z" fill="#1C1C1C"/>
<path d="M13.375 21.1875V22.75C13.375 23.0952 13.6548 23.375 14 23.375C14.3452 23.375 14.625 23.0952 14.625 22.75V21.1875C14.625 20.8423 14.3452 20.5625 14 20.5625C13.6548 20.5625 13.375 20.8423 13.375 21.1875Z" fill="#1C1C1C"/>
<path d="M18.6441 19.528L19.7456 20.6294C19.8628 20.7467 20.0217 20.8125 20.1875 20.8125C20.3533 20.8125 20.5122 20.7467 20.6294 20.6294C20.7467 20.5122 20.8125 20.3533 20.8125 20.1875C20.8125 20.0217 20.7467 19.8628 20.6294 19.7456L19.528 18.6441C19.4107 18.5268 19.2517 18.4609 19.0859 18.4609C18.9202 18.4609 18.7612 18.5268 18.644 18.644C18.5268 18.7612 18.4609 18.9202 18.4609 19.0859C18.4609 19.2517 18.5268 19.4107 18.6441 19.528Z" fill="#1C1C1C"/>
<path d="M21.1875 14.625H22.75C23.0952 14.625 23.375 14.3452 23.375 14C23.375 13.6548 23.0952 13.375 22.75 13.375H21.1875C20.8423 13.375 20.5625 13.6548 20.5625 14C20.5625 14.3452 20.8423 14.625 21.1875 14.625Z" fill="#1C1C1C"/>
<path d="M20.6294 8.25444C20.7467 8.13723 20.8125 7.97826 20.8125 7.8125C20.8125 7.64674 20.7467 7.48777 20.6294 7.37056C20.5122 7.25335 20.3533 7.1875 20.1875 7.1875C20.0217 7.1875 19.8628 7.25335 19.7456 7.37056L18.6441 8.47205C18.5268 8.58933 18.4609 8.7483 18.4609 8.91406C18.4609 9.07982 18.5268 9.23879 18.644 9.356C18.7612 9.47321 18.9202 9.53906 19.0859 9.53906C19.2517 9.53906 19.4107 9.47321 19.5279 9.356L20.6294 8.25444Z" fill="#1C1C1C"/>
</svg>
