<svg width="16" height="16" viewBox="0 0 16 16" fill="none" xmlns="http://www.w3.org/2000/svg">
<path d="M14.35 14.3563C14.2566 14.4482 14.131 14.4998 14 14.5C13.8672 14.4994 13.7397 14.448 13.6437 14.3563L10.9437 11.65C9.80659 12.6051 8.34462 13.0844 6.86273 12.9878C5.38083 12.8912 3.99343 12.2263 2.98988 11.1316C1.98633 10.037 1.44412 8.5972 1.47633 7.11251C1.50855 5.62782 2.11269 4.21289 3.16277 3.16281C4.21286 2.11272 5.62779 1.50858 7.11248 1.47636C8.59717 1.44415 10.037 1.98636 11.1316 2.98991C12.2263 3.99346 12.8912 5.38086 12.9878 6.86276C13.0844 8.34465 12.6051 9.80662 11.65 10.9438L14.35 13.6438C14.3972 13.6903 14.4347 13.7457 14.4603 13.8069C14.486 13.8681 14.4991 13.9337 14.4991 14C14.4991 14.0663 14.486 14.132 14.4603 14.1931C14.4347 14.2543 14.3972 14.3097 14.35 14.3563ZM7.24997 12C8.18944 12 9.1078 11.7214 9.88893 11.1995C10.6701 10.6776 11.2789 9.9357 11.6384 9.06775C11.9979 8.1998 12.092 7.24474 11.9087 6.32333C11.7254 5.40192 11.273 4.55555 10.6087 3.89125C9.94443 3.22695 9.09806 2.77456 8.17665 2.59128C7.25524 2.408 6.30018 2.50206 5.43223 2.86158C4.56428 3.22109 3.82243 3.82991 3.30049 4.61105C2.77856 5.39218 2.49997 6.31054 2.49997 7.25001C2.50163 8.50928 3.0026 9.7165 3.89304 10.6069C4.78348 11.4974 5.9907 11.9984 7.24997 12Z" fill="black" fill-opacity="0.2"/>
</svg>
